SplineFontDB: 3.0
FontName: AmaticSC-Regular
FullName: Amatic SC Regular
FamilyName: Amatic SC
Weight: Regular
Copyright: Copyright (c) 2011 by vernon adams (vern@newtypography.co.uk), with Reserved Font Names "Amatic" "Amatic SC"
Version: 1.002
ItalicAngle: 0
UnderlinePosition: -102
UnderlineWidth: 102
Ascent: 1638
Descent: 410
sfntRevision: 0x00010000
LayerCount: 2
Layer: 0 1 "Back"  1
Layer: 1 1 "Fore"  0
NeedsXUIDChange: 1
XUID: [1021 14 500265001 2523254]
FSType: 0
OS2Version: 4
OS2_WeightWidthSlopeOnly: 0
OS2_UseTypoMetrics: 1
CreationTime: 1313748297
ModificationTime: 1318191834
PfmFamily: 81
TTFWeight: 400
TTFWidth: 3
LineGap: 0
VLineGap: 0
Panose: 0 0 0 0 0 0 0 0 0 0
OS2TypoAscent: 443
OS2TypoAOffset: 1
OS2TypoDescent: -91
OS2TypoDOffset: 1
OS2TypoLinegap: 0
OS2WinAscent: 0
OS2WinAOffset: 1
OS2WinDescent: 1
OS2WinDOffset: 1
HheadAscent: 0
HheadAOffset: 1
HheadDescent: -1
HheadDOffset: 1
OS2SubXSize: 1331
OS2SubYSize: 1229
OS2SubXOff: 0
OS2SubYOff: 154
OS2SupXSize: 1331
OS2SupYSize: 1229
OS2SupXOff: 0
OS2SupYOff: 717
OS2StrikeYSize: 102
OS2StrikeYPos: 614
OS2Vendor: 'newt'
OS2CodePages: 00000001.00000000
OS2UnicodeRanges: 00000001.00000000.00000000.00000000
Lookup: 4 0 1 "'liga' Standard Ligatures in Latin lookup 0"  {"'liga' Standard Ligatures in Latin lookup 0 subtable"  } ['liga' ('DFLT' <'dflt' > 'latn' <'dflt' > ) ]
MarkAttachClasses: 1
DEI: 91125
TtTable: prep
PUSHW_1
 511
SCANCTRL
PUSHB_1
 4
SCANTYPE
EndTTInstrs
LangName: 1033 "" "" "" "" "" "Version 1.001" "" "" "" "" "" "" "" "This Font Software is licensed under the SIL Open Font License, Version 1.1. This license is available with a FAQ at: http://scripts.sil.org/OFL" "http://scripts.sil.org/OFL" "" "Amatic SC" "Regular" 
GaspTable: 1 65535 15
Encoding: UnicodeBmp
Compacted: 1
UnicodeInterp: none
NameList: Adobe Glyph List
DisplaySize: -48
AntiAlias: 1
FitToEm: 1
WinInfo: 50 25 10
BeginChars: 65543 378

StartChar: ordfeminine
Encoding: 170 170 0
Width: 692
Flags: HW
LayerCount: 2
Fore
SplineSet
365 817.400390625 m 1,0,-1
 311 815.400390625 l 1,1,2
 297.140625 821.134765625 297.140625 821.134765625 247 827.400390625 c 1,3,4
 195 652.400390625 l 1,5,6
 159.002929688 518.216796875 159.002929688 518.216796875 149.120117188 508.465332031 c 0,7,8
 139.237304688 498.713867188 139.237304688 498.713867188 121.618652344 512.557128906 c 0,9,10
 104 526.400390625 104 526.400390625 104 539.400390625 c 1,11,12
 144.999023438 606.399414062 144.999023438 606.399414062 289.361328125 1210.59765625 c 1,13,14
 304.012695312 1347.68945312 304.012695312 1347.68945312 314 1366 c 1,15,-1
 342 1364 l 1,16,17
 367 1364 367 1364 379 1376 c 1,18,19
 392 1376 392 1376 404 1367.5 c 128,-1,20
 416 1359 416 1359 416 1345 c 1,21,-1
 550 665.900390625 l 2,22,23
 567 576.400390625 567 576.400390625 567 539.900390625 c 128,-1,24
 567 503.400390625 567 503.400390625 551 494.400390625 c 1,25,26
 509.427734375 494.400390625 509.427734375 494.400390625 499.713867188 506.400390625 c 128,-1,27
 490 518.400390625 490 518.400390625 490 544.900390625 c 128,-1,28
 490 571.400390625 490 571.400390625 486.5 609.900390625 c 128,-1,29
 483 648.400390625 483 648.400390625 479.5 671.400390625 c 128,-1,30
 476 694.400390625 476 694.400390625 467.5 743.900390625 c 128,-1,31
 459 793.400390625 459 793.400390625 457 807.400390625 c 1,32,33
 418 817.400390625 418 817.400390625 365 817.400390625 c 1,0,-1
263 892.400390625 m 1,34,-1
 337 876.400390625 l 1,35,36
 421.684570312 868.401367188 421.684570312 868.401367188 436 862.400390625 c 1,37,-1
 457 862.400390625 l 1,38,-1
 359 1282.40039062 l 1,39,40
 302.999023438 1032.39941406 302.999023438 1032.39941406 263 892.400390625 c 1,34,-1
557.5 392.900390625 m 0,41,42
 557.5 385.900390625 557.5 385.900390625 425 380.400390625 c 128,-1,43
 292.5 374.900390625 292.5 374.900390625 241.5 374.900390625 c 0,44,45
 190.5 374.900390625 190.5 374.900390625 176.5 384.400390625 c 128,-1,46
 162.5 393.900390625 162.5 393.900390625 162.5 409.900390625 c 0,47,48
 162.5 416.900390625 162.5 416.900390625 296.5 422.400390625 c 128,-1,49
 430.5 427.900390625 430.5 427.900390625 512.5 427.900390625 c 0,50,51
 527.5 427.900390625 527.5 427.900390625 542.5 417.400390625 c 128,-1,52
 557.5 406.900390625 557.5 406.900390625 557.5 392.900390625 c 0,41,42
EndSplineSet
EndChar

StartChar: ordmasculine
Encoding: 186 186 1
Width: 729
Flags: HW
LayerCount: 2
Fore
SplineSet
606.866210938 825.5 m 1,0,1
 606.866210938 663.72265625 606.866210938 663.72265625 458.866210938 563 c 0,2,3
 422.866210938 538.5 422.866210938 538.5 377.866210938 538.5 c 0,4,5
 136 538.5 136 538.5 136 887.48828125 c 0,6,7
 136 918.147460938 136 918.147460938 138.478515625 962.892578124 c 0,8,9
 140.95703125 1007.63769531 140.95703125 1007.63769531 178.366210938 1220.5 c 0,10,11
 188.861328125 1281.37011719 188.861328125 1281.37011719 244.251953125 1314.40039062 c 0,12,13
 274.663085938 1333.44335938 274.663085938 1333.44335938 327.045898438 1333.44335938 c 0,14,15
 379.428710938 1333.44335938 379.428710938 1333.44335938 442.366210938 1322 c 0,16,17
 483.298828125 1314.55761719 483.298828125 1314.55761719 520.866210938 1243 c 1,18,19
 602.240234375 1112.90429688 602.240234375 1112.90429688 606.866210938 825.5 c 1,0,1
201.866210938 953.5 m 1,20,21
 206.356445312 597.5 206.356445312 597.5 369.366210938 597.5 c 0,22,23
 543.866210938 597.5 543.866210938 597.5 543.866210938 841.5 c 0,24,25
 543.866210938 1145.5 543.866210938 1145.5 480.366210938 1209.75 c 0,26,27
 397.100585938 1294 397.100585938 1294 344.866210938 1294 c 0,28,29
 219.586914062 1294 219.586914062 1294 201.866210938 953.5 c 1,20,21
551.866210938 448.900390625 m 0,30,31
 551.866210938 441.900390625 551.866210938 441.900390625 419.366210938 436.400390625 c 128,-1,32
 286.866210938 430.900390625 286.866210938 430.900390625 235.866210938 430.900390625 c 0,33,34
 184.866210938 430.900390625 184.866210938 430.900390625 170.866210938 440.400390625 c 128,-1,35
 156.866210938 449.900390625 156.866210938 449.900390625 156.866210938 465.900390625 c 0,36,37
 156.866210938 472.900390625 156.866210938 472.900390625 290.866210938 478.400390625 c 128,-1,38
 424.866210938 483.900390625 424.866210938 483.900390625 506.866210938 483.900390625 c 0,39,40
 521.866210938 483.900390625 521.866210938 483.900390625 536.866210938 473.400390625 c 128,-1,41
 551.866210938 462.900390625 551.866210938 462.900390625 551.866210938 448.900390625 c 0,30,31
EndSplineSet
EndChar

StartChar: exclam
Encoding: 33 33 4
Width: 329
GlyphClass: 2
Flags: HW
LayerCount: 2
Fore
SplineSet
88 39 m 1,0,1
 88 59 88 59 109 80.5 c 128,-1,2
 130 102 130 102 155 102 c 128,-1,3
 180 102 180 102 195.5 80.5 c 128,-1,4
 211 59 211 59 211 27 c 0,5,6
 211 -24 211 -24 160 -27 c 1,7,8
 157 -18 157 -18 147 -16.5 c 0,9,10
 113.216216216 -11.4324324324 113.216216216 -11.4324324324 88 39 c 1,0,1
147 322 m 1,11,-1
 145 330 l 1,12,-1
 145 821 l 1,13,14
 150 1171 l 1,15,-1
 135 1493 l 2,16,17
 135 1514 135 1514 156.5 1531 c 128,-1,18
 178 1548 178 1548 201.5 1548 c 128,-1,19
 225 1548 225 1548 225 1522 c 0,20,21
 225 1358 225 1358 203.5 1032.5 c 128,-1,22
 182 707 182 707 182 543 c 1,23,-1
 184 453 l 1,24,25
 184 371 184 371 168 332 c 1,26,-1
 174 322 l 1,27,-1
 147 322 l 1,11,-1
EndSplineSet
EndChar

StartChar: quotedbl
Encoding: 34 34 5
Width: 636
GlyphClass: 2
Flags: HW
LayerCount: 2
Fore
SplineSet
207 1262 m 1,0,1
 211 1291 211 1291 211 1384 c 2,2,-1
 211 1401 l 2,3,4
 211 1575 211 1575 232.5 1575 c 128,-1,5
 254 1575 254 1575 267.5 1551.5 c 128,-1,6
 281 1528 281 1528 281 1485 c 128,-1,7
 281 1442 281 1442 257.5 1349.5 c 128,-1,8
 234 1257 234 1257 215 1257 c 0,9,10
 212 1257 212 1257 207 1262 c 1,0,1
418 1455 m 2,11,12
 418 1575 418 1575 459 1575 c 0,13,14
 470 1575 470 1575 477.5 1551.5 c 128,-1,15
 485 1528 485 1528 485 1486.5 c 128,-1,16
 485 1445 485 1445 473 1350 c 128,-1,17
 461 1255 461 1255 453.5 1255 c 128,-1,18
 446 1255 446 1255 444 1257 c 0,19,20
 418 1297 418 1297 418 1409 c 2,21,-1
 418 1455 l 2,11,12
EndSplineSet
EndChar

StartChar: numbersign
Encoding: 35 35 6
Width: 790
GlyphClass: 2
Flags: HW
LayerCount: 2
Fore
SplineSet
578 674 m 1,0,-1
 616 676 l 1,1,2
 674 676 674 676 674 637 c 0,3,4
 674 623 674 623 641 610 c 1,5,-1
 561 610 l 1,6,7
 557 555 557 555 530.5 324.5 c 128,-1,8
 504 94 504 94 504 -31 c 1,9,-1
 481 -57 l 1,10,11
 444 -57 444 -57 444 -37 c 0,12,13
 444 6 444 6 457.5 91 c 128,-1,14
 471 176 471 176 471 230 c 128,-1,15
 471 284 471 284 490.5 410.5 c 128,-1,16
 510 537 510 537 510 602 c 1,17,18
 455 608 455 608 375 608 c 128,-1,19
 295 608 295 608 272 600 c 1,20,21
 262 529 262 529 246 348.5 c 0,22,23
 210.055401662 -57 210.055401662 -57 184 -57 c 0,24,25
 174 -57 174 -57 162 -51.5 c 128,-1,26
 150 -46 150 -46 150 -37 c 0,27,28
 150 42 150 42 175 263 c 128,-1,29
 200 484 200 484 225 600 c 1,30,-1
 137 592 l 1,31,32
 76 592 76 592 76 635 c 0,33,34
 76 655 76 655 145 655 c 2,35,-1
 188 655 l 2,36,37
 219 655 219 655 229 657 c 1,38,39
 235 670 235 670 250.5 806.5 c 128,-1,40
 266 943 266 943 266 971 c 1,41,-1
 197 967 l 1,42,43
 119 967 119 967 117 1004 c 1,44,-1
 133 1022 l 1,45,46
 251 1022 251 1022 270 1028 c 1,47,48
 275 1073 275 1073 288.5 1161.5 c 0,49,50
 317 1348.33333333 317 1348.33333333 317 1456 c 1,51,-1
 315 1497 l 1,52,53
 315 1542 315 1542 346 1542 c 1,54,-1
 360 1513 l 1,55,56
 360 1433 360 1433 342 1275.5 c 128,-1,57
 324 1118 324 1118 324 1038 c 1,58,59
 353 1030 353 1030 431 1030 c 128,-1,60
 509 1030 509 1030 547 1044 c 1,61,62
 610 1349 610 1349 623 1526 c 1,63,64
 636 1542 636 1542 653 1542 c 128,-1,65
 670 1542 670 1542 678 1522 c 1,66,67
 677 1443 677 1443 640.5 1289.5 c 128,-1,68
 604 1136 604 1136 604 1055 c 1,69,-1
 608 1044 l 1,70,-1
 684 1044 l 1,71,-1
 711 1016 l 1,72,73
 698 983 698 983 684 983 c 2,74,-1
 598 987 l 1,75,76
 567 865 567 865 567 678 c 1,77,-1
 578 674 l 1,0,-1
281 674 m 1,78,-1
 283 666 l 1,79,80
 307 662 307 662 376 662 c 128,-1,81
 445 662 445 662 506 670 c 1,82,83
 543 867.333333333 543 867.333333333 543 963 c 0,84,85
 543 983 543 983 385 983 c 0,86,87
 339 983 339 983 317 971 c 1,88,89
 306 946 306 946 293.5 832 c 128,-1,90
 281 718 281 718 281 674 c 1,78,-1
EndSplineSet
EndChar

StartChar: dollar
Encoding: 36 36 7
Width: 538
GlyphClass: 2
Flags: HW
LayerCount: 2
Fore
SplineSet
319 184 m 1,0,-1
 328 68 l 1,1,2
 328 -18 328 -18 293 -18 c 0,3,4
 284 -18 284 -18 279 -3 c 128,-1,5
 274 12 274 12 274 23 c 1,6,-1
 283 29 l 1,7,-1
 283 164 l 1,8,-1
 276 170 l 1,9,10
 207 170 207 170 174 166 c 1,11,12
 102 216 102 216 102 268 c 0,13,14
 102 289 102 289 121 289 c 2,15,-1
 125 289 l 1,16,17
 145 277 145 277 151.5 254.5 c 128,-1,18
 158 232 158 232 170 218.5 c 128,-1,19
 182 205 182 205 218.5 205 c 128,-1,20
 255 205 255 205 279 213 c 1,21,22
 279 378.384615385 279 378.384615385 225 881 c 0,23,24
 224 891 224 891 202 938.5 c 128,-1,25
 180 986 180 986 155 1040.5 c 0,26,27
 88 1186.56 88 1186.56 88 1300 c 0,28,29
 88 1355 88 1355 103 1412 c 0,30,31
 131.947368421 1522 131.947368421 1522 186 1522 c 1,32,-1
 178 1610 l 1,33,34
 178 1663 178 1663 207 1663 c 1,35,-1
 223 1645 l 1,36,37
 221 1631 221 1631 221 1599 c 0,38,39
 221 1524 221 1524 254 1524 c 0,40,41
 293 1524 293 1524 332 1479 c 1,42,43
 383 1428 383 1428 383 1416.5 c 128,-1,44
 383 1405 383 1405 374.5 1394 c 128,-1,45
 366 1383 366 1383 356 1393 c 128,-1,46
 346 1403 346 1403 329 1430 c 128,-1,47
 312 1457 312 1457 293 1470 c 128,-1,48
 274 1483 274 1483 238 1487 c 1,49,-1
 231 1470 l 1,50,-1
 238 1309 l 1,51,52
 238 1248 238 1248 254.5 1075 c 128,-1,53
 271 902 271 902 282.5 873.5 c 128,-1,54
 294 845 294 845 339.5 753 c 0,55,56
 448.657052963 532.286837965 448.657052963 532.286837965 459 403 c 1,57,58
 459 317.720930233 459 317.720930233 429.5 281.360465116 c 128,-1,59
 400 245 400 245 380 229 c 128,-1,60
 360 213 360 213 319 184 c 1,0,-1
315 240 m 1,61,-1
 317 236 l 1,62,63
 357 255 357 255 385.5 299 c 128,-1,64
 414 343 414 343 414 392 c 128,-1,65
 414 441 414 441 367 580.5 c 128,-1,66
 320 720 320 720 281 776 c 1,67,68
 281 686 281 686 298 508 c 128,-1,69
 315 330 315 330 315 240 c 1,61,-1
135 1288 m 0,70,71
 135 1160 135 1160 213 989 c 1,72,73
 213 984 213 984 219 981 c 1,74,75
 217 1070 217 1070 201 1236 c 128,-1,76
 185 1402 185 1402 182 1473 c 1,77,78
 162 1469 162 1469 148.5 1397.5 c 128,-1,79
 135 1326 135 1326 135 1288 c 0,70,71
EndSplineSet
EndChar

StartChar: percent
Encoding: 37 37 8
Width: 1120
GlyphClass: 2
Flags: HW
LayerCount: 2
Fore
SplineSet
436 1153 m 1,0,-1
 440 1059 l 1,1,2
 440 823.285714286 440 823.285714286 345 750 c 0,3,4
 310 723 310 723 262 723 c 0,5,6
 90 723 90 723 90 1180 c 2,7,-1
 90 1188 l 2,8,9
 90 1259.38709677 90 1259.38709677 113.5 1358.69354839 c 0,10,11
 159.244274809 1552 159.244274809 1552 236 1552 c 0,12,13
 340 1552 340 1552 377 1477 c 1,14,15
 440 1369 440 1369 440 1159 c 1,16,-1
 436 1153 l 1,0,-1
141 1178 m 1,17,-1
 145 1065 l 1,18,19
 145 1002.9047619 145 1002.9047619 159.5 926.952380952 c 0,20,21
 188.318181818 776 188.318181818 776 258 776 c 0,22,23
 302 776 302 776 332 810 c 128,-1,24
 362 844 362 844 373.5 899 c 0,25,26
 393 992.260869565 393 992.260869565 393 1071 c 1,27,-1
 377 1327 l 1,28,-1
 373 1346 l 1,29,30
 373 1407 373 1407 335.5 1452 c 128,-1,31
 298 1497 298 1497 242 1497 c 0,32,33
 199.189189189 1497 199.189189189 1497 179 1414 c 0,34,35
 163.781341108 1351.43440233 163.781341108 1351.43440233 157.390670554 1294.71720117 c 128,-1,36
 151 1238 151 1238 150 1231 c 2,37,-1
 141 1178 l 1,17,-1
1036 479 m 1,38,-1
 1032 385 l 1,39,-1
 1036 379 l 1,40,41
 1036 261.25 1036 261.25 1008.5 180.125 c 0,42,43
 956.593220339 27 956.593220339 27 831 27 c 0,44,45
 792 27 792 27 762 68.5 c 128,-1,46
 732 110 732 110 716.5 168.5 c 0,47,48
 686 283.612903226 686 283.612903226 686 350 c 2,49,-1
 686 358 l 2,50,51
 686 815 686 815 858 815 c 0,52,53
 906 815 906 815 941 788 c 128,-1,54
 976 761 976 761 993.5 724.5 c 128,-1,55
 1011 688 1011 688 1021.5 636 c 0,56,57
 1036 564.19047619 1036 564.19047619 1036 479 c 1,38,-1
983 369 m 128,-1,59
 985 407 985 407 984 431.5 c 128,-1,60
 983 456 983 456 983 477 c 128,-1,61
 983 498 983 498 981.5 526.5 c 128,-1,62
 980 555 980 555 972 600 c 128,-1,63
 964 645 964 645 951 677.5 c 128,-1,64
 938 710 938 710 912.5 734 c 128,-1,65
 887 758 887 758 852.5 758 c 128,-1,66
 818 758 818 758 794 721.5 c 128,-1,67
 770 685 770 685 759.5 631.5 c 0,68,69
 741 537.238095238 741 537.238095238 741 475 c 1,70,-1
 737 367 l 1,71,-1
 745 313 l 2,72,73
 746 309 746 309 752.5 266 c 128,-1,74
 759 223 759 223 766 189.5 c 128,-1,75
 773 156 773 156 791.5 125 c 128,-1,76
 810 94 810 94 841 94 c 128,-1,77
 872 94 872 94 899 110.5 c 128,-1,78
 926 127 926 127 941 154.5 c 128,-1,79
 956 182 956 182 966 218 c 128,-1,80
 976 254 976 254 978.5 292.5 c 128,-1,58
 981 331 981 331 983 369 c 128,-1,59
735 1532 m 0,81,82
 766 1532 766 1532 766 1505 c 0,83,84
 766 1488.45454545 766 1488.45454545 746 1405.72727273 c 128,-1,85
 726 1323 726 1323 713 1263.5 c 128,-1,86
 700 1204 700 1204 494 299 c 1,87,-1
 453 121 l 2,88,89
 451 114 451 114 447 92.5 c 128,-1,90
 443 71 443 71 439.5 58 c 128,-1,91
 436 45 436 45 430 28.5 c 0,92,93
 418.21875 -3.8984375 418.21875 -3.8984375 393 -6 c 1,94,95
 373 7 373 7 373 41 c 128,-1,96
 373 75 373 75 383 130 c 128,-1,97
 393 185 393 185 415.5 273.5 c 128,-1,98
 438 362 438 362 509 675.5 c 128,-1,99
 580 989 580 989 640.5 1219.5 c 128,-1,100
 701 1450 701 1450 703.5 1461 c 128,-1,101
 706 1472 706 1472 709.5 1483 c 128,-1,102
 713 1494 713 1494 717 1505.5 c 0,103,104
 726.217391304 1532 726.217391304 1532 735 1532 c 0,81,82
EndSplineSet
EndChar

StartChar: ampersand
Encoding: 38 38 9
Width: 942
GlyphClass: 2
Flags: HW
LayerCount: 2
Fore
SplineSet
862 254 m 1,0,1
 862 221 862 221 776.615384615 221 c 128,-1,2
 691.230769231 221 691.230769231 221 584 303 c 1,3,4
 517 257 517 257 469.5 238 c 128,-1,5
 422 219 422 219 351 219 c 128,-1,6
 280 219 280 219 218.5 269 c 128,-1,7
 157 319 157 319 124.5 390.5 c 128,-1,8
 92 462 92 462 92 518.5 c 128,-1,9
 92 575 92 575 93.5 611.5 c 128,-1,10
 95 648 95 648 102.5 686.5 c 128,-1,11
 110 725 110 725 113.5 748.5 c 128,-1,12
 117 772 117 772 131.5 812 c 128,-1,13
 146 852 146 852 150.5 867 c 128,-1,14
 155 882 155 882 177.5 927.5 c 128,-1,15
 200 973 200 973 205 983.5 c 128,-1,16
 210 994 210 994 239 1050 c 128,-1,17
 268 1106 268 1106 274 1118 c 1,18,-1
 260 1405 l 1,19,-1
 260 1575 l 2,20,21
 260 1636.8125 260 1636.8125 281.5 1670.40625 c 128,-1,22
 303 1704 303 1704 326 1704 c 0,23,24
 373 1704 373 1704 427 1673 c 128,-1,25
 481 1642 481 1642 481 1599 c 1,26,-1
 475 1477 l 2,27,28
 475 1460 475 1460 477 1452 c 1,29,30
 461.857142857 1410.35714286 461.857142857 1410.35714286 441.928571429 1351.67857143 c 0,31,32
 396.791714614 1218.77560414 396.791714614 1218.77560414 368.395857307 1179.38780207 c 0,33,34
 322 1115.03225806 322 1115.03225806 322 1085 c 0,35,36
 322 1024 322 1024 361.5 863.5 c 128,-1,37
 401 703 401 703 461.5 550 c 128,-1,38
 522 397 522 397 569 383 c 1,39,40
 647 540 647 540 647 780 c 0,41,42
 647 814.571428571 647 814.571428571 629 812 c 0,43,44
 608.608695652 809.086956522 608.608695652 809.086956522 598 825 c 1,45,-1
 600 829 l 1,46,-1
 596 842 l 1,47,-1
 602 852 l 1,48,49
 637 852 637 852 719.5 860.5 c 128,-1,50
 802 869 802 869 823 877 c 1,51,52
 858 871.615384615 858 871.615384615 858 846 c 0,53,54
 858 831 858 831 823.5 822 c 128,-1,55
 789 813 789 813 756 813 c 1,56,-1
 707 815 l 1,57,-1
 694 815 l 1,58,59
 694 657 694 657 676.5 554 c 128,-1,60
 659 451 659 451 606 348 c 1,61,62
 677 266 677 266 764 266 c 1,63,-1
 840 272 l 1,64,-1
 862 254 l 1,0,1
174 813.5 m 128,-1,66
 137 692 137 692 137 602 c 128,-1,67
 137 512 137 512 150 459.5 c 128,-1,68
 163 407 163 407 189 360.5 c 0,69,70
 246.311827957 258 246.311827957 258 367 258 c 0,71,72
 408 258 408 258 474 282.5 c 128,-1,73
 540 307 540 307 543 340 c 1,74,75
 534 355 534 355 502 387 c 0,76,77
 437 453 437 453 385.5 589 c 128,-1,78
 334 725 334 725 319.5 798 c 128,-1,79
 305 871 305 871 298 932.5 c 128,-1,80
 291 994 291 994 281 1026 c 1,81,65
 211 935 211 935 174 813.5 c 128,-1,66
764 629 m 1,82,83
 766 629 766 629 766 627 c 1,84,-1
 764 629 l 1,82,83
313 1315 m 1,85,86
 309 1303 309 1303 309 1283.5 c 128,-1,87
 309 1264 309 1264 312 1235 c 128,-1,88
 315 1206 315 1206 315 1190 c 1,89,90
 350 1222 350 1222 393 1348 c 128,-1,91
 436 1474 436 1474 436 1530 c 0,92,93
 436 1653 436 1653 360 1653 c 0,94,95
 346 1653 346 1653 326.5 1623.5 c 128,-1,96
 307 1594 307 1594 307 1579 c 2,97,-1
 309 1325 l 1,98,-1
 313 1315 l 1,85,86
EndSplineSet
EndChar

StartChar: quotesingle
Encoding: 39 39 10
Width: 636
GlyphClass: 2
Flags: HW
LayerCount: 2
Fore
SplineSet
207 1262 m 1,0,1
 211 1291 211 1291 211 1384 c 2,2,-1
 211 1401 l 2,3,4
 211 1575 211 1575 232.5 1575 c 0,5,6
 254 1575 254 1575 267.5 1551.5 c 128,-1,7
 281 1528 281 1528 281 1485 c 0,8,9
 281 1442 281 1442 257.5 1349.5 c 128,-1,10
 234 1257 234 1257 215 1257 c 0,11,12
 212 1257 212 1257 207 1262 c 1,0,1
EndSplineSet
EndChar

StartChar: parenleft
Encoding: 40 40 11
Width: 460
GlyphClass: 2
Flags: HW
LayerCount: 2
Fore
SplineSet
94 879 m 0,0,1
 94 947 94 947 119.5 1118 c 128,-1,2
 145 1289 145 1289 194 1456.5 c 128,-1,3
 243 1624 243 1624 293 1626 c 1,4,-1
 313 1610 l 1,5,6
 311.419004525 1560.98914027 311.419004525 1560.98914027 280.709502262 1501.99457014 c 0,7,8
 150 1250.89473684 150 1250.89473684 150 879 c 0,9,10
 150 230 150 230 305 -139 c 0,11,12
 313 -158 313 -158 346.5 -218.5 c 128,-1,13
 380 -279 380 -279 389 -315 c 1,14,15
 374 -340 374 -340 360.5 -340 c 128,-1,16
 347 -340 347 -340 338 -335.5 c 128,-1,17
 329 -331 329 -331 321.5 -318.5 c 128,-1,18
 314 -306 314 -306 310.5 -300 c 0,19,20
 293 -270 293 -270 293 -258 c 1,21,22
 199 -48 199 -48 146.5 271 c 128,-1,23
 94 590 94 590 94 879 c 0,0,1
EndSplineSet
EndChar

StartChar: parenright
Encoding: 41 41 12
Width: 477
GlyphClass: 2
Flags: HW
LayerCount: 2
Fore
SplineSet
387 817 m 0,0,1
 387 584 387 584 324 319 c 1,2,3
 186 -279 186 -279 102 -279 c 0,4,5
 91 -279 91 -279 81.5 -272 c 128,-1,6
 72 -265 72 -265 72 -255.5 c 128,-1,7
 72 -246 72 -246 87 -216.5 c 128,-1,8
 102 -187 102 -187 124 -145.5 c 0,9,10
 211.347717842 19.2695586571 211.347717842 19.2695586571 271.673858921 316.634779329 c 128,-1,11
 332 614 332 614 332 817 c 0,12,13
 332 1167 332 1167 240 1423 c 0,14,15
 232 1445 232 1445 212.5 1480.5 c 0,16,17
 168 1561.51282051 168 1561.51282051 168 1610 c 1,18,-1
 188 1626 l 1,19,20
 230 1625 230 1625 269.5 1516 c 128,-1,21
 309 1407 309 1407 333.5 1263 c 0,22,23
 387 948.551020408 387 948.551020408 387 817 c 0,0,1
EndSplineSet
EndChar

StartChar: asterisk
Encoding: 42 42 13
Width: 905
GlyphClass: 2
Flags: HW
LayerCount: 2
Fore
SplineSet
537 1120 m 1,0,1
 482 1120 482 1120 473 1114 c 1,2,3
 474 1088 474 1088 552.5 932.5 c 128,-1,4
 631 777 631 777 631 759.5 c 128,-1,5
 631 742 631 742 622 733.5 c 128,-1,6
 613 725 613 725 597 725 c 128,-1,7
 581 725 581 725 570 742.5 c 128,-1,8
 559 760 559 760 552.5 793.5 c 128,-1,9
 546 827 546 827 545 831 c 0,10,11
 490 962 490 962 434 1065 c 1,12,13
 425 1053 425 1053 410 1012 c 1,14,-1
 330 823 l 2,15,16
 326 813 326 813 317.5 789.5 c 0,17,18
 300.623188406 742.84057971 300.623188406 742.84057971 287 719 c 1,19,-1
 260 715 l 1,20,-1
 231 745 l 1,21,22
 231 768 231 768 308 919.5 c 128,-1,23
 385 1071 385 1071 393 1118 c 1,24,25
 381 1122 381 1122 371 1122 c 2,26,-1
 139 1122 l 1,27,-1
 106 1120 l 1,28,29
 84 1120 84 1120 84 1153 c 0,30,31
 84 1163 84 1163 90.5 1170.5 c 128,-1,32
 97 1178 97 1178 106 1178 c 2,33,-1
 383 1176 l 1,34,-1
 387 1180 l 1,35,36
 365 1220 365 1220 301.5 1355 c 128,-1,37
 238 1490 238 1490 238 1503 c 0,38,39
 238 1526 238 1526 270 1526 c 0,40,41
 284 1526 284 1526 313.5 1454.5 c 128,-1,42
 343 1383 343 1383 375.5 1304 c 128,-1,43
 408 1225 408 1225 428 1212 c 1,44,45
 437 1228 437 1228 465.5 1315.5 c 0,46,47
 539.925714286 1544 539.925714286 1544 575 1544 c 0,48,49
 586 1544 586 1544 597 1533.5 c 128,-1,50
 608 1523 608 1523 608 1511.5 c 128,-1,51
 608 1500 608 1500 582 1458 c 1,52,53
 558 1410 558 1410 526.5 1314 c 128,-1,54
 495 1218 495 1218 477 1178 c 1,55,56
 488 1167 488 1167 602 1167 c 1,57,-1
 778 1178 l 2,58,59
 793 1178 793 1178 805 1165.5 c 128,-1,60
 817 1153 817 1153 817 1139 c 0,61,62
 817 1110 817 1110 770 1110 c 1,63,-1
 537 1120 l 1,0,1
471 1120 m 1,64,65
 469 1120 469 1120 469 1118 c 1,66,-1
 471 1118 l 1,67,-1
 471 1120 l 1,64,65
EndSplineSet
EndChar

StartChar: plus
Encoding: 43 43 14
Width: 727
GlyphClass: 2
Flags: HW
LayerCount: 2
Fore
SplineSet
401 389 m 0,0,1
 401 356 401 356 358 356 c 0,2,3
 346 356 346 356 330.5 365 c 128,-1,4
 315 374 315 374 315 385 c 2,5,-1
 315 449 l 1,6,-1
 319 555 l 1,7,8
 319 615.321428571 319 615.321428571 290 620.5 c 0,9,10
 276 623 276 623 250 623 c 1,11,-1
 160 612 l 1,12,13
 100 612 100 612 100 655 c 0,14,15
 100 684 100 684 123 684 c 1,16,-1
 231 678 l 1,17,18
 315 678 315 678 315 694 c 2,19,-1
 305 899 l 1,20,21
 305 923 305 923 313.5 933.5 c 128,-1,22
 322 944 322 944 346 944 c 0,23,24
 383 944 383 944 383 909 c 1,25,-1
 375 889 l 1,26,-1
 383 727 l 1,27,28
 383 698 383 698 396.5 688 c 128,-1,29
 410 678 410 678 440 678 c 1,30,-1
 563 684 l 1,31,32
 627 684 627 684 627 649 c 128,-1,33
 627 614 627 614 592 614 c 1,34,-1
 467 621 l 1,35,36
 402 621 402 621 396 610.5 c 0,37,38
 383 587.75 383 587.75 383 551.875 c 128,-1,39
 383 516 383 516 392 466 c 128,-1,40
 401 416 401 416 401 389 c 0,0,1
EndSplineSet
EndChar

StartChar: comma
Encoding: 44 44 15
Width: 407
GlyphClass: 2
Flags: HW
LayerCount: 2
Fore
SplineSet
100 -162 m 1,0,-1
 104 -143 l 1,1,2
 211 -53.8333333333 211 -53.8333333333 211 6 c 1,3,4
 186 20 186 20 169 45 c 128,-1,5
 152 70 152 70 152 97 c 128,-1,6
 152 124 152 124 176.5 142 c 128,-1,7
 201 160 201 160 229 160 c 0,8,9
 275 160 275 160 297 100 c 1,10,-1
 293 94 l 1,11,12
 297 86 297 86 297 61 c 128,-1,13
 297 36 297 36 272 -22 c 128,-1,14
 247 -80 247 -80 207 -128.5 c 128,-1,15
 167 -177 167 -177 133 -178 c 1,16,-1
 100 -162 l 1,0,-1
EndSplineSet
EndChar

StartChar: hyphen
Encoding: 45 45 16
Width: 620
GlyphClass: 2
Flags: HW
LayerCount: 2
Fore
SplineSet
508 739 m 0,0,1
 508 718 508 718 374.5 699 c 128,-1,2
 241 680 241 680 191 680 c 0,3,4
 141 680 141 680 127 689.5 c 128,-1,5
 113 699 113 699 113 715 c 0,6,7
 113 736 113 736 248 755 c 128,-1,8
 383 774 383 774 430.5 774 c 0,9,10
 508 774 508 774 508 739 c 0,0,1
EndSplineSet
EndChar

StartChar: period
Encoding: 46 46 17
Width: 327
GlyphClass: 2
Flags: HW
LayerCount: 2
Fore
SplineSet
126.5 7.5 m 128,-1,1
 113 23 113 23 113 42 c 128,-1,2
 113 61 113 61 129.5 78.5 c 128,-1,3
 146 96 146 96 165 96 c 128,-1,4
 184 96 184 96 199.5 78.5 c 128,-1,5
 215 61 215 61 215 43 c 0,6,7
 215 -8 215 -8 158 -8 c 0,8,0
 140 -8 140 -8 126.5 7.5 c 128,-1,1
EndSplineSet
EndChar

StartChar: slash
Encoding: 47 47 18
Width: 559
GlyphClass: 2
Flags: HW
LayerCount: 2
Fore
SplineSet
479 1505 m 0,0,1
 479 1488.45454545 479 1488.45454545 459 1405.72727273 c 128,-1,2
 439 1323 439 1323 426 1263.5 c 128,-1,3
 413 1204 413 1204 207 299 c 1,4,-1
 166 121 l 2,5,6
 164 114 164 114 160 92.5 c 128,-1,7
 156 71 156 71 152.5 58 c 128,-1,8
 149 45 149 45 143 28.5 c 0,9,10
 131.21875 -3.8984375 131.21875 -3.8984375 106 -6 c 1,11,12
 86 7 86 7 86 41 c 128,-1,13
 86 75 86 75 96.5 131 c 128,-1,14
 107 187 107 187 129.5 273 c 128,-1,15
 152 359 152 359 223 674 c 128,-1,16
 294 989 294 989 354.5 1219.5 c 128,-1,17
 415 1450 415 1450 417.5 1461 c 128,-1,18
 420 1472 420 1472 423.5 1483 c 128,-1,19
 427 1494 427 1494 431 1505.5 c 0,20,21
 440.217391304 1532 440.217391304 1532 449 1532 c 0,22,23
 479 1532 479 1532 479 1505 c 0,0,1
EndSplineSet
EndChar

StartChar: zero
Encoding: 48 48 19
Width: 606
GlyphClass: 2
Flags: HW
LayerCount: 2
Fore
SplineSet
100 1036 m 2,0,-1
 102 1364 l 1,1,2
 113.785714286 1384.35714286 113.785714286 1384.35714286 124.392857143 1432.67857143 c 128,-1,3
 135 1481 135 1481 146 1501 c 0,4,5
 168.55 1542 168.55 1542 248 1542 c 0,6,7
 268 1542 268 1542 304 1521.5 c 128,-1,8
 340 1501 340 1501 359.5 1482.5 c 128,-1,9
 379 1464 379 1464 392.5 1438.5 c 128,-1,10
 406 1413 406 1413 415 1395 c 128,-1,11
 424 1377 424 1377 430.5 1342.5 c 128,-1,12
 437 1308 437 1308 439.5 1293 c 0,13,14
 447.4 1245.6 447.4 1245.6 450.7 1211.3 c 128,-1,15
 454 1177 454 1177 462 1117 c 128,-1,16
 470 1057 470 1057 471.5 1045 c 128,-1,17
 473 1033 473 1033 480.5 978.5 c 128,-1,18
 488 924 488 924 489.5 906.5 c 128,-1,19
 491 889 491 889 496.5 840.5 c 128,-1,20
 502 792 502 792 504 768 c 128,-1,21
 506 744 506 744 509.5 701.5 c 128,-1,22
 513 659 513 659 514.5 629.5 c 0,23,24
 518 560.666666667 518 560.666666667 518 504.833333333 c 128,-1,25
 518 449 518 449 516 408.5 c 128,-1,26
 514 368 514 368 508.5 304.5 c 128,-1,27
 503 241 503 241 489.5 189.5 c 128,-1,28
 476 138 476 138 455.5 89.5 c 0,29,30
 411.75257732 -14 411.75257732 -14 322 -14 c 0,31,32
 302.8 -14 302.8 -14 256 12 c 1,33,34
 159 72 159 72 106 774 c 1,35,-1
 115 782 l 1,36,-1
 113 928 l 1,37,38
 100 945 100 945 100 1036 c 2,0,-1
156 946 m 1,39,-1
 176 766 l 1,40,41
 176 33 176 33 340 33 c 0,42,43
 398.07 33 398.07 33 427.5 142 c 0,44,45
 456.134155744 248.052428682 456.134155744 248.052428682 461.067077872 334.026214341 c 0,46,47
 469 472.285714286 469 472.285714286 469 563.142857143 c 128,-1,48
 469 654 469 654 453 823.5 c 128,-1,49
 437 993 437 993 406 1071 c 1,50,-1
 406 1159 l 1,51,52
 383.7 1214.75 383.7 1214.75 381.85 1274.875 c 128,-1,53
 380 1335 380 1335 372.5 1369.5 c 128,-1,54
 365 1404 365 1404 351 1429 c 0,55,56
 319.546052632 1485.16776316 319.546052632 1485.16776316 217 1497 c 1,57,58
 169 1458 169 1458 158 1428 c 128,-1,59
 147 1398 147 1398 147 1329 c 1,60,-1
 156 946 l 1,39,-1
EndSplineSet
EndChar

StartChar: one
Encoding: 49 49 20
Width: 606
GlyphClass: 2
Flags: HW
LayerCount: 2
Fore
SplineSet
481 14 m 1,0,-1
 229 6 l 2,1,2
 215 6 215 6 206 15 c 128,-1,3
 197 24 197 24 197 37 c 1,4,-1
 207 57 l 1,5,-1
 262 55 l 1,6,7
 291 55 291 55 302 68 c 128,-1,8
 313 81 313 81 313 111 c 0,9,10
 313 369 313 369 300 581 c 0,11,12
 285.275510204 821.12244898 285.275510204 821.12244898 254 1284 c 1,13,-1
 256 1354 l 1,14,15
 256 1414 256 1414 237 1448.5 c 128,-1,16
 218 1483 218 1483 162 1483 c 1,17,-1
 115 1479 l 1,18,19
 80 1479 80 1479 80 1501 c 0,20,21
 80 1530 80 1530 260 1530 c 0,22,23
 274 1530 274 1530 283.5 1520 c 128,-1,24
 293 1510 293 1510 293 1497 c 1,25,-1
 297 1497 l 1,26,27
 291 1467 291 1467 291 1418.5 c 128,-1,28
 291 1370 291 1370 306.5 1241 c 128,-1,29
 322 1112 322 1112 322 1022 c 128,-1,30
 322 932 322 932 339 703.5 c 128,-1,31
 356 475 356 475 356 412.5 c 128,-1,32
 356 350 356 350 352 334 c 1,33,34
 365 282 365 282 365 102 c 1,35,-1
 362 72 l 1,36,-1
 371 66 l 1,37,-1
 463 72 l 1,38,39
 526 72 526 72 526 43 c 128,-1,40
 526 14 526 14 481 14 c 1,0,-1
EndSplineSet
EndChar

StartChar: two
Encoding: 50 50 21
Width: 571
GlyphClass: 2
Flags: HW
LayerCount: 2
Fore
SplineSet
428 2 m 1,0,-1
 129 -16 l 1,1,2
 109 -16 109 -16 93.5 -5 c 128,-1,3
 78 6 78 6 78 25 c 1,4,5
 113 69 113 69 147 164.5 c 128,-1,6
 181 260 181 260 188 274 c 0,7,8
 305 530 305 530 363.5 762 c 128,-1,9
 422 994 422 994 422 1249 c 0,10,11
 422 1544 422 1544 295 1544 c 1,12,13
 266.886764609 1531.76486358 266.886764609 1531.76486358 250.443382304 1501.38243179 c 128,-1,14
 234 1471 234 1471 230.5 1441.5 c 0,15,16
 221.542372881 1366 221.542372881 1366 194.771186441 1366 c 128,-1,17
 168 1366 168 1366 168 1403 c 128,-1,18
 168 1440 168 1440 179 1479.5 c 128,-1,19
 190 1519 190 1519 216 1552 c 128,-1,20
 242 1585 242 1585 276 1585 c 0,21,22
 362 1585 362 1585 415 1520 c 128,-1,23
 468 1455 468 1455 471 1366 c 1,24,-1
 467 1362 l 1,25,-1
 473 1212 l 1,26,27
 473 1045 473 1045 427 804 c 128,-1,28
 381 563 381 563 317 420 c 0,29,30
 312 408 312 408 265 311 c 0,31,32
 155.783858998 85.5964749536 155.783858998 85.5964749536 154 41 c 1,33,-1
 170 39 l 1,34,35
 241 52 241 52 416 61 c 1,36,-1
 446 29 l 1,37,-1
 428 2 l 1,0,-1
EndSplineSet
EndChar

StartChar: three
Encoding: 51 51 22
Width: 589
GlyphClass: 2
Flags: HW
LayerCount: 2
Fore
SplineSet
315 844 m 1,0,-1
 295 842 l 1,1,2
 272 842 272 842 256 850 c 1,3,-1
 256 858 l 1,4,-1
 246 868 l 1,5,6
 247 875 247 875 267.5 899 c 128,-1,7
 288 923 288 923 312.5 952.5 c 128,-1,8
 337 982 337 982 357 1031 c 128,-1,9
 377 1080 377 1080 377 1122 c 128,-1,10
 377 1164 377 1164 375 1200.5 c 128,-1,11
 373 1237 373 1237 365.5 1292.5 c 128,-1,12
 358 1348 358 1348 345 1389 c 128,-1,13
 332 1430 332 1430 306 1460.5 c 128,-1,14
 280 1491 280 1491 246 1491 c 128,-1,15
 212 1491 212 1491 189.5 1472.5 c 128,-1,16
 167 1454 167 1454 159 1432.5 c 0,17,18
 137.23255814 1374 137.23255814 1374 111 1374 c 0,19,20
 99 1374 99 1374 88 1382.5 c 128,-1,21
 77 1391 77 1391 76 1403 c 1,22,23
 108 1468 108 1468 148 1504 c 128,-1,24
 188 1540 188 1540 233 1540 c 0,25,26
 306.666666667 1540 306.666666667 1540 344 1491 c 1,27,-1
 350 1489 l 1,28,29
 432 1370 432 1370 432 1102 c 0,30,31
 432 1052 432 1052 395 987 c 1,32,33
 386 981 386 981 361.5 940 c 128,-1,34
 337 899 337 899 328 889 c 1,35,36
 407.780927835 857.087628866 407.780927835 857.087628866 439.5 765 c 0,37,38
 461.854785479 700.099009901 461.854785479 700.099009901 474.927392739 617.04950495 c 128,-1,39
 488 534 488 534 497 494.5 c 0,40,41
 510 437.444444444 510 437.444444444 510 384.222222222 c 128,-1,42
 510 331 510 331 509 304.5 c 128,-1,43
 508 278 508 278 504 237 c 128,-1,44
 500 196 500 196 493 166 c 128,-1,45
 486 136 486 136 472 102.5 c 128,-1,46
 458 69 458 69 439 47.5 c 0,47,48
 395.255813953 -2 395.255813953 -2 338.127906977 -2 c 128,-1,49
 281 -2 281 -2 238 18 c 128,-1,50
 195 38 195 38 195 74 c 1,51,-1
 211 84 l 1,52,53
 235.676056338 82.3549295775 235.676056338 82.3549295775 262.838028169 62.1774647887 c 128,-1,54
 290 42 290 42 299 37 c 1,55,56
 455 37 455 37 455 297 c 0,57,58
 455 530.357142857 455 530.357142857 423 643.5 c 0,59,60
 388.758659218 764.567597765 388.758659218 764.567597765 315 844 c 1,0,-1
EndSplineSet
EndChar

StartChar: four
Encoding: 52 52 23
Width: 526
GlyphClass: 2
Flags: HW
LayerCount: 2
Fore
SplineSet
455 567 m 0,0,1
 455 536.651162791 455 536.651162791 397.5 542 c 0,2,3
 376 544 376 544 358 534 c 128,-1,4
 340 524 340 524 340 483 c 128,-1,5
 340 442 340 442 345.5 305 c 128,-1,6
 351 168 351 168 358 152 c 1,7,8
 356 144 356 144 356 113.5 c 128,-1,9
 356 83 356 83 365 68 c 1,10,-1
 358 43 l 1,11,-1
 365 29 l 1,12,-1
 365 0 l 1,13,-1
 332 -25 l 1,14,-1
 301 -12 l 1,15,-1
 301 61 l 1,16,-1
 299 66 l 1,17,18
 307 99 307 99 307 139 c 1,19,-1
 293 348 l 1,20,-1
 297 440 l 1,21,22
 297 520 297 520 276 530 c 1,23,-1
 156 518 l 1,24,25
 129.181818182 518 129.181818182 518 117.090909091 527.5 c 128,-1,26
 105 537 105 537 100 541 c 1,27,-1
 100 547 l 2,28,29
 100 557 100 557 111 612 c 1,30,-1
 92 653 l 1,31,-1
 111 754 l 1,32,-1
 131 1155 l 1,33,-1
 131 1481 l 1,34,-1
 123 1532 l 1,35,36
 123 1559 123 1559 153.5 1559 c 128,-1,37
 184 1559 184 1559 184 1530 c 1,38,-1
 176 1366 l 1,39,40
 176 1330 176 1330 182 1296 c 1,41,-1
 178 1290 l 1,42,43
 182 1254 182 1254 182 1233 c 2,44,-1
 158 717 l 1,45,-1
 172 657 l 1,46,-1
 158 602 l 1,47,48
 158 563 158 563 177.5 563 c 128,-1,49
 197 563 197 563 232.5 569 c 128,-1,50
 268 575 268 575 281 582 c 1,51,52
 281 656 281 656 273 852.5 c 128,-1,53
 265 1049 265 1049 257.5 1104 c 128,-1,54
 250 1159 250 1159 250 1179.5 c 0,55,56
 250 1212 250 1212 289 1212 c 1,57,-1
 307 1190 l 1,58,-1
 319 901 l 1,59,60
 319 841 319 841 325 716 c 128,-1,61
 331 591 331 591 340 582 c 1,62,-1
 416 590 l 1,63,64
 455 590 455 590 455 567 c 0,0,1
EndSplineSet
EndChar

StartChar: five
Encoding: 53 53 24
Width: 569
GlyphClass: 2
Flags: HW
LayerCount: 2
Fore
SplineSet
152 1544 m 1,0,1
 152 1487.06666667 152 1487.06666667 193 1006 c 1,2,-1
 190 1004 l 2,3,4
 190 1003 190 1003 226 999 c 0,5,6
 341.434782609 986.173913043 341.434782609 986.173913043 374.217391304 961.586956522 c 128,-1,7
 407 937 407 937 436 824.5 c 0,8,9
 485 634.413793103 485 634.413793103 485 438 c 0,10,11
 485 289.454545455 485 289.454545455 476 238.727272727 c 128,-1,12
 467 188 467 188 455.5 147.5 c 128,-1,13
 444 107 444 107 428 79 c 0,14,15
 389.487179487 11.6025641026 389.487179487 11.6025641026 330 -20 c 1,16,-1
 319 -20 l 2,17,18
 213 -20 213 -20 213 12 c 0,19,20
 213 35 213 35 252 35 c 1,21,-1
 305 18 l 1,22,23
 336 18 336 18 362.5 56 c 128,-1,24
 389 94 389 94 403.5 148 c 0,25,26
 434 261.586206897 434 261.586206897 434 326.293103448 c 128,-1,27
 434 391 434 391 429.5 473 c 128,-1,28
 425 555 425 555 411.5 674.5 c 128,-1,29
 398 794 398 794 365.5 873 c 128,-1,30
 333 952 333 952 285 952 c 2,31,-1
 238 952 l 1,32,-1
 229 946 l 1,33,-1
 223 948 l 1,34,-1
 178 930 l 1,35,36
 139.772727273 930 139.772727273 930 132.5 962 c 0,37,38
 130 973 130 973 129 995.5 c 128,-1,39
 128 1018 128 1018 127 1026 c 1,40,41
 137 1084 137 1084 137 1145 c 128,-1,42
 137 1206 137 1206 113.5 1351 c 128,-1,43
 90 1496 90 1496 88 1565 c 1,44,-1
 109 1585 l 1,45,-1
 266 1587 l 2,46,47
 328 1587 328 1587 328 1559 c 1,48,-1
 305 1540 l 1,49,-1
 262 1540 l 1,50,-1
 256 1536 l 1,51,-1
 174 1546 l 1,52,-1
 160 1542 l 1,53,-1
 152 1544 l 1,0,1
152 1337 m 1,54,55
 150 1337 150 1337 150 1335 c 1,56,-1
 152 1337 l 1,54,55
EndSplineSet
EndChar

StartChar: six
Encoding: 54 54 25
Width: 516
GlyphClass: 2
Flags: HW
LayerCount: 2
Fore
SplineSet
353.5 -17.5 m 128,-1,1
 327 -29 327 -29 289 -29 c 128,-1,2
 251 -29 251 -29 222 -6.5 c 128,-1,3
 193 16 193 16 178.5 49 c 128,-1,4
 164 82 164 82 154.5 129 c 128,-1,5
 145 176 145 176 142.5 215.5 c 0,6,7
 134.204545455 346.568181818 134.204545455 346.568181818 131 369 c 0,8,9
 100 594 100 594 100 807 c 0,10,11
 100 1002.5 100 1002.5 107.5 1082.75 c 128,-1,12
 115 1163 115 1163 123.5 1238 c 128,-1,13
 132 1313 132 1313 147 1365.5 c 128,-1,14
 162 1418 162 1418 182 1467.5 c 0,15,16
 223.01010101 1569 223.01010101 1569 297 1569 c 0,17,18
 304 1569 304 1569 313 1563 c 128,-1,19
 322 1557 322 1557 322 1547 c 128,-1,20
 322 1537 322 1537 309 1527.5 c 128,-1,21
 296 1518 296 1518 277 1510 c 128,-1,22
 258 1502 258 1502 252 1497 c 0,23,24
 219 1470 219 1470 195 1335.5 c 0,25,26
 159.981492537 1139.25044776 159.981492537 1139.25044776 154 897 c 1,27,28
 178 913 178 913 205.5 913 c 128,-1,29
 233 913 233 913 262 897 c 128,-1,30
 291 881 291 881 312 850.5 c 128,-1,31
 333 820 333 820 351 784 c 128,-1,32
 369 748 369 748 381 698 c 128,-1,33
 393 648 393 648 402 603.5 c 128,-1,34
 411 559 411 559 416.5 502 c 128,-1,35
 422 445 422 445 425.5 403.5 c 128,-1,36
 429 362 429 362 430 309.5 c 128,-1,37
 431 257 431 257 431.5 231 c 128,-1,38
 432 205 432 205 432 170.5 c 128,-1,39
 432 136 432 136 429.5 110.5 c 128,-1,40
 427 85 427 85 418.5 57.5 c 128,-1,41
 410 30 410 30 395 12 c 128,-1,0
 380 -6 380 -6 353.5 -17.5 c 128,-1,1
154 758 m 0,42,43
 151 469 151 469 205 166 c 0,44,45
 206 158 206 158 208.5 137.5 c 128,-1,46
 211 117 211 117 213 106 c 128,-1,47
 215 95 215 95 219 78 c 128,-1,48
 223 61 223 61 229.5 51.5 c 128,-1,49
 236 42 236 42 246 31.5 c 0,50,51
 264.571428571 12 264.571428571 12 307 12 c 0,52,53
 383 12 383 12 383 174 c 0,54,55
 383 407.782608696 383 407.782608696 365 524.391304348 c 128,-1,56
 347 641 347 641 330 712.5 c 128,-1,57
 313 784 313 784 283 826 c 128,-1,58
 253 868 253 868 215 868 c 1,59,60
 154 828 154 828 154 758 c 0,42,43
EndSplineSet
EndChar

StartChar: seven
Encoding: 55 55 26
Width: 450
GlyphClass: 2
Flags: HW
LayerCount: 2
Fore
SplineSet
102 1561 m 1,0,-1
 319 1567 l 2,1,2
 333 1567 333 1567 346.5 1555.5 c 128,-1,3
 360 1544 360 1544 365 1530 c 1,4,5
 352.492385787 1496.05076142 352.492385787 1496.05076142 351.746192893 1452.02538071 c 128,-1,6
 351 1408 351 1408 344.5 1329.5 c 128,-1,7
 338 1251 338 1251 258.5 683.5 c 128,-1,8
 179 116 179 116 158 86 c 1,9,10
 160 80 160 80 160 60.5 c 128,-1,11
 160 41 160 41 147 7.5 c 128,-1,12
 134 -26 134 -26 111 -27 c 1,13,-1
 86 -4 l 1,14,15
 86 30.3 86 30.3 102.5 78.15 c 128,-1,16
 119 126 119 126 139.5 213 c 128,-1,17
 160 300 160 300 184.5 470 c 128,-1,18
 209 640 209 640 235 881 c 128,-1,19
 261 1122 261 1122 268.5 1183 c 128,-1,20
 276 1244 276 1244 286 1307 c 0,21,22
 307 1439.3 307 1439.3 307 1516 c 0,23,24
 307 1528 307 1528 236 1528 c 1,25,-1
 115 1522 l 1,26,-1
 84 1542 l 1,27,-1
 102 1561 l 1,0,-1
EndSplineSet
EndChar

StartChar: eight
Encoding: 56 56 27
Width: 524
GlyphClass: 2
Flags: HW
LayerCount: 2
Fore
SplineSet
444 104 m 1,0,-1
 438 55 l 2,1,2
 438 49 438 49 440 45 c 1,3,4
 407 -19 407 -19 371.5 -48.5 c 128,-1,5
 336 -78 336 -78 285 -78 c 128,-1,6
 234 -78 234 -78 205 -49 c 128,-1,7
 176 -20 176 -20 161.5 24 c 0,8,9
 133 110.482758621 133 110.482758621 133 186 c 0,10,11
 133 498 133 498 199 756 c 0,12,13
 202 768 202 768 210.5 790.5 c 0,14,15
 229 839.470588235 229 839.470588235 229 858.735294118 c 128,-1,16
 229 878 229 878 219.5 911 c 128,-1,17
 210 944 210 944 196.5 984.5 c 0,18,19
 88 1310 88 1310 88 1442 c 0,20,21
 88 1556.25 88 1556.25 150 1595 c 0,22,23
 174 1610 174 1610 207 1610 c 2,24,-1
 244 1610 l 1,25,26
 250 1607 250 1607 264 1601 c 128,-1,27
 278 1595 278 1595 285 1591 c 0,28,29
 305.877192982 1579.07017544 305.877192982 1579.07017544 315 1559 c 0,30,31
 354 1471 354 1471 354 1348 c 128,-1,32
 354 1225 354 1225 313 1008 c 1,33,34
 283 873 283 873 283 867 c 128,-1,35
 283 861 283 861 288 847 c 128,-1,36
 293 833 293 833 300 817 c 128,-1,37
 307 801 307 801 309 795 c 0,38,39
 444 388 444 388 444 104 c 1,0,-1
205 53 m 1,40,41
 207 21 207 21 225 -9 c 128,-1,42
 243 -39 243 -39 272 -39 c 0,43,44
 337 -39 337 -39 366 6 c 128,-1,45
 395 51 395 51 395 119 c 0,46,47
 395 313 395 313 317 598 c 0,48,49
 311 619 311 619 301.5 661.5 c 0,50,51
 280.434782609 755.739130435 280.434782609 755.739130435 262 788 c 1,52,53
 221 731 221 731 200.5 522.5 c 128,-1,54
 180 314 180 314 180 168 c 0,55,56
 180 126 180 126 207 59 c 1,57,-1
 205 53 l 1,40,41
233 1565 m 1,58,-1
 211 1563 l 1,59,60
 195 1563 195 1563 186 1569 c 1,61,62
 139 1531 139 1531 139 1452.5 c 128,-1,63
 139 1374 139 1374 178 1180.5 c 128,-1,64
 217 987 217 987 246 969 c 1,65,66
 307 1165 307 1165 307 1335 c 0,67,68
 307 1439.11111111 307 1439.11111111 285 1502.05555556 c 128,-1,69
 263 1565 263 1565 233 1565 c 1,58,-1
EndSplineSet
EndChar

StartChar: nine
Encoding: 57 57 28
Width: 509
GlyphClass: 2
Flags: HW
LayerCount: 2
Fore
SplineSet
369 57 m 1,0,-1
 371 10 l 1,1,2
 371 -47 371 -47 336 -47 c 1,3,-1
 319 -27 l 1,4,5
 338 27 338 27 338 156 c 1,6,-1
 348 727 l 2,7,8
 348 764 348 764 346 837.5 c 128,-1,9
 344 911 344 911 344 948 c 1,10,-1
 330 944 l 1,11,12
 220 969 220 969 152 1051 c 128,-1,13
 84 1133 84 1133 84 1243 c 0,14,15
 84 1399.97222222 84 1399.97222222 133 1507.5 c 0,16,17
 151 1547 151 1547 183.5 1574.5 c 128,-1,18
 216 1602 216 1602 253 1602 c 128,-1,19
 290 1602 290 1602 333.5 1586.5 c 128,-1,20
 377 1571 377 1571 391.5 1548 c 128,-1,21
 406 1525 406 1525 406 1223 c 1,22,-1
 403 981 l 1,23,-1
 389 899 l 1,24,-1
 383 209 l 1,25,-1
 369 57 l 1,0,-1
154 1171 m 1,26,27
 159.93304721 1097.82575107 159.93304721 1097.82575107 183.966523605 1075.91287554 c 128,-1,28
 208 1054 208 1054 222.5 1045.5 c 128,-1,29
 237 1037 237 1037 266.5 1023 c 128,-1,30
 296 1009 296 1009 317 997 c 1,31,-1
 346 1001 l 1,32,33
 356 1182 356 1182 356 1440 c 0,34,35
 356 1498 356 1498 335 1530.5 c 128,-1,36
 314 1563 314 1563 268.5 1563 c 128,-1,37
 223 1563 223 1563 196.5 1528 c 128,-1,38
 170 1493 170 1493 158.5 1439 c 0,39,40
 137 1338.04347826 137 1338.04347826 137 1263.02173913 c 128,-1,41
 137 1188 137 1188 154 1171 c 1,26,27
EndSplineSet
EndChar

StartChar: colon
Encoding: 58 58 29
Width: 344
GlyphClass: 2
Flags: HW
LayerCount: 2
Fore
SplineSet
126.5 216.5 m 128,-1,1
 113 232 113 232 113 251 c 128,-1,2
 113 270 113 270 129.5 287.5 c 128,-1,3
 146 305 146 305 165 305 c 128,-1,4
 184 305 184 305 199.5 287.5 c 128,-1,5
 215 270 215 270 215 252 c 0,6,7
 215 201 215 201 158 201 c 0,8,0
 140 201 140 201 126.5 216.5 c 128,-1,1
146.5 990.5 m 128,-1,10
 133 1006 133 1006 133 1025 c 128,-1,11
 133 1044 133 1044 149.5 1061.5 c 128,-1,12
 166 1079 166 1079 185 1079 c 128,-1,13
 204 1079 204 1079 220 1061.5 c 128,-1,14
 236 1044 236 1044 236 1026 c 0,15,16
 236 975 236 975 178 975 c 0,17,9
 160 975 160 975 146.5 990.5 c 128,-1,10
EndSplineSet
EndChar

StartChar: semicolon
Encoding: 59 59 30
Width: 391
GlyphClass: 2
Flags: HW
LayerCount: 2
Fore
SplineSet
193.5 990.5 m 128,-1,1
 180 1006 180 1006 180 1025 c 128,-1,2
 180 1044 180 1044 196.5 1061.5 c 128,-1,3
 213 1079 213 1079 232 1079 c 128,-1,4
 251 1079 251 1079 267 1061.5 c 128,-1,5
 283 1044 283 1044 283 1026 c 0,6,7
 283 975 283 975 225 975 c 0,8,0
 207 975 207 975 193.5 990.5 c 128,-1,1
205 182 m 1,9,10
 145 218 145 218 145 272 c 0,11,12
 145 300 145 300 169.5 318 c 128,-1,13
 194 336 194 336 223.5 336 c 128,-1,14
 253 336 253 336 272 312.5 c 128,-1,15
 291 289 291 289 291 254.5 c 128,-1,16
 291 220 291 220 268 160 c 128,-1,17
 245 100 245 100 205 49.5 c 128,-1,18
 165 -1 165 -1 127 -2 c 1,19,-1
 94 14 l 1,20,-1
 98 33 l 1,21,22
 205 122.166666667 205 122.166666667 205 182 c 1,9,10
EndSplineSet
EndChar

StartChar: less
Encoding: 60 60 31
Width: 569
GlyphClass: 2
Flags: HW
LayerCount: 2
Fore
SplineSet
461 0 m 1,0,-1
 434 4 l 1,1,-1
 430 4 l 1,2,3
 398.26458616 50.7679782904 398.26458616 50.7679782904 361.13229308 134.883989145 c 128,-1,4
 324 219 324 219 313 242 c 2,5,-1
 211 455 l 2,6,7
 206 466 206 466 189.5 498.5 c 128,-1,8
 173 531 173 531 166 549 c 0,9,10
 160 567 160 567 122 617.5 c 128,-1,11
 84 668 84 668 84 695.5 c 128,-1,12
 84 723 84 723 132 837 c 128,-1,13
 180 951 180 951 237.5 1080.5 c 128,-1,14
 295 1210 295 1210 302 1231.5 c 128,-1,15
 309 1253 309 1253 318.5 1287 c 128,-1,16
 328 1321 328 1321 336 1346 c 0,17,18
 358.80239521 1417.25748503 358.80239521 1417.25748503 385 1421 c 1,19,-1
 412 1401 l 1,20,21
 393.956521739 1281.91304348 393.956521739 1281.91304348 272.5 1039 c 0,22,23
 156 806 156 806 156 700 c 0,24,25
 156 683 156 683 297 395.5 c 128,-1,26
 438 108 438 108 471 53 c 1,27,-1
 489 39 l 1,28,29
 487 28 487 28 478.5 14 c 128,-1,30
 470 0 470 0 461 0 c 1,0,-1
EndSplineSet
EndChar

StartChar: equal
Encoding: 61 61 32
Width: 620
GlyphClass: 2
Flags: HW
LayerCount: 2
Fore
SplineSet
569 727 m 0,0,1
 569 721 569 721 354 721 c 2,2,-1
 156 721 l 2,3,4
 139 721 139 721 126 730.5 c 128,-1,5
 113 740 113 740 113 756 c 0,6,7
 113 762 113 762 293 762 c 2,8,-1
 524 762 l 2,9,10
 539 762 539 762 554 751.5 c 128,-1,11
 569 741 569 741 569 727 c 0,0,1
141 647 m 2,12,-1
 545 645 l 2,13,14
 552 645 552 645 558.5 635 c 128,-1,15
 565 625 565 625 565 614.5 c 128,-1,16
 565 604 565 604 553 604 c 1,17,18
 553 608 553 608 158 608 c 0,19,20
 149 608 149 608 141 619 c 128,-1,21
 133 630 133 630 133 638.5 c 128,-1,22
 133 647 133 647 141 647 c 2,12,-1
EndSplineSet
EndChar

StartChar: greater
Encoding: 62 62 33
Width: 569
GlyphClass: 2
Flags: HW
LayerCount: 2
Fore
SplineSet
139 4 m 1,0,1
 109 0 l 1,2,3
 100 0 100 0 91 14 c 128,-1,4
 82 28 82 28 80 39 c 1,5,-1
 98 53 l 1,6,7
 134 118 134 118 274 400.5 c 128,-1,8
 414 683 414 683 414 700 c 0,9,10
 414 806 414 806 297.5 1039 c 0,11,12
 176.043478261 1281.91304348 176.043478261 1281.91304348 158 1401 c 1,13,-1
 184 1421 l 1,14,15
 211.933014354 1415.01435407 211.933014354 1415.01435407 233.5 1346 c 0,16,17
 241 1322 241 1322 250.5 1287.5 c 128,-1,18
 260 1253 260 1253 267 1231.5 c 128,-1,19
 274 1210 274 1210 331.5 1081 c 0,20,21
 485 736.626086957 485 736.626086957 485 702.813043478 c 128,-1,22
 485 669 485 669 447.5 618 c 128,-1,23
 410 567 410 567 403 548.5 c 128,-1,24
 396 530 396 530 379 497.5 c 128,-1,25
 362 465 362 465 358 455 c 2,26,-1
 182 90 l 2,27,28
 145 13 145 13 139 4 c 1,0,1
EndSplineSet
EndChar

StartChar: question
Encoding: 63 63 34
Width: 464
GlyphClass: 2
Flags: HW
LayerCount: 2
Fore
SplineSet
109 1283 m 1,0,1
 94 1360 94 1360 94 1400.5 c 128,-1,2
 94 1441 94 1441 100 1469 c 128,-1,3
 106 1497 106 1497 119 1522.5 c 0,4,5
 147.294117647 1578 147.294117647 1578 223.647058824 1578 c 128,-1,6
 300 1578 300 1578 322 1534 c 0,7,8
 367 1444 367 1444 367 1327.5 c 128,-1,9
 367 1211 367 1211 351.5 1120.5 c 128,-1,10
 336 1030 336 1030 315 949.5 c 128,-1,11
 294 869 294 869 274 775.5 c 0,12,13
 226.64957265 554.136752137 226.64957265 554.136752137 238 242 c 1,14,15
 237 244 237 244 234.5 242.5 c 0,16,17
 223.666666667 236 223.666666667 236 213 236 c 0,18,19
 195 236 195 236 190 260 c 1,20,21
 190 567 190 567 229 819 c 1,22,23
 238 870 238 870 261.5 968.5 c 0,24,25
 313 1184.36170213 313 1184.36170213 313 1303 c 0,26,27
 313 1409.97222222 313 1409.97222222 291.5 1471.48611111 c 128,-1,28
 270 1533 270 1533 240 1533 c 2,29,-1
 217 1533 l 2,30,31
 145 1533 145 1533 145 1406 c 0,32,33
 145 1378 145 1378 160 1283 c 1,34,-1
 135 1275 l 1,35,36
 112 1273 112 1273 109 1283 c 1,0,1
181.5 7.5 m 128,-1,38
 168 23 168 23 168 42 c 128,-1,39
 168 61 168 61 184.5 78.5 c 128,-1,40
 201 96 201 96 220 96 c 128,-1,41
 239 96 239 96 254.5 78.5 c 128,-1,42
 270 61 270 61 270 43 c 0,43,44
 270 -8 270 -8 213 -8 c 0,45,37
 195 -8 195 -8 181.5 7.5 c 128,-1,38
EndSplineSet
EndChar

StartChar: at
Encoding: 64 64 35
Width: 1036
GlyphClass: 2
Flags: HW
LayerCount: 2
Fore
SplineSet
487 467 m 0,0,1
 284 467 284 467 284 954 c 2,2,-1
 284 979 l 2,3,4
 284 1177.13333333 284 1177.13333333 295.5 1231.56666667 c 128,-1,5
 307 1286 307 1286 322 1331.5 c 128,-1,6
 337 1377 337 1377 358.5 1402.5 c 0,7,8
 410.352941176 1464 410.352941176 1464 491 1464 c 0,9,10
 572.210526316 1464 572.210526316 1464 625 1405 c 1,11,12
 656.975609756 1366.62926829 656.975609756 1366.62926829 718 793 c 0,13,14
 728 699 728 699 729 686 c 1,15,-1
 752 676 l 1,16,17
 778 625 778 625 795 625 c 0,18,19
 874 625 874 625 874 936.5 c 128,-1,20
 874 1248 874 1248 760 1550 c 0,21,22
 730 1630 730 1630 693.5 1677.5 c 0,23,24
 619.347368421 1774 619.347368421 1774 470 1774 c 0,25,26
 322.64516129 1774 322.64516129 1774 261 1683 c 0,27,28
 209.043243243 1606.3019305 209.043243243 1606.3019305 195.5 1467 c 0,29,30
 191.642045455 1427.31818182 191.642045455 1427.31818182 188.821022727 1374.65909091 c 128,-1,31
 186 1322 186 1322 185 1314 c 128,-1,32
 184 1306 184 1306 181.5 1282.5 c 128,-1,33
 179 1259 179 1259 176.5 1247 c 0,34,35
 167.378378378 1203.21621622 167.378378378 1203.21621622 160 1186 c 1,36,37
 164 1132 164 1132 164 1096 c 128,-1,38
 164 1060 164 1060 156 1040 c 1,39,40
 160 1032 160 1032 160 1002.5 c 128,-1,41
 160 973 160 973 163 922.5 c 128,-1,42
 166 872 166 872 168.5 845.5 c 128,-1,43
 171 819 171 819 178.5 750.5 c 128,-1,44
 186 682 186 682 189 655 c 128,-1,45
 192 628 192 628 195.5 576.5 c 128,-1,46
 199 525 199 525 201 492 c 128,-1,47
 203 459 203 459 209.5 416 c 128,-1,48
 216 373 216 373 226.5 339 c 0,49,50
 251.689119171 257.435233161 251.689119171 257.435233161 312.344559585 171.71761658 c 128,-1,51
 373 86 373 86 439 86 c 0,52,53
 551 86 551 86 636 123.5 c 128,-1,54
 721 161 721 161 803 248 c 0,55,56
 814 259 814 259 822 267 c 0,57,58
 840 285 840 285 848 287 c 1,59,-1
 866 268 l 1,60,61
 852 217 852 217 801 172 c 128,-1,62
 750 127 750 127 686 99 c 0,63,64
 548.857142857 39 548.857142857 39 446 39 c 0,65,66
 297.27027027 39 297.27027027 39 187 279 c 1,67,68
 185.206703911 304.106145251 185.206703911 304.106145251 174.103351955 327.053072626 c 128,-1,69
 163 350 163 350 160 360 c 0,70,71
 138 422 138 422 115 670.5 c 128,-1,72
 92 919 92 919 92 1024 c 0,73,74
 92 1434.56666667 92 1434.56666667 174 1650.5 c 0,75,76
 217.190919674 1764.23608847 217.190919674 1764.23608847 309.5 1804 c 0,77,78
 376.821428571 1833 376.821428571 1833 455.410714286 1833 c 128,-1,79
 534 1833 534 1833 581 1819.5 c 128,-1,80
 628 1806 628 1806 663.5 1786.5 c 128,-1,81
 699 1767 699 1767 730 1730.5 c 128,-1,82
 761 1694 761 1694 782 1663 c 128,-1,83
 803 1632 803 1632 822.5 1580 c 128,-1,84
 842 1528 842 1528 853 1492.5 c 128,-1,85
 864 1457 864 1457 876 1395.5 c 0,86,87
 907.574468085 1233.68085106 907.574468085 1233.68085106 911.287234043 1200.34042553 c 128,-1,88
 915 1167 915 1167 922 1122.5 c 128,-1,89
 929 1078 929 1078 931 1063 c 128,-1,90
 933 1048 933 1048 937.5 1014 c 0,91,92
 944 964.888888889 944 964.888888889 944 903 c 0,93,94
 944 565 944 565 792 565 c 0,95,96
 764 565 764 565 734 588.5 c 128,-1,97
 704 612 704 612 689 616 c 1,98,99
 652.508898145 527.992048466 652.508898145 527.992048466 569.5 487 c 0,100,101
 529 467 529 467 487 467 c 0,0,1
526.5 1404.5 m 128,-1,103
 511 1409 511 1409 489 1409 c 128,-1,104
 467 1409 467 1409 447 1397 c 128,-1,105
 427 1385 427 1385 414 1367 c 128,-1,106
 401 1349 401 1349 392 1321 c 128,-1,107
 383 1293 383 1293 378 1267.5 c 128,-1,108
 373 1242 373 1242 370 1207.5 c 0,109,110
 366 1161.5 366 1161.5 366 1094 c 2,111,-1
 366 831 l 2,112,113
 366 690.611111111 366 690.611111111 380.5 646.305555556 c 128,-1,114
 395 602 395 602 409.5 577 c 0,115,116
 439.08 526 439.08 526 502 526 c 0,117,118
 537 526 537 526 572 566.5 c 128,-1,119
 607 607 607 607 627.5 658 c 128,-1,120
 648 709 648 709 648 745 c 2,121,-1
 648 899 l 2,122,123
 648 933 648 933 645 964.5 c 128,-1,124
 642 996 642 996 641 1011 c 128,-1,125
 640 1026 640 1026 636 1050 c 128,-1,126
 632 1074 632 1074 630.5 1085.5 c 128,-1,127
 629 1097 629 1097 624 1124 c 128,-1,128
 619 1151 619 1151 617 1159 c 0,129,130
 608.470588235 1193.11764706 608.470588235 1193.11764706 600.235294118 1243.55882353 c 128,-1,131
 592 1294 592 1294 589.5 1306.5 c 128,-1,132
 587 1319 587 1319 582 1338 c 128,-1,133
 577 1357 577 1357 570 1367.5 c 128,-1,134
 563 1378 563 1378 552.5 1389 c 128,-1,102
 542 1400 542 1400 526.5 1404.5 c 128,-1,103
EndSplineSet
EndChar

StartChar: A
Encoding: 65 65 36
Width: 696
GlyphClass: 2
Flags: HW
LayerCount: 2
Fore
SplineSet
567 600 m 1,0,-1
 590 66 l 1,1,-1
 590 44 l 2,2,3
 590 19.5555555556 590 19.5555555556 583.5 13.7777777778 c 0,4,5
 568 -1.7763568394e-15 568 -1.7763568394e-15 549 -8.881784197e-16 c 128,-1,6
 530 0 530 0 518 10 c 128,-1,7
 506 20 506 20 506 35 c 1,8,9
 512 47 512 47 512 59 c 1,10,-1
 506 100 l 1,11,-1
 506 303 l 2,12,13
 506 330 506 330 398 349.5 c 128,-1,14
 290 369 290 369 238 369 c 0,15,16
 218 369 218 369 202 294.5 c 128,-1,17
 186 220 186 220 171 131 c 128,-1,18
 156 42 156 42 141 20 c 1,19,20
 92.5833333333 20 92.5833333333 20 78 45 c 1,21,22
 109.609756098 90.6585365854 109.609756098 90.6585365854 139.304878049 268.829268293 c 128,-1,23
 169 447 169 447 187 527.5 c 128,-1,24
 205 608 205 608 251.5 877 c 128,-1,25
 298 1146 298 1146 314.5 1221.5 c 128,-1,26
 331 1297 331 1297 340 1333 c 128,-1,27
 349 1369 349 1369 363 1418.5 c 0,28,29
 396.232323232 1536 396.232323232 1536 422 1536 c 0,30,31
 454 1536 454 1536 464.5 1521.5 c 128,-1,32
 475 1507 475 1507 482.5 1453.5 c 128,-1,33
 490 1400 490 1400 497.5 1317.5 c 128,-1,34
 505 1235 505 1235 511 1166.5 c 0,35,36
 530 949.583333333 530 949.583333333 534.5 881.791666667 c 128,-1,37
 539 814 539 814 553 784 c 1,38,39
 549 722 549 722 549 677.5 c 128,-1,40
 549 633 549 633 567 600 c 1,0,-1
231 426 m 1,41,42
 317 397 317 397 438 397 c 0,43,44
 463 397 463 397 475 401 c 1,45,-1
 485 397 l 1,46,47
 504 397 504 397 504 416 c 0,48,49
 504 844 504 844 424 1339 c 0,50,51
 423 1345 423 1345 419.5 1361 c 128,-1,52
 416 1377 416 1377 416 1386 c 1,53,54
 391 1315 391 1315 389 1296 c 1,55,-1
 395 1284 l 1,56,57
 388 1277 388 1277 372 1213.5 c 128,-1,58
 356 1150 356 1150 327.5 951.5 c 128,-1,59
 299 753 299 753 286.5 696.5 c 128,-1,60
 274 640 274 640 260.5 593.5 c 0,61,62
 231 491.888888889 231 491.888888889 231 438 c 2,63,-1
 231 426 l 1,41,42
EndSplineSet
EndChar

StartChar: B
Encoding: 66 66 37
Width: 616
GlyphClass: 2
Flags: HW
LayerCount: 2
Fore
SplineSet
514 473 m 1,0,-1
 508 385 l 2,1,2
 508 380 508 380 514 362 c 1,3,4
 495.281310212 217.866088632 495.281310212 217.866088632 461.140655106 159.433044316 c 128,-1,5
 427 101 427 101 384.5 69.5 c 128,-1,6
 342 38 342 38 274 8 c 1,7,8
 260 7 260 7 234 -2.5 c 128,-1,9
 208 -12 208 -12 193 -12 c 0,10,11
 113 -12 113 -12 113 16 c 2,12,-1
 123 535 l 1,13,-1
 109 1389 l 1,14,15
 109 1536 109 1536 162 1536 c 0,16,17
 302 1536 302 1536 375.5 1446 c 128,-1,18
 449 1356 449 1356 449 1204 c 128,-1,19
 449 1052 449 1052 317 874 c 1,20,21
 346 831 346 831 383.5 781 c 2,22,-1
 440.5 705 l 2,23,24
 493.661016949 634.118644068 493.661016949 634.118644068 503.830508475 580.559322034 c 128,-1,25
 514 527 514 527 514 473 c 1,0,-1
190 70 m 1,26,-1
 203 68 l 1,27,28
 266 68 266 68 350 132.5 c 128,-1,29
 434 197 434 197 445.5 246 c 128,-1,30
 457 295 457 295 457 371 c 0,31,32
 457 738 457 738 281 811 c 1,33,34
 261 810 261 810 227 800 c 128,-1,35
 193 790 193 790 180 788 c 1,36,37
 190 488 190 488 190 70 c 1,26,-1
172 1378 m 1,38,-1
 180 887 l 1,39,-1
 186 885 l 1,40,41
 258.050632911 885 258.050632911 885 304 967.5 c 0,42,43
 340.943396226 1033.83018868 340.943396226 1033.83018868 363.971698113 1102.91509434 c 128,-1,44
 387 1172 387 1172 395 1190 c 1,45,-1
 395 1268 l 2,46,47
 395 1338 395 1338 344 1402 c 128,-1,48
 293 1466 293 1466 225 1466 c 0,49,50
 172 1466 172 1466 172 1378 c 1,38,-1
EndSplineSet
EndChar

StartChar: C
Encoding: 67 67 38
Width: 696
GlyphClass: 2
Flags: HW
LayerCount: 2
Fore
SplineSet
170 1008 m 1,0,-1
 152 860 l 1,1,2
 152 739 152 739 179 456 c 128,-1,3
 206 173 206 173 234 130 c 0,4,5
 288.046511628 47 288.046511628 47 395.523255814 47 c 128,-1,6
 503 47 503 47 553 106 c 1,7,8
 572 106 572 106 600 113 c 1,9,-1
 610 102 l 1,10,11
 610 4.01369863014 610 4.01369863014 453.5 -26 c 0,12,13
 417 -33 417 -33 370.5 -33 c 128,-1,14
 324 -33 324 -33 261 13 c 128,-1,15
 198 59 198 59 172 115 c 128,-1,16
 146 171 146 171 121 463 c 128,-1,17
 96 755 96 755 96 977 c 128,-1,18
 96 1199 96 1199 109 1239 c 1,19,20
 102 1274 102 1274 102 1305 c 0,21,22
 102 1428 102 1428 190 1496.5 c 128,-1,23
 278 1565 278 1565 406 1565 c 0,24,25
 441 1565 441 1565 482.5 1543 c 128,-1,26
 524 1521 524 1521 524 1489 c 0,27,28
 524 1466 524 1466 492 1466 c 0,29,30
 483 1466 483 1466 467 1478.5 c 128,-1,31
 451 1491 451 1491 440.5 1491 c 128,-1,32
 430 1491 430 1491 418 1487 c 1,33,34
 394 1495 394 1495 369 1495 c 128,-1,35
 344 1495 344 1495 308.5 1484.5 c 128,-1,36
 273 1474 273 1474 249.5 1457.5 c 128,-1,37
 226 1441 226 1441 209.5 1413 c 128,-1,38
 193 1385 193 1385 184 1359.5 c 128,-1,39
 175 1334 175 1334 170.5 1294.5 c 0,40,41
 164 1237.44444444 164 1237.44444444 164 1153 c 1,42,-1
 170 1008 l 1,0,-1
403 1475 m 1,43,-1
 399 1475 l 1,44,-1
 403 1475 l 1,43,-1
EndSplineSet
EndChar

StartChar: D
Encoding: 68 68 39
Width: 702
GlyphClass: 2
Flags: HW
LayerCount: 2
Fore
SplineSet
156 299 m 1,0,-1
 158 381 l 1,1,2
 158 500.684210526 158 500.684210526 144 659.842105263 c 128,-1,3
 130 819 130 819 127 858 c 1,4,5
 118 877 118 877 117 1114.5 c 128,-1,6
 116 1352 116 1352 112.5 1378 c 128,-1,7
 109 1404 109 1404 95.5 1440 c 128,-1,8
 82 1476 82 1476 82 1497 c 0,9,10
 82 1546 82 1546 236 1546 c 2,11,-1
 246 1546 l 2,12,13
 324 1546 324 1546 414 1460 c 128,-1,14
 504 1374 504 1374 531.5 1305 c 128,-1,15
 559 1236 559 1236 568 1139.5 c 128,-1,16
 577 1043 577 1043 580.5 963 c 128,-1,17
 584 883 584 883 594 862 c 1,18,-1
 590 807 l 1,19,-1
 596 797 l 1,20,-1
 590 780 l 1,21,-1
 596 770 l 1,22,23
 584 751 584 751 584 713 c 128,-1,24
 584 675 584 675 580 643 c 128,-1,25
 576 611 576 611 572 593 c 128,-1,26
 568 575 568 575 558.5 539.5 c 128,-1,27
 549 504 549 504 529.5 426.5 c 0,28,29
 474.081979321 206.248892171 474.081979321 206.248892171 344.04098966 101.124446086 c 128,-1,30
 214 -4 214 -4 190.5 -4 c 128,-1,31
 167 -4 167 -4 142.5 6.5 c 128,-1,32
 118 17 118 17 115 37 c 1,33,34
 144 74 144 74 147 119 c 2,35,-1
 156 299 l 1,0,-1
162 1450 m 1,36,-1
 180 1110 l 1,37,38
 180 978 180 978 195.5 718.5 c 128,-1,39
 211 459 211 459 211 367.5 c 128,-1,40
 211 276 211 276 207 166 c 1,41,-1
 211 158 l 1,42,-1
 211 100 l 1,43,-1
 221 100 l 1,44,45
 298 141 298 141 357 217.5 c 128,-1,46
 416 294 416 294 448.5 377.5 c 128,-1,47
 481 461 481 461 501.5 560 c 0,48,49
 535 721.780487805 535 721.780487805 535 874 c 0,50,51
 535 1473 535 1473 205 1473 c 0,52,53
 164 1473 164 1473 162 1450 c 1,36,-1
EndSplineSet
EndChar

StartChar: E
Encoding: 69 69 40
Width: 497
GlyphClass: 2
Flags: HW
LayerCount: 2
Fore
SplineSet
199 61 m 1,0,-1
 322 68 l 1,1,2
 418 68 418 68 418 35 c 1,3,4
 401 5 401 5 357 -3.5 c 128,-1,5
 313 -12 313 -12 272.5 -12 c 2,6,-1
 224 -12 l 2,7,8
 131.55 -12 131.55 -12 117.775 2.5 c 128,-1,9
 104 17 104 17 104 33 c 1,10,-1
 123 109 l 1,11,-1
 123 113 l 1,12,13
 115 154 115 154 115 203 c 1,14,-1
 125 412 l 1,15,-1
 113 850 l 1,16,-1
 123 1257 l 2,17,18
 123 1294 123 1294 110 1366.5 c 128,-1,19
 97 1439 97 1439 96 1473 c 1,20,-1
 133 1530 l 1,21,-1
 276 1548 l 1,22,-1
 283 1542 l 1,23,24
 331.294117647 1542 331.294117647 1542 338.647058824 1529.5 c 128,-1,25
 346 1517 346 1517 346 1503 c 0,26,27
 346 1464 346 1464 272 1464 c 1,28,-1
 217 1468 l 1,29,30
 172 1468 172 1468 172 1444 c 1,31,-1
 188 1096 l 1,32,-1
 178 840 l 1,33,-1
 174 836 l 1,34,-1
 186 829 l 1,35,-1
 299 850 l 1,36,37
 310 850 310 850 323 838.5 c 128,-1,38
 336 827 336 827 336 815 c 0,39,40
 336 774 336 774 305 774 c 1,41,-1
 258 776 l 1,42,43
 180 776 180 776 180 737 c 1,44,-1
 195 565 l 1,45,-1
 188 553 l 1,46,-1
 188 137 l 1,47,48
 199 124 199 124 199 80 c 2,49,-1
 199 61 l 1,0,-1
EndSplineSet
EndChar

StartChar: F
Encoding: 70 70 41
Width: 438
GlyphClass: 2
Flags: HW
LayerCount: 2
Fore
SplineSet
281 1481 m 1,0,-1
 231 1483 l 1,1,2
 156 1483 156 1483 156 1436 c 0,3,4
 156 1336 156 1336 171 1140 c 128,-1,5
 186 944 186 944 186 844 c 1,6,7
 210 844 210 844 255 856 c 128,-1,8
 300 868 300 868 318.5 868 c 128,-1,9
 337 868 337 868 346.5 854 c 128,-1,10
 356 840 356 840 356 827 c 0,11,12
 356 802 356 802 313.5 796 c 128,-1,13
 271 790 271 790 228.5 786 c 128,-1,14
 186 782 186 782 186 762 c 0,15,16
 186 646 186 646 205.5 416.5 c 128,-1,17
 225 187 225 187 225 72 c 1,18,-1
 219 61 l 1,19,20
 225 46 225 46 225 31 c 0,21,22
 225 -4 225 -4 180 -4 c 0,23,24
 145 -4 145 -4 145 135 c 1,25,-1
 147 201 l 1,26,27
 147 305 147 305 134 510.5 c 128,-1,28
 121 716 121 716 121 819 c 0,29,30
 121 1413 121 1413 82 1462 c 1,31,-1
 82 1475 l 2,32,33
 82 1548 82 1548 285 1548 c 0,34,35
 319 1548 319 1548 319 1501 c 0,36,37
 319 1481 319 1481 281 1481 c 1,0,-1
EndSplineSet
EndChar

StartChar: G
Encoding: 71 71 42
Width: 774
GlyphClass: 2
Flags: HW
LayerCount: 2
Fore
SplineSet
571 463 m 0,0,1
 635 463 635 463 635 377 c 0,2,3
 635 316 635 316 655.5 194.5 c 128,-1,4
 676 73 676 73 676 12 c 0,5,6
 676 -20 676 -20 649 -20 c 0,7,8
 600 -20 600 -20 600 25 c 0,9,10
 600 26 600 26 601 30 c 128,-1,11
 602 34 602 34 602 35 c 1,12,13
 582 29 582 29 550 6 c 128,-1,14
 518 -17 518 -17 502 -22 c 128,-1,15
 486 -27 486 -27 453.5 -29 c 128,-1,16
 421 -31 421 -31 406 -41 c 1,17,-1
 410 -41 l 1,18,19
 275.315224064 -11.4800491099 275.315224064 -11.4800491099 207.5 53 c 0,20,21
 154.082144401 103.790747946 154.082144401 103.790747946 131.5 226 c 0,22,23
 94 428.941176471 94 428.941176471 94 877 c 0,24,25
 94 1052.66666667 94 1052.66666667 104 1126.83333333 c 128,-1,26
 114 1201 114 1201 125.5 1257.5 c 128,-1,27
 137 1314 137 1314 153.5 1355.5 c 128,-1,28
 170 1397 170 1397 195 1440 c 128,-1,29
 220 1483 220 1483 251 1510 c 0,30,31
 321.037037037 1571 321.037037037 1571 420 1571 c 0,32,33
 481 1571 481 1571 481 1536 c 0,34,35
 481 1511 481 1511 451 1511 c 1,36,-1
 393 1522 l 1,37,38
 236.413461538 1522 236.413461538 1522 189.5 1235 c 0,39,40
 164 1079 164 1079 164 827 c 1,41,42
 158 665 158 665 158 602.5 c 128,-1,43
 158 540 158 540 159 505.5 c 128,-1,44
 160 471 160 471 163.5 419 c 128,-1,45
 167 367 167 367 175.5 325.5 c 128,-1,46
 184 284 184 284 196 236 c 128,-1,47
 208 188 208 188 228.5 152.5 c 128,-1,48
 249 117 249 117 276 87 c 0,49,50
 331.8 25 331.8 25 432.9 25 c 128,-1,51
 534 25 534 25 600 127 c 1,52,53
 600 280 600 280 581.5 335.5 c 128,-1,54
 563 391 563 391 547 391 c 1,55,-1
 465 383 l 1,56,57
 418 383 418 383 418 418 c 0,58,59
 418 437 418 437 478.5 450 c 128,-1,60
 539 463 539 463 571 463 c 0,0,1
EndSplineSet
EndChar

StartChar: H
Encoding: 72 72 43
Width: 602
GlyphClass: 2
Flags: HW
LayerCount: 2
Fore
SplineSet
410 825 m 1,0,-1
 391 1520 l 2,1,2
 391 1528 391 1528 395 1548 c 1,3,4
 433.905660377 1548 433.905660377 1548 444 1494.5 c 0,5,6
 453 1446.8 453 1446.8 453 1231.9 c 128,-1,7
 453 1017 453 1017 468 569.5 c 128,-1,8
 483 122 483 122 483 49 c 1,9,10
 492 31 492 31 492 18.5 c 128,-1,11
 492 6 492 6 480.5 -13.5 c 128,-1,12
 469 -33 469 -33 455 -33 c 0,13,14
 426 -33 426 -33 426 12 c 1,15,-1
 428 59 l 1,16,17
 428 374 428 374 408 762 c 1,18,-1
 395 760 l 1,19,-1
 317 770 l 1,20,21
 215 770 215 770 172 745 c 1,22,23
 172 626 172 626 189.5 391 c 128,-1,24
 207 156 207 156 207 37 c 0,25,26
 207 6 207 6 186 6 c 0,27,28
 160.461538462 6 160.461538462 6 152.730769231 29.5 c 128,-1,29
 145 53 145 53 141 170.5 c 128,-1,30
 137 288 137 288 135.5 424 c 128,-1,31
 134 560 134 560 131 598 c 0,32,33
 94 1098 94 1098 94 1532 c 1,34,-1
 127 1548 l 1,35,-1
 154 1526 l 1,36,37
 145 1450 145 1450 145 1374 c 1,38,-1
 162 958 l 1,39,-1
 160 877 l 1,40,41
 160 836 160 836 168 805 c 1,42,-1
 408 821 l 1,43,-1
 410 825 l 1,0,-1
EndSplineSet
EndChar

StartChar: I
Encoding: 73 73 44
Width: 477
GlyphClass: 2
Flags: HW
LayerCount: 2
Fore
SplineSet
360 8 m 1,0,-1
 295 18 l 1,1,2
 272 18 272 18 248 -6 c 1,3,4
 202 -6 202 -6 190 10 c 1,5,-1
 185 10 l 2,6,7
 91.3125 10 91.3125 10 76 45 c 1,8,9
 76 68 76 68 123 68 c 1,10,-1
 168 66 l 1,11,12
 209 66 209 66 210 125 c 128,-1,13
 211 184 211 184 204.5 269 c 128,-1,14
 198 354 198 354 196.5 438 c 128,-1,15
 195 522 195 522 185 765 c 128,-1,16
 175 1008 175 1008 172 1114 c 1,17,-1
 174 1354 l 2,18,19
 174 1453 174 1453 168 1473 c 1,20,-1
 98 1458 l 1,21,22
 76 1458 76 1458 76 1486.5 c 128,-1,23
 76 1515 76 1515 166 1533.5 c 128,-1,24
 256 1552 256 1552 287.5 1552 c 0,25,26
 342 1552 342 1552 342 1518.5 c 128,-1,27
 342 1485 342 1485 317 1485 c 1,28,-1
 268 1487 l 1,29,30
 233.315789474 1487 233.315789474 1487 225.5 1454 c 0,31,32
 219 1426.55555556 219 1426.55555556 219 1294.77777778 c 128,-1,33
 219 1163 219 1163 244.5 772 c 128,-1,34
 270 381 270 381 270 184 c 1,35,-1
 268 78 l 1,36,-1
 342 84 l 1,37,38
 395 84 395 84 395 33 c 1,39,-1
 360 8 l 1,0,-1
EndSplineSet
EndChar

StartChar: J
Encoding: 74 74 45
Width: 468
GlyphClass: 2
Flags: HW
LayerCount: 2
Fore
SplineSet
330 305 m 1,0,-1
 319 137 l 1,1,2
 319 114 319 114 326 100 c 1,3,-1
 311 68 l 1,4,5
 307 -5 307 -5 256 -80 c 128,-1,6
 205 -155 205 -155 145 -199 c 1,7,8
 102 -199 102 -199 102 -160 c 1,9,10
 103.620767494 -140.550790068 103.620767494 -140.550790068 136.810383747 -119.275395034 c 128,-1,11
 170 -98 170 -98 176 -92 c 0,12,13
 266 -2 266 -2 266 221 c 0,14,15
 266 327 266 327 256 524 c 128,-1,16
 246 721 246 721 242.5 871 c 0,17,18
 230.889101338 1368.60994264 230.889101338 1368.60994264 209 1489 c 1,19,-1
 100 1470 l 1,20,21
 88 1470 88 1470 80 1479.5 c 128,-1,22
 72 1489 72 1489 72 1501 c 0,23,24
 72 1552 72 1552 354 1552 c 0,25,26
 368 1552 368 1552 377.5 1542.5 c 128,-1,27
 387 1533 387 1533 387 1520 c 0,28,29
 387 1489 387 1489 291.5 1489 c 2,30,-1
 270 1489 l 1,31,-1
 268 1450 l 1,32,33
 268 1396 268 1396 280.5 1288 c 128,-1,34
 293 1180 293 1180 293 1083.5 c 128,-1,35
 293 987 293 987 311.5 715 c 128,-1,36
 330 443 330 443 330 305 c 1,0,-1
209 -25 m 1,37,38
 211 -25 211 -25 211 -27 c 1,39,-1
 209 -25 l 1,37,38
EndSplineSet
EndChar

StartChar: K
Encoding: 75 75 46
Width: 690
GlyphClass: 2
Flags: HW
LayerCount: 2
Fore
SplineSet
565 -47 m 1,0,-1
 537 -39 l 1,1,2
 497 198 497 198 415 489.5 c 128,-1,3
 333 781 333 781 266 909 c 1,4,-1
 260 905 l 1,5,6
 254 881 254 881 217 818 c 128,-1,7
 180 755 180 755 176 718.5 c 128,-1,8
 172 682 172 682 172 575 c 1,9,-1
 182 123 l 1,10,11
 182 -6 182 -6 139 -6 c 0,12,13
 102 -6 102 -6 102 88.5 c 128,-1,14
 102 183 102 183 115.5 372.5 c 128,-1,15
 129 562 129 562 129 657 c 1,16,17
 121 1393 l 1,18,-1
 117 1401 l 1,19,-1
 102 1497 l 1,20,21
 102 1540 102 1540 137 1540 c 0,22,23
 155 1540 155 1540 162.5 1536 c 128,-1,24
 170 1532 170 1532 176.5 1507.5 c 0,25,26
 186 1471.69230769 186 1471.69230769 186 1303 c 1,27,-1
 178 864 l 1,28,-1
 180 864 l 1,29,30
 221 951 221 951 289.5 1121.5 c 128,-1,31
 358 1292 358 1292 367 1313 c 0,32,33
 478 1597 478 1597 512 1597 c 0,34,35
 547 1597 547 1597 547 1567 c 1,36,37
 542.019480519 1530.47619048 542.019480519 1530.47619048 521.00974026 1496.23809524 c 128,-1,38
 500 1462 500 1462 495 1451 c 128,-1,39
 490 1440 490 1440 461 1378.5 c 128,-1,40
 432 1317 432 1317 411 1271.5 c 128,-1,41
 390 1226 390 1226 363.5 1165 c 0,42,43
 306.763557484 1034.39913232 306.763557484 1034.39913232 303 993 c 1,44,-1
 313 975 l 1,45,-1
 305 969 l 1,46,47
 375 793 375 793 466.5 461 c 128,-1,48
 558 129 558 129 606 -8 c 1,49,50
 603 -47 603 -47 565 -47 c 1,0,-1
EndSplineSet
EndChar

StartChar: L
Encoding: 76 76 47
Width: 475
GlyphClass: 2
Flags: HW
LayerCount: 2
Fore
SplineSet
293 0 m 2,0,-1
 229 2 l 2,1,2
 218 2 218 2 201 -10.5 c 128,-1,3
 184 -23 184 -23 170 -23 c 128,-1,4
 156 -23 156 -23 141.5 -10 c 128,-1,5
 127 3 127 3 127 20 c 1,6,-1
 139 113 l 1,7,-1
 119 694 l 1,8,-1
 98 1550 l 2,9,10
 98 1571 98 1571 125 1571 c 0,11,12
 164 1571 164 1571 164 1534 c 0,13,14
 164 1060.72727273 164 1060.72727273 174 934.363636364 c 128,-1,15
 184 808 184 808 184 778 c 128,-1,16
 184 748 184 748 180 698 c 1,17,-1
 186 690 l 1,18,19
 182 636 182 636 182 580.5 c 128,-1,20
 182 525 182 525 192.5 368 c 128,-1,21
 203 211 203 211 205 145 c 1,22,23
 197 133 197 133 197 104 c 128,-1,24
 197 75 197 75 206.5 65 c 128,-1,25
 216 55 216 55 247 55 c 128,-1,26
 278 55 278 55 289 68 c 1,27,-1
 365 68 l 1,28,29
 393 54 393 54 393 36 c 0,30,31
 393 -4 393 -4 365 -4 c 0,32,33
 358 -4 358 -4 334 4 c 1,34,35
 324 0 324 0 293 0 c 2,0,-1
EndSplineSet
EndChar

StartChar: M
Encoding: 77 77 48
Width: 856
GlyphClass: 2
Flags: HW
LayerCount: 2
Fore
SplineSet
633 1554 m 1,0,1
 639.1875 1587 639.1875 1587 682 1587 c 0,2,3
 689 1587 689 1587 698 1577 c 128,-1,4
 707 1567 707 1567 707 1559 c 0,5,6
 700 1422 700 1422 700 1296 c 128,-1,7
 700 1170 700 1170 716.5 861 c 128,-1,8
 733 552 733 552 733 446 c 128,-1,9
 733 340 733 340 731 314.5 c 128,-1,10
 729 289 729 289 736 224 c 128,-1,11
 743 159 743 159 743 60 c 128,-1,12
 743 -39 743 -39 713 -53 c 1,13,-1
 713 -47 l 1,14,-1
 705 -55 l 1,15,-1
 666 -39 l 1,16,-1
 666 -33 l 2,17,18
 666 -20 666 -20 672 -8 c 1,19,-1
 664 10 l 1,20,21
 668 132 668 132 668 197 c 1,22,-1
 653 870 l 1,23,-1
 657 1100 l 2,24,25
 657 1135 657 1135 653.5 1198 c 128,-1,26
 650 1261 650 1261 649 1282 c 1,27,28
 645 1278 645 1278 645 1268 c 0,29,30
 639 1135 639 1135 587 864 c 1,31,32
 554.031496063 655.199475066 554.031496063 655.199475066 502 483 c 0,33,34
 499 472 499 472 491 453 c 0,35,36
 473 410.25 473 410.25 473 387 c 1,37,-1
 479 377 l 1,38,39
 477 370 477 370 470 324.5 c 0,40,41
 454.384615385 223 454.384615385 223 414 223 c 0,42,43
 369.490566038 223 369.490566038 223 366.5 381.5 c 0,44,45
 366 408 366 408 360.5 449.5 c 128,-1,46
 355 491 355 491 269.5 895.5 c 128,-1,47
 184 1300 184 1300 172 1317 c 1,48,49
 164 1132 164 1132 164 903 c 1,50,-1
 170 252 l 1,51,-1
 180 57 l 1,52,53
 180 20 180 20 164 4 c 1,54,55
 106 4 106 4 106 111 c 1,56,-1
 117 453 l 1,57,-1
 109 868 l 1,58,-1
 115 1354 l 1,59,60
 115 1471 115 1471 113 1530 c 1,61,-1
 152 1552 l 1,62,63
 200.145814167 1546.33578657 200.145814167 1546.33578657 331.5 897 c 0,64,65
 359.092783505 760.597938144 359.092783505 760.597938144 374.046391753 695.798969072 c 128,-1,66
 389 631 389 631 395 603.5 c 128,-1,67
 401 576 401 576 408.5 538.5 c 0,68,69
 424 461 424 461 424 426 c 1,70,71
 435.571428571 456.857142857 435.571428571 456.857142857 463.285714286 595.428571429 c 2,72,-1
 492 739 l 2,73,74
 504 797 504 797 547.5 1033.5 c 128,-1,75
 591 1270 591 1270 605 1335 c 0,76,77
 633.616 1467.86 633.616 1467.86 637 1544 c 1,78,-1
 633 1554 l 1,0,1
250 1010 m 1,79,-1
 252 1010 l 1,80,-1
 250 1010 l 1,79,-1
EndSplineSet
EndChar

StartChar: N
Encoding: 78 78 49
Width: 772
GlyphClass: 2
Flags: HW
LayerCount: 2
Fore
SplineSet
621 111 m 1,0,-1
 627 37 l 1,1,2
 627 -23 627 -23 575 -23 c 0,3,4
 539.123287671 -23 539.123287671 -23 525.5 53.5 c 0,5,6
 519 90 519 90 518 94 c 0,7,8
 318.236148955 724.683015441 318.236148955 724.683015441 266 1016 c 0,9,10
 264 1025 264 1025 263 1044.5 c 0,11,12
 260.918918919 1085.08108108 260.918918919 1085.08108108 244 1102 c 1,13,-1
 248 1112 l 1,14,15
 235.363636364 1187.81818182 235.363636364 1187.81818182 228.681818182 1217.40909091 c 128,-1,16
 222 1247 222 1247 214 1284 c 0,17,18
 199.889447236 1349.26130653 199.889447236 1349.26130653 178 1401 c 1,19,20
 172 1359 172 1359 172 1337 c 128,-1,21
 172 1315 172 1315 176 1303 c 1,22,23
 162 1255 162 1255 162 1161 c 2,24,-1
 162 600 l 2,25,26
 162 502 162 502 176 308 c 128,-1,27
 190 114 190 114 190 16 c 1,28,-1
 176 0 l 1,29,-1
 129 0 l 1,30,-1
 123 16 l 1,31,32
 127 32 127 32 127 98 c 1,33,-1
 104 811 l 1,34,-1
 104 1079 l 1,35,-1
 119 1466 l 1,36,-1
 117 1509 l 1,37,38
 117 1535 117 1535 130.5 1543.5 c 128,-1,39
 144 1552 144 1552 165.5 1552 c 128,-1,40
 187 1552 187 1552 203 1539.5 c 128,-1,41
 219 1527 219 1527 219 1500 c 128,-1,42
 219 1473 219 1473 228 1441 c 128,-1,43
 237 1409 237 1409 254 1369.5 c 128,-1,44
 271 1330 271 1330 280.5 1297.5 c 128,-1,45
 290 1265 290 1265 298 1193.5 c 128,-1,46
 306 1122 306 1122 317 1067 c 128,-1,47
 328 1012 328 1012 353 919 c 128,-1,48
 378 826 378 826 410.5 713 c 128,-1,49
 443 600 443 600 452 564.5 c 128,-1,50
 461 529 461 529 476.5 473.5 c 0,51,52
 508.191366906 360.024460432 508.191366906 360.024460432 510 313 c 1,53,54
 524 292 524 292 531.5 232 c 128,-1,55
 539 172 539 172 565 150 c 1,56,57
 578 179 578 179 578 248 c 2,58,-1
 586 961 l 1,59,-1
 580 1278 l 1,60,-1
 586 1356 l 1,61,62
 586 1378 586 1378 580 1382 c 1,63,-1
 586 1399 l 1,64,65
 586 1525 586 1525 578 1567 c 1,66,67
 586 1595 586 1595 629 1595 c 0,68,69
 662 1595 662 1595 662 1528 c 1,70,71
 649 1502 649 1502 649 1460 c 1,72,-1
 651 1391 l 1,73,74
 651 1347 651 1347 643 1329 c 1,75,-1
 637 682 l 2,76,77
 637 663 637 663 641 627 c 1,78,-1
 637 618 l 1,79,-1
 637 360 l 1,80,-1
 641 283 l 1,81,82
 641 161 641 161 621 115 c 1,83,-1
 621 111 l 1,0,-1
EndSplineSet
EndChar

StartChar: O
Encoding: 79 79 50
Width: 696
GlyphClass: 2
Flags: HW
LayerCount: 2
Fore
SplineSet
586 618 m 1,0,-1
 567 354 l 1,1,-1
 571 346 l 1,2,3
 555 277 555 277 555 222 c 128,-1,4
 555 167 555 167 533 108.5 c 128,-1,5
 511 50 511 50 467.5 3.5 c 128,-1,6
 424 -43 424 -43 374 -43 c 128,-1,7
 324 -43 324 -43 281 -5 c 128,-1,8
 238 33 238 33 209.5 92.5 c 128,-1,9
 181 152 181 152 159.5 233.5 c 128,-1,10
 138 315 138 315 126 393.5 c 128,-1,11
 114 472 114 472 106.5 556 c 0,12,13
 94 696 94 696 94 798.5 c 128,-1,14
 94 901 94 901 103 1032 c 128,-1,15
 112 1163 112 1163 113 1201 c 128,-1,16
 114 1239 114 1239 115 1268 c 128,-1,17
 116 1297 116 1297 120 1337.5 c 128,-1,18
 124 1378 124 1378 130.5 1408.5 c 128,-1,19
 137 1439 137 1439 150 1471 c 128,-1,20
 163 1503 163 1503 181.5 1523.5 c 0,21,22
 224.365853659 1571 224.365853659 1571 299.775950085 1571 c 128,-1,23
 375.186046512 1571 375.186046512 1571 424 1530 c 1,24,25
 431 1519 431 1519 460.5 1481 c 128,-1,26
 490 1443 490 1443 504.5 1408.5 c 128,-1,27
 519 1374 519 1374 537 1239 c 0,28,29
 586 889 586 889 586 618 c 1,0,-1
303 1518 m 0,30,31
 152 1518 152 1518 152 911 c 2,32,-1
 152 831 l 2,33,34
 152 688.53125 152 688.53125 173.5 525.265625 c 128,-1,35
 195 362 195 362 218.5 260 c 128,-1,36
 242 158 242 158 284.5 86 c 128,-1,37
 327 14 327 14 379 14 c 0,38,39
 448.857142857 14 448.857142857 14 481 156.5 c 128,-1,40
 513.178423237 299.157676349 513.178423237 299.157676349 518.589211618 410.078838174 c 0,41,42
 526 562 526 562 526 608 c 2,43,-1
 526 657 l 2,44,45
 526 695 526 695 525.5 721.5 c 128,-1,46
 525 748 525 748 524 808.5 c 128,-1,47
 523 869 523 869 520 916 c 128,-1,48
 517 963 517 963 512 1030 c 128,-1,49
 507 1097 507 1097 498 1149.5 c 128,-1,50
 489 1202 489 1202 477.5 1261.5 c 128,-1,51
 466 1321 466 1321 449.5 1364 c 128,-1,52
 433 1407 433 1407 412 1443.5 c 0,53,54
 369.136986301 1518 369.136986301 1518 303 1518 c 0,30,31
EndSplineSet
EndChar

StartChar: P
Encoding: 80 80 51
Width: 540
GlyphClass: 2
Flags: HW
LayerCount: 2
Fore
SplineSet
184 725 m 1,0,-1
 201 51 l 2,1,2
 201 21 201 21 192.5 4.5 c 128,-1,3
 184 -12 184 -12 157.5 -12 c 128,-1,4
 131 -12 131 -12 131 59 c 1,5,-1
 139 426 l 1,6,-1
 123 758 l 1,7,8
 123 986 123 986 117.5 1133.5 c 128,-1,9
 112 1281 112 1281 110.5 1330 c 128,-1,10
 109 1379 109 1379 107.5 1404 c 0,11,12
 102.74904943 1483.18250951 102.74904943 1483.18250951 90 1536 c 1,13,14
 109 1565 109 1565 143 1565 c 0,15,16
 216 1565 216 1565 274.5 1531 c 128,-1,17
 333 1497 333 1497 368 1441.5 c 0,18,19
 440 1327.32857143 440 1327.32857143 440 1207.16428571 c 128,-1,20
 440 1087 440 1087 397 963 c 0,21,22
 342.630218688 806.212723658 342.630218688 806.212723658 259 771 c 0,23,24
 232.358695652 759.782608696 232.358695652 759.782608696 221.679347826 748.391304348 c 0,25,26
 204.571428571 730.142857143 204.571428571 730.142857143 184 725 c 1,0,-1
156 1505 m 1,27,-1
 180 805 l 1,28,-1
 184 801 l 1,29,30
 205 802.909090909 205 802.909090909 215.5 812.454545455 c 128,-1,31
 226 822 226 822 236 833 c 128,-1,32
 246 844 246 844 250 848 c 0,33,34
 383 981 383 981 383 1182 c 0,35,36
 383 1252 383 1252 377 1294 c 128,-1,37
 371 1336 371 1336 342.5 1374.5 c 128,-1,38
 314 1413 314 1413 293.5 1430 c 128,-1,39
 273 1447 273 1447 235.5 1474.5 c 128,-1,40
 198 1502 198 1502 193 1505 c 1,41,-1
 156 1505 l 1,27,-1
EndSplineSet
EndChar

StartChar: Q
Encoding: 81 81 52
Width: 727
GlyphClass: 2
Flags: HW
LayerCount: 2
Fore
SplineSet
106 915 m 1,0,-1
 104 1040 l 1,1,2
 104 1577 104 1577 307 1577 c 0,3,4
 379 1577 379 1577 449.5 1519 c 128,-1,5
 520 1461 520 1461 532 1391 c 0,6,7
 588 1075 588 1075 588 594 c 0,8,9
 588 317 588 317 549 201 c 0,10,11
 534 158 534 158 461 53 c 1,12,13
 462 38 462 38 470.5 15 c 128,-1,14
 479 -8 479 -8 482 -18.5 c 128,-1,15
 485 -29 485 -29 489 -69.5 c 128,-1,16
 493 -110 493 -110 497.5 -139 c 128,-1,17
 502 -168 502 -168 521 -192.5 c 128,-1,18
 540 -217 540 -217 573 -217 c 0,19,20
 645 -217 645 -217 645 -244 c 0,21,22
 645 -283 645 -283 567 -283 c 0,23,24
 559 -283 559 -283 534.5 -270 c 128,-1,25
 510 -257 510 -257 506 -256 c 0,26,27
 467 -239 467 -239 447.5 -193 c 128,-1,28
 428 -147 428 -147 416 -71 c 128,-1,29
 404 5 404 5 397 27 c 1,30,-1
 303 27 l 1,31,32
 151.046760838 134.748660497 151.046760838 134.748660497 115 328.5 c 0,33,34
 96 430.625 96 430.625 96 573 c 1,35,-1
 106 915 l 1,0,-1
154 676 m 2,36,-1
 154 590 l 2,37,38
 154 375.652173913 154 375.652173913 215 220.5 c 0,39,40
 238 162 238 162 279 121 c 128,-1,41
 320 80 320 80 373 80 c 1,42,-1
 387 90 l 1,43,44
 391 104 391 104 411 105 c 128,-1,45
 431 106 431 106 438 111 c 0,46,47
 502.771356784 168.297738693 502.771356784 168.297738693 507 301.5 c 0,48,49
 508 333 508 333 508 376 c 128,-1,50
 508 419 508 419 509.5 438 c 128,-1,51
 511 457 511 457 517.5 491 c 128,-1,52
 524 525 524 525 524 543 c 2,53,-1
 524 821 l 1,54,55
 516 841 516 841 516 892 c 128,-1,56
 516 943 516 943 512.5 990.5 c 128,-1,57
 509 1038 509 1038 500.5 1110 c 128,-1,58
 492 1182 492 1182 489.5 1205 c 128,-1,59
 487 1228 487 1228 485 1259.5 c 128,-1,60
 483 1291 483 1291 481 1308.5 c 128,-1,61
 479 1326 479 1326 475 1354 c 128,-1,62
 471 1382 471 1382 465 1399 c 128,-1,63
 459 1416 459 1416 449.5 1437.5 c 128,-1,64
 440 1459 440 1459 426.5 1472 c 128,-1,65
 413 1485 413 1485 394.5 1497 c 0,66,67
 359.041666667 1520 359.041666667 1520 293 1520 c 0,68,69
 154 1520 154 1520 154 676 c 2,36,-1
EndSplineSet
EndChar

StartChar: R
Encoding: 82 82 53
Width: 591
GlyphClass: 2
Flags: HW
LayerCount: 2
Fore
SplineSet
121 1501 m 1,0,-1
 117 1538 l 1,1,2
 117 1556 117 1556 158 1556 c 0,3,4
 242 1556 242 1556 286.5 1509 c 128,-1,5
 331 1462 331 1462 345.5 1408 c 128,-1,6
 360 1354 360 1354 368 1325.5 c 0,7,8
 385 1264.9375 385 1264.9375 385 1231 c 0,9,10
 385 1127.81481481 385 1127.81481481 327.5 983 c 0,11,12
 291 891.074074074 291 891.074074074 291 881 c 0,13,14
 291 781 291 781 371 477.5 c 128,-1,15
 451 174 451 174 502 47 c 1,16,17
 502 -20 502 -20 475 -20 c 0,18,19
 454.263157895 -20 454.263157895 -20 440.631578947 -1.5 c 128,-1,20
 427 17 427 17 424 20 c 1,21,22
 418 100 418 100 371.5 242.5 c 128,-1,23
 325 385 325 385 314.5 432.5 c 128,-1,24
 304 480 304 480 277 626 c 128,-1,25
 250 772 250 772 229 850 c 1,26,-1
 213 862 l 1,27,-1
 174 846 l 1,28,-1
 174 78 l 1,29,-1
 178 27 l 1,30,31
 178 -14 178 -14 141 -14 c 0,32,33
 126 -14 126 -14 116 -4.5 c 128,-1,34
 106 5 106 5 106 20 c 1,35,-1
 113 31 l 1,36,-1
 121 1274 l 1,37,-1
 121 1501 l 1,0,-1
178 1491 m 1,38,-1
 168 1044 l 1,39,40
 168 956 168 956 174 913 c 1,41,-1
 178 913 l 2,42,43
 193 913 193 913 231.5 955 c 128,-1,44
 270 997 270 997 284.5 1022 c 128,-1,45
 299 1047 299 1047 308 1105 c 128,-1,46
 317 1163 317 1163 317 1201.5 c 128,-1,47
 317 1240 317 1240 311.5 1282 c 128,-1,48
 306 1324 306 1324 294 1373 c 128,-1,49
 282 1422 282 1422 256 1454.5 c 128,-1,50
 230 1487 230 1487 195 1487 c 1,51,-1
 195 1493 l 1,52,-1
 178 1491 l 1,38,-1
EndSplineSet
EndChar

StartChar: S
Encoding: 83 83 54
Width: 569
GlyphClass: 2
Flags: HW
LayerCount: 2
Fore
SplineSet
395 692 m 1,0,-1
 393 684 l 2,1,2
 393 683 393 683 440 526 c 1,3,4
 471 404 471 404 471 338 c 128,-1,5
 471 272 471 272 455.5 209 c 128,-1,6
 440 146 440 146 410.5 88 c 128,-1,7
 381 30 381 30 329.5 -7.5 c 128,-1,8
 278 -45 278 -45 230.5 -45 c 128,-1,9
 183 -45 183 -45 163 -43 c 0,10,11
 104.382488479 -37.1382488479 104.382488479 -37.1382488479 80 6 c 1,12,13
 80 31 80 31 101.5 31 c 128,-1,14
 123 31 123 31 159.5 15.5 c 128,-1,15
 196 0 196 0 229 0 c 128,-1,16
 262 0 262 0 299.5 38 c 128,-1,17
 337 76 337 76 357 132.5 c 0,18,19
 397 245.5 397 245.5 397 345.25 c 128,-1,20
 397 445 397 445 367 548 c 128,-1,21
 337 651 337 651 293.5 736 c 128,-1,22
 250 821 250 821 207 905.5 c 0,23,24
 104 1107.90697674 104 1107.90697674 104 1288 c 0,25,26
 104 1436.86597938 104 1436.86597938 194.5 1525.5 c 0,27,28
 243 1573 243 1573 309 1573 c 0,29,30
 330 1573 330 1573 363 1556.5 c 128,-1,31
 396 1540 396 1540 403 1522 c 1,32,-1
 391 1499 l 1,33,34
 345 1499 345 1499 324 1520 c 1,35,36
 275 1520 275 1520 239.5 1483 c 0,37,38
 174 1414.73239437 174 1414.73239437 174 1305 c 0,39,40
 174 1223.73684211 174 1223.73684211 187 1170.36842105 c 128,-1,41
 200 1117 200 1117 207 1089 c 128,-1,42
 214 1061 214 1061 232 1018 c 128,-1,43
 250 975 250 975 258.5 954 c 128,-1,44
 267 933 267 933 291.5 885 c 128,-1,45
 316 837 316 837 323.5 823 c 128,-1,46
 331 809 331 809 360.5 755.5 c 128,-1,47
 390 702 390 702 395 692 c 1,0,-1
EndSplineSet
EndChar

StartChar: T
Encoding: 84 84 55
Width: 542
GlyphClass: 2
Flags: HW
LayerCount: 2
Fore
SplineSet
342 545 m 2,0,-1
 352 68 l 1,1,2
 352 -12 352 -12 317 -12 c 0,3,4
 296 -12 296 -12 285 16.5 c 128,-1,5
 274 45 274 45 274 70 c 1,6,-1
 291 406 l 1,7,8
 291 514 291 514 276.5 732.5 c 128,-1,9
 262 951 262 951 262 1061 c 1,10,-1
 264 1253 l 1,11,12
 264 1464 264 1464 229 1464 c 1,13,-1
 113 1452 l 1,14,15
 98 1452 98 1452 84 1461.5 c 128,-1,16
 70 1471 70 1471 70 1487 c 0,17,18
 70 1508 70 1508 206 1527 c 128,-1,19
 342 1546 342 1546 422 1546 c 0,20,21
 437 1546 437 1546 451 1535.5 c 128,-1,22
 465 1525 465 1525 465 1511 c 0,23,24
 465 1481 465 1481 426 1481 c 1,25,26
 350 1487 l 1,27,28
 315 1487 315 1487 307 1466 c 1,29,30
 322 1337 322 1337 322 1200 c 1,31,-1
 319 952 l 1,32,33
 319 709.642857143 319 709.642857143 348 604 c 1,34,35
 342 574 342 574 342 545 c 2,0,-1
EndSplineSet
EndChar

StartChar: U
Encoding: 85 85 56
Width: 743
GlyphClass: 2
Flags: HW
LayerCount: 2
Fore
SplineSet
627 426 m 1,0,-1
 629 297 l 1,1,2
 629 123.891891892 629 123.891891892 583.5 41.5 c 0,3,4
 565 8 565 8 529 -15.5 c 128,-1,5
 493 -39 493 -39 436 -39 c 128,-1,6
 379 -39 379 -39 331 -8.5 c 128,-1,7
 283 22 283 22 257 68 c 128,-1,8
 231 114 231 114 211.5 175 c 128,-1,9
 192 236 192 236 183.5 290 c 0,10,11
 161.123493976 432.156626506 161.123493976 432.156626506 139 473 c 1,12,13
 139 636 139 636 118.5 960.5 c 128,-1,14
 98 1285 98 1285 98 1448 c 1,15,-1
 84 1491 l 1,16,17
 84 1505 84 1505 94.5 1518.5 c 128,-1,18
 105 1532 105 1532 119 1532 c 0,19,20
 170 1532 170 1532 170 1382 c 1,21,-1
 188 690 l 1,22,23
 196 680 196 680 198.5 641 c 0,24,25
 207.607929515 498.916299559 207.607929515 498.916299559 217 459 c 1,26,27
 213 435 213 435 213 407 c 128,-1,28
 213 379 213 379 232.5 313 c 128,-1,29
 252 247 252 247 283.5 183 c 128,-1,30
 315 119 315 119 362 73 c 128,-1,31
 409 27 409 27 446 27 c 128,-1,32
 483 27 483 27 501 35 c 128,-1,33
 519 43 519 43 529 52.5 c 128,-1,34
 539 62 539 62 545.5 84 c 128,-1,35
 552 106 552 106 554 117.5 c 128,-1,36
 556 129 556 129 558 158.5 c 128,-1,37
 560 188 560 188 559.5 194.5 c 128,-1,38
 559 201 559 201 559 213 c 1,39,-1
 565 281 l 1,40,-1
 565 514 l 1,41,-1
 551 637 l 1,42,-1
 539 1004 l 1,43,-1
 539 1030 l 1,44,-1
 530 1042 l 1,45,46
 539 1100 539 1100 539 1159 c 257,47,-1
 520 1507 l 2,48,49
 520 1523 520 1523 534.5 1531.5 c 128,-1,50
 549 1540 549 1540 565 1540 c 1,51,-1
 600 1507 l 1,52,-1
 594 1491 l 1,53,-1
 600 1475 l 1,54,-1
 586 1352 l 1,55,-1
 606 983 l 1,56,-1
 616 627 l 1,57,-1
 623 625 l 1,58,59
 621 611 621 611 621 582 c 1,60,-1
 627 438 l 1,61,-1
 633 432 l 1,62,-1
 627 426 l 1,0,-1
EndSplineSet
EndChar

StartChar: V
Encoding: 86 86 57
Width: 669
GlyphClass: 2
Flags: HW
LayerCount: 2
Fore
SplineSet
375 -18 m 0,0,1
 368 -18 368 -18 344 -10 c 1,2,3
 307.023149658 139.062927943 307.023149658 139.062927943 238.011574829 596.031463971 c 128,-1,4
 169 1053 169 1053 133.5 1267 c 128,-1,5
 98 1481 98 1481 74 1526 c 1,6,7
 81 1548 81 1548 115 1548 c 0,8,9
 148 1548 148 1548 158.5 1474.5 c 0,10,11
 160 1464 160 1464 174 1388 c 128,-1,12
 188 1312 188 1312 248.5 890.5 c 128,-1,13
 309 469 309 469 362 242 c 1,14,15
 372.773480663 302.331491713 372.773480663 302.331491713 378.386740331 359.165745856 c 128,-1,16
 384 416 384 416 426 777 c 0,17,18
 502 1430.23809524 502 1430.23809524 502 1516 c 2,19,-1
 502 1524 l 1,20,21
 532 1554 532 1554 553 1554 c 1,22,-1
 565 1546 l 1,23,-1
 561 1546 l 1,24,-1
 582 1530 l 1,25,26
 582 1487 582 1487 567.5 1403 c 128,-1,27
 553 1319 553 1319 553 1276 c 1,28,29
 532 1238 532 1238 474 691.5 c 128,-1,30
 416 145 416 145 414 27 c 1,31,32
 397 -18 397 -18 375 -18 c 0,0,1
362 236 m 1,33,-1
 358 231 l 1,34,-1
 365 231 l 1,35,-1
 362 236 l 1,33,-1
EndSplineSet
EndChar

StartChar: W
Encoding: 87 87 58
Width: 950
GlyphClass: 2
Flags: HW
LayerCount: 2
Fore
SplineSet
440 1053 m 1,0,-1
 438 1049 l 1,1,2
 431 1015 431 1015 430 946.5 c 128,-1,3
 429 878 429 878 412 798.5 c 128,-1,4
 395 719 395 719 371.5 418 c 128,-1,5
 348 117 348 117 348 6 c 0,6,7
 348 -1 348 -1 336 -14 c 128,-1,8
 324 -27 324 -27 310.5 -27 c 128,-1,9
 297 -27 297 -27 286 -13.5 c 128,-1,10
 275 0 275 0 270.5 25.5 c 128,-1,11
 266 51 266 51 264.5 70.5 c 0,12,13
 262 103 262 103 261 148 c 128,-1,14
 260 193 260 193 253.5 240 c 128,-1,15
 247 287 247 287 236 345.5 c 128,-1,16
 225 404 225 404 219.5 442.5 c 128,-1,17
 214 481 214 481 182 753.5 c 0,18,19
 97.0678238509 1476.75056252 97.0678238509 1476.75056252 74 1513 c 1,20,21
 88.7272727273 1540 88.7272727273 1540 113.363636364 1540 c 128,-1,22
 138 1540 138 1540 153 1502.5 c 128,-1,23
 168 1465 168 1465 175.5 1404 c 128,-1,24
 183 1343 183 1343 187 1287 c 128,-1,25
 191 1231 191 1231 193.5 1174 c 128,-1,26
 196 1117 196 1117 203.5 1038 c 128,-1,27
 211 959 211 959 250.5 688 c 128,-1,28
 290 417 290 417 303 309 c 1,29,-1
 307 309 l 1,30,31
 307 405.9 307 405.9 322.5 531.45 c 128,-1,32
 338 657 338 657 341 689 c 128,-1,33
 344 721 344 721 353.5 767.5 c 128,-1,34
 363 814 363 814 365 840.5 c 128,-1,35
 367 867 367 867 373.5 992 c 128,-1,36
 380 1117 380 1117 384 1155 c 128,-1,37
 388 1193 388 1193 394.5 1238.5 c 128,-1,38
 401 1284 401 1284 401 1309 c 1,39,-1
 399 1346 l 1,40,41
 399 1372 399 1372 428 1386 c 1,42,43
 489 1386 489 1386 489 1350 c 1,44,-1
 479 1323 l 1,45,46
 479 1095.09375 479 1095.09375 564 779 c 128,-1,47
 649 462.90625 649 462.90625 649 246 c 1,48,-1
 655 242 l 1,49,50
 661 266 661 266 666.5 365 c 128,-1,51
 672 464 672 464 698.5 671 c 128,-1,52
 725 878 725 878 730 963 c 128,-1,53
 735 1048 735 1048 756.5 1227 c 128,-1,54
 778 1406 778 1406 778 1503 c 1,55,-1
 776 1542 l 1,56,57
 776 1591 776 1591 829 1591 c 0,58,59
 842 1591 842 1591 855 1581.5 c 128,-1,60
 868 1572 868 1572 868 1555 c 128,-1,61
 868 1538 868 1538 846 1520 c 1,62,63
 848 1516 848 1516 848 1507 c 0,64,65
 848 1494 848 1494 840 1462 c 1,66,67
 826 1343 826 1343 799.5 1010.5 c 128,-1,68
 773 678 773 678 732.5 439.5 c 128,-1,69
 692 201 692 201 692 53 c 2,70,-1
 692 23 l 2,71,72
 692 -1 692 -1 685 -14 c 128,-1,73
 678 -27 678 -27 655 -27 c 0,74,75
 607.25 -27 607.25 -27 581 288 c 0,76,77
 573.116714697 382.599423631 573.116714697 382.599423631 517.558357349 651.799711816 c 128,-1,78
 462 921 462 921 446 1049 c 1,79,-1
 440 1053 l 1,0,-1
655 236 m 1,80,81
 651 236 651 236 651 233 c 1,82,-1
 655 236 l 1,80,81
334 1161 m 1,83,-1
 334 1157 l 1,84,-1
 334 1161 l 1,83,-1
EndSplineSet
EndChar

StartChar: X
Encoding: 88 88 59
Width: 565
GlyphClass: 2
Flags: HW
LayerCount: 2
Fore
SplineSet
430 27 m 0,0,1
 393 27 393 27 393 53 c 128,-1,2
 393 79 393 79 389.5 111 c 128,-1,3
 386 143 386 143 382 165.5 c 128,-1,4
 378 188 378 188 371.5 225 c 0,5,6
 326.60324826 480.56612529 326.60324826 480.56612529 289 629 c 1,7,8
 280 614 280 614 228 372.5 c 128,-1,9
 176 131 176 131 169.5 94.5 c 128,-1,10
 163 58 163 58 161.5 47.5 c 0,11,12
 154.830508475 0.813559322034 154.830508475 0.813559322034 139.5 -6 c 0,13,14
 126 -12 126 -12 115.5 -12 c 128,-1,15
 105 -12 105 -12 93.5 -4 c 128,-1,16
 82 4 82 4 82 14 c 128,-1,17
 82 24 82 24 90.5 54 c 128,-1,18
 99 84 99 84 111.5 122 c 0,19,20
 144.642883686 222.754366407 144.642883686 222.754366407 180.821441843 399.877183203 c 128,-1,21
 217 577 217 577 224.5 613 c 128,-1,22
 232 649 232 649 236 668 c 128,-1,23
 240 687 240 687 245 717 c 0,24,25
 254 771 254 771 254 831.5 c 128,-1,26
 254 892 254 892 242 966.5 c 128,-1,27
 230 1041 230 1041 205 1145.5 c 128,-1,28
 180 1250 180 1250 174 1279.5 c 128,-1,29
 168 1309 168 1309 145 1381.5 c 128,-1,30
 122 1454 122 1454 121 1495 c 1,31,32
 137 1522 137 1522 154.5 1522 c 128,-1,33
 172 1522 172 1522 181.5 1512 c 128,-1,34
 191 1502 191 1502 192.5 1491 c 128,-1,35
 194 1480 194 1480 195 1461 c 128,-1,36
 196 1442 196 1442 202 1406 c 128,-1,37
 208 1370 208 1370 242.5 1225.5 c 128,-1,38
 277 1081 277 1081 289 1004 c 1,39,40
 328.172995781 1107.2742616 328.172995781 1107.2742616 342.58649789 1189.6371308 c 0,41,42
 371 1352 371 1352 374.5 1368.5 c 128,-1,43
 378 1385 378 1385 381 1410.5 c 128,-1,44
 384 1436 384 1436 387.5 1456.5 c 128,-1,45
 391 1477 391 1477 397.5 1501 c 0,46,47
 411.3125 1552 411.3125 1552 438 1552 c 0,48,49
 475 1552 475 1552 475 1532.5 c 128,-1,50
 475 1513 475 1513 462.5 1482.5 c 128,-1,51
 450 1452 450 1452 436 1403 c 128,-1,52
 422 1354 422 1354 392.5 1203 c 128,-1,53
 363 1052 363 1052 355 1011 c 128,-1,54
 347 970 347 970 343.5 950.5 c 128,-1,55
 340 931 340 931 334.5 898 c 0,56,57
 324 835 324 835 324 791 c 1,58,-1
 432 238 l 1,59,-1
 428 227 l 1,60,61
 428 198 428 198 445.5 144 c 128,-1,62
 463 90 463 90 463 69.5 c 128,-1,63
 463 49 463 49 452.5 38 c 128,-1,64
 442 27 442 27 430 27 c 0,0,1
287 635 m 1,65,-1
 283 635 l 1,66,67
 283 633 283 633 287 633 c 1,68,-1
 287 635 l 1,65,-1
EndSplineSet
EndChar

StartChar: Y
Encoding: 89 89 60
Width: 505
GlyphClass: 2
Flags: HW
LayerCount: 2
Fore
SplineSet
289 -25 m 0,0,1
 260 -25 260 -25 260 25 c 1,2,-1
 270 420 l 1,3,4
 256 586 l 1,5,6
 256 619 256 619 243.5 682 c 128,-1,7
 231 745 231 745 231 769 c 128,-1,8
 231 793 231 793 225.5 822 c 128,-1,9
 220 851 220 851 210 892 c 128,-1,10
 200 933 200 933 195.5 955.5 c 128,-1,11
 191 978 191 978 171.5 1078.5 c 0,12,13
 131.135 1286.535 131.135 1286.535 102.5675 1382.2675 c 128,-1,14
 74 1478 74 1478 74 1503.5 c 0,15,16
 74 1546 74 1546 115 1546 c 1,17,-1
 139 1530 l 1,18,19
 144 1447 144 1447 192.5 1207 c 128,-1,20
 241 967 241 967 268 930 c 1,21,22
 300.37804878 1023.53658537 300.37804878 1023.53658537 312.18902439 1165.26829268 c 128,-1,23
 324 1307 324 1307 332 1379.5 c 0,24,25
 349.710344828 1540 349.710344828 1540 389 1540 c 0,26,27
 420 1540 420 1540 420 1518 c 0,28,29
 420 1502 420 1502 412 1473.5 c 128,-1,30
 404 1445 404 1445 400.5 1423 c 128,-1,31
 397 1401 397 1401 377.5 1292 c 128,-1,32
 358 1183 358 1183 349 1128.5 c 0,33,34
 322 965 322 965 322 829 c 1,35,-1
 328 762 l 1,36,-1
 315 731 l 1,37,-1
 315 715 l 1,38,-1
 330 469 l 1,39,40
 330 192 330 192 326 55 c 1,41,-1
 332 49 l 1,42,-1
 334 35 l 1,43,44
 334 12 334 12 322.5 -6.5 c 128,-1,45
 311 -25 311 -25 289 -25 c 0,0,1
EndSplineSet
EndChar

StartChar: Z
Encoding: 90 90 61
Width: 471
GlyphClass: 2
Flags: HW
LayerCount: 2
Fore
SplineSet
352 -10 m 1,0,-1
 109 -18 l 2,1,2
 88 -18 88 -18 78 8 c 1,3,4
 122 85 122 85 143 185 c 128,-1,5
 164 285 164 285 177 407 c 128,-1,6
 190 529 190 529 203 588 c 1,7,8
 268.024630542 1077.85221675 268.024630542 1077.85221675 291.512315271 1234.92610837 c 0,9,10
 322.28604119 1440.72540046 322.28604119 1440.72540046 324 1499 c 1,11,12
 186 1489 l 1,13,14
 94 1489 94 1489 94 1530 c 1,15,-1
 109 1546 l 1,16,17
 125 1542 125 1542 158 1542 c 1,18,19
 350 1563 l 1,20,21
 383 1563 383 1563 383 1526 c 1,22,23
 360.912756114 1477.09253139 360.912756114 1477.09253139 353.456378057 1371.0462657 c 128,-1,24
 346 1265 346 1265 338 1209 c 128,-1,25
 330 1153 330 1153 281 775 c 128,-1,26
 232 397 232 397 199 195 c 0,27,28
 196 173 196 173 174 121 c 128,-1,29
 152 69 152 69 152 39 c 1,30,-1
 285 49 l 1,31,32
 371 49 371 49 371 8 c 1,33,-1
 352 -10 l 1,0,-1
EndSplineSet
EndChar

StartChar: bracketleft
Encoding: 91 91 62
Width: 514
GlyphClass: 2
Flags: HW
LayerCount: 2
Fore
SplineSet
408 1489 m 1,0,-1
 293 1501 l 1,1,2
 231 1501 231 1501 231 1458 c 0,3,4
 231 1162.9 231 1162.9 205.5 782.95 c 128,-1,5
 180 403 180 403 172 246 c 128,-1,6
 164 89 164 89 152 51 c 1,7,-1
 152 2 l 1,8,-1
 143 -14 l 1,9,10
 150 -15 150 -15 210.5 -18 c 0,11,12
 354 -25.1157024793 354 -25.1157024793 354 -68 c 0,13,14
 354 -88 354 -88 308.5 -88 c 128,-1,15
 263 -88 263 -88 175.5 -74.5 c 128,-1,16
 88 -61 88 -61 88 -35 c 0,17,18
 88 50 88 50 109.5 218 c 128,-1,19
 131 386 131 386 131 513 c 128,-1,20
 131 640 131 640 157.5 976 c 128,-1,21
 184 1312 184 1312 184 1481 c 0,22,23
 184 1491 184 1491 175 1505.5 c 128,-1,24
 166 1520 166 1520 164 1528 c 1,25,-1
 205 1552 l 1,26,27
 440 1552 440 1552 440 1511 c 0,28,29
 440 1501 440 1501 429.5 1495 c 128,-1,30
 419 1489 419 1489 408 1489 c 1,0,-1
EndSplineSet
EndChar

StartChar: backslash
Encoding: 92 92 63
Width: 559
GlyphClass: 2
Flags: HW
LayerCount: 2
Fore
SplineSet
82 1505 m 0,0,1
 82 1532 82 1532 113 1532 c 0,2,3
 127.363636364 1532 127.363636364 1532 136.681818182 1491 c 128,-1,4
 146 1450 146 1450 206.5 1219.5 c 128,-1,5
 267 989 267 989 338.5 672 c 128,-1,6
 410 355 410 355 431.5 271.5 c 0,7,8
 475 102.558139535 475 102.558139535 475 31 c 0,9,10
 475 7 475 7 455 -6 c 1,11,12
 429.78125 -3.8984375 429.78125 -3.8984375 420.890625 20.55078125 c 128,-1,13
 412 45 412 45 408.5 58 c 128,-1,14
 405 71 405 71 401 92.5 c 128,-1,15
 397 114 397 114 395 121 c 2,16,-1
 354 299 l 2,17,18
 335 382 335 382 295 548.5 c 128,-1,19
 255 715 255 715 231.5 815 c 0,20,21
 166.869083585 1090.02517623 166.869083585 1090.02517623 144.434541793 1206.51258812 c 128,-1,22
 122 1323 122 1323 111 1368.5 c 0,23,24
 82 1488.45454545 82 1488.45454545 82 1505 c 0,0,1
EndSplineSet
EndChar

StartChar: bracketright
Encoding: 93 93 64
Width: 516
GlyphClass: 2
Flags: HW
LayerCount: 2
Fore
SplineSet
252 1499 m 1,0,-1
 137 1491 l 1,1,2
 78 1491 78 1491 78 1511 c 0,3,4
 78 1536.82089552 78 1536.82089552 131.5 1542.41044776 c 128,-1,5
 185 1548 185 1548 214.5 1549.5 c 0,6,7
 263.666666667 1552 263.666666667 1552 313 1552 c 1,8,-1
 354 1528 l 1,9,10
 352 1520 352 1520 343 1505.5 c 128,-1,11
 334 1491 334 1491 334 1481 c 0,12,13
 334 1319 334 1319 361.5 995.5 c 128,-1,14
 389 672 389 672 389 545.5 c 128,-1,15
 389 419 389 419 409.5 237.5 c 128,-1,16
 430 56 430 56 430 -35 c 0,17,18
 430 -61 430 -61 342.5 -74.5 c 128,-1,19
 255 -88 255 -88 209.5 -88 c 128,-1,20
 164 -88 164 -88 164 -68 c 0,21,22
 164 -25.1157024793 164 -25.1157024793 307.5 -18 c 0,23,24
 368 -15 368 -15 375 -14 c 1,25,-1
 367 2 l 1,26,-1
 367 51 l 1,27,28
 351 86 351 86 328 539.5 c 128,-1,29
 305 993 305 993 301.5 1116.5 c 128,-1,30
 298 1240 298 1240 292.5 1326 c 128,-1,31
 287 1412 287 1412 287 1446 c 128,-1,32
 287 1480 287 1480 280 1489.5 c 128,-1,33
 273 1499 273 1499 252 1499 c 1,0,-1
EndSplineSet
EndChar

StartChar: asciicircum
Encoding: 94 94 65
Width: 319
GlyphClass: 2
Flags: HW
LayerCount: 2
Fore
SplineSet
117 1575 m 0,0,1
 117 1632 117 1632 156 1632 c 0,2,3
 178 1632 178 1632 192.5 1618.5 c 128,-1,4
 207 1605 207 1605 207 1583 c 0,5,6
 207 1538 207 1538 166 1538 c 0,7,8
 117 1538 117 1538 117 1575 c 0,0,1
EndSplineSet
EndChar

StartChar: underscore
Encoding: 95 95 66
Width: 565
GlyphClass: 2
Flags: HW
LayerCount: 2
Fore
SplineSet
100 1090 m 0,0,1
 100 1374 100 1374 199 1413 c 1,2,3
 237 1413 237 1413 286.5 1397 c 128,-1,4
 336 1381 336 1381 336 1362 c 1,5,6
 381 1307 381 1307 411 1095 c 128,-1,7
 441 883 441 883 446 743 c 1,8,-1
 451 737 l 1,9,10
 451 693 451 693 464 607 c 128,-1,11
 477 521 477 521 477 477 c 2,12,-1
 477 299 l 1,13,14
 464.309381238 271.311377246 464.309381238 271.311377246 455.654690619 203.155688623 c 128,-1,15
 447 135 447 135 436 104.5 c 0,16,17
 412.37704918 39 412.37704918 39 317 39 c 0,18,19
 152.333333333 39 152.333333333 39 137 338 c 0,20,21
 135 371 135 371 125 516.5 c 128,-1,22
 115 662 115 662 111.5 723 c 0,23,24
 100 923.428571429 100 923.428571429 100 1090 c 0,0,1
145 920 m 2,25,26
 145 653 145 653 170 463 c 1,27,28
 170 243.818181818 170 243.818181818 226.5 156.5 c 0,29,30
 254 114 254 114 297 84 c 1,31,32
 362.142857143 84 362.142857143 84 391 134.5 c 0,33,34
 434 209.75 434 209.75 434 329.875 c 128,-1,35
 434 450 434 450 414 580.5 c 128,-1,36
 394 711 394 711 381 869.5 c 128,-1,37
 368 1028 368 1028 364.5 1060 c 128,-1,38
 361 1092 361 1092 357.5 1125.5 c 128,-1,39
 354 1159 354 1159 351 1180 c 128,-1,40
 348 1201 348 1201 341.5 1234 c 128,-1,41
 335 1267 335 1267 325 1288.5 c 128,-1,42
 315 1310 315 1310 301 1331.5 c 0,43,44
 273.325581395 1374 273.325581395 1374 217 1374 c 0,45,46
 145 1374 145 1374 145 1006 c 2,47,-1
 145 920 l 2,25,26
285 1561 m 1,48,-1
 270 1587 l 1,49,50
 270 1645 270 1645 322 1645 c 0,51,52
 344 1645 344 1645 361.5 1633 c 128,-1,53
 379 1621 379 1621 379 1598.5 c 128,-1,54
 379 1576 379 1576 360 1560 c 128,-1,55
 341 1544 341 1544 317 1544 c 1,56,-1
 285 1561 l 1,48,-1
EndSplineSet
EndChar

StartChar: grave
Encoding: 96 96 67
Width: 550
GlyphClass: 2
Flags: HW
LayerCount: 2
Fore
SplineSet
207 1622 m 1,0,1
 187 1618 187 1618 174 1618 c 0,2,3
 104 1618 104 1618 104 1659 c 0,4,5
 104 1695 104 1695 117 1704 c 1,6,7
 191 1704 191 1704 209 1681 c 0,8,9
 211 1680 211 1680 233.5 1672.5 c 128,-1,10
 256 1665 256 1665 272 1659 c 128,-1,11
 288 1653 288 1653 314.5 1642.5 c 128,-1,12
 341 1632 341 1632 360.5 1623 c 128,-1,13
 380 1614 380 1614 399 1603.5 c 0,14,15
 438 1581.94736842 438 1581.94736842 438 1565 c 0,16,17
 438 1558 438 1558 429.5 1553 c 128,-1,18
 421 1548 421 1548 415.5 1548 c 128,-1,19
 410 1548 410 1548 313 1582.5 c 128,-1,20
 216 1617 216 1617 207 1622 c 1,0,1
EndSplineSet
EndChar

StartChar: a
Encoding: 97 97 68
Width: 667
GlyphClass: 2
Flags: HW
LayerCount: 2
Fore
SplineSet
367 305 m 1,0,-1
 313 303 l 1,1,2
 284 315 284 315 249 315 c 128,-1,3
 214 315 214 315 211 313 c 128,-1,4
 208 311 208 311 207 306 c 128,-1,5
 206 301 206 301 205 299 c 2,6,-1
 201 258 l 2,7,8
 196.695652174 206.347826087 196.695652174 206.347826087 182.347826087 133.173913043 c 0,9,10
 154.274509804 -10 154.274509804 -10 123 -10 c 0,11,12
 110 -10 110 -10 96 1 c 128,-1,13
 82 12 82 12 82 25 c 1,14,15
 107.50617284 101.518518519 107.50617284 101.518518519 135.75308642 257.759259259 c 128,-1,16
 164 414 164 414 171 452.5 c 128,-1,17
 178 491 178 491 197 608 c 128,-1,18
 216 725 216 725 222 762 c 128,-1,19
 228 799 228 799 254.5 922 c 128,-1,20
 281 1045 281 1045 286.5 1083 c 128,-1,21
 292 1121 292 1121 299 1186.5 c 0,22,23
 316.012658228 1345.68987342 316.012658228 1345.68987342 326 1364 c 1,24,-1
 354 1362 l 1,25,26
 379 1362 379 1362 391 1374 c 1,27,28
 404 1374 404 1374 416 1365.5 c 128,-1,29
 428 1357 428 1357 428 1343 c 0,30,31
 428 1245 428 1245 453 964 c 128,-1,32
 478 683 478 683 492.5 600.5 c 128,-1,33
 507 518 507 518 526 438.5 c 128,-1,34
 545 359 545 359 545 317 c 1,35,-1
 535 289 l 1,36,37
 535 243 535 243 552 153.5 c 128,-1,38
 569 64 569 64 569 27.5 c 128,-1,39
 569 -9 569 -9 553 -18 c 1,40,41
 511.428571429 -18 511.428571429 -18 501.714285714 -6 c 128,-1,42
 492 6 492 6 492 32.5 c 128,-1,43
 492 59 492 59 488.5 97.5 c 128,-1,44
 485 136 485 136 481.5 159 c 128,-1,45
 478 182 478 182 469.5 231.5 c 128,-1,46
 461 281 461 281 459 295 c 1,47,48
 420 305 420 305 367 305 c 1,0,-1
223 406 m 0,49,50
 223 385 223 385 272.5 371 c 0,51,52
 346.75 350 346.75 350 438 350 c 2,53,-1
 459 350 l 1,54,55
 446 390 446 390 446 442 c 2,56,-1
 446 489 l 2,57,58
 446 616 446 616 414.5 859 c 128,-1,59
 383 1102 383 1102 381 1221 c 1,60,61
 274 692 274 692 248.5 567.5 c 128,-1,62
 223 443 223 443 223 406 c 0,49,50
EndSplineSet
EndChar

StartChar: b
Encoding: 98 98 69
Width: 530
GlyphClass: 2
Flags: HW
LayerCount: 2
Fore
SplineSet
121 1329 m 2,0,1
 121 1382 121 1382 164 1382 c 0,2,3
 192 1382 192 1382 269.5 1358 c 128,-1,4
 347 1334 347 1334 348 1315 c 1,5,6
 346 1311 346 1311 346 1309 c 1,7,8
 384 1249 384 1249 397 1188.5 c 128,-1,9
 410 1128 410 1128 410 1006.5 c 128,-1,10
 410 885 410 885 377 795 c 1,11,-1
 379 795 l 1,12,13
 371 776 371 776 347.5 741.5 c 128,-1,14
 324 707 324 707 319 698 c 1,15,16
 359 667 359 667 382.5 609.5 c 128,-1,17
 406 552 406 552 411.5 507 c 128,-1,18
 417 462 417 462 420 399 c 2,19,-1
 422 346 l 1,20,-1
 422 317 l 2,21,22
 422 120.846153846 422 120.846153846 300 27 c 0,23,24
 235 -23 235 -23 143 -23 c 0,25,26
 125 -23 125 -23 114.5 -10.5 c 128,-1,27
 104 2 104 2 103 21 c 128,-1,28
 102 40 102 40 102 84 c 1,29,-1
 123 516 l 1,30,-1
 119 698 l 1,31,-1
 131 1188 l 1,32,33
 131 1266 131 1266 129 1307 c 1,34,-1
 121 1317 l 1,35,-1
 121 1329 l 2,0,1
172 150 m 1,36,-1
 174 57 l 1,37,38
 250 57 250 57 304 128.5 c 128,-1,39
 358 200 358 200 358 279 c 2,40,-1
 358 282 l 1,41,42
 359 300 359 300 359 317 c 128,-1,43
 359 334 359 334 357.5 375.5 c 128,-1,44
 356 417 356 417 351 451.5 c 128,-1,45
 346 486 346 486 333.5 528 c 128,-1,46
 321 570 321 570 303.5 599 c 0,47,48
 261.862068966 668 261.862068966 668 188 668 c 1,49,50
 178 515 178 515 178 397.5 c 128,-1,51
 178 280 178 280 184 248 c 1,52,53
 172 226 172 226 172 150 c 1,36,-1
184 934 m 1,54,-1
 182 791 l 1,55,-1
 182 766 l 1,56,-1
 190 739 l 1,57,-1
 205 739 l 2,58,59
 340 739 340 739 340 1012 c 0,60,61
 340 1049 340 1049 334 1139 c 1,62,-1
 330 1143 l 1,63,64
 317.407407407 1313 317.407407407 1313 227 1313 c 0,65,66
 182 1313 182 1313 182 1044 c 1,67,-1
 184 934 l 1,54,-1
EndSplineSet
EndChar

StartChar: c
Encoding: 99 99 70
Width: 550
GlyphClass: 2
Flags: HW
LayerCount: 2
Fore
SplineSet
174 827 m 1,0,-1
 166 414 l 1,1,2
 166 241.4 166 241.4 199 165.5 c 0,3,4
 237.225806452 77.5806451613 237.225806452 77.5806451613 296.5 51.5 c 0,5,6
 334 35 334 35 373.5 35 c 128,-1,7
 413 35 413 35 434 53 c 1,8,9
 465 53 465 53 465 31 c 0,10,11
 465 15 465 15 437.5 -4.5 c 128,-1,12
 410 -24 410 -24 387 -33 c 1,13,-1
 319 -33 l 1,14,15
 306 -26 306 -26 271 -15 c 128,-1,16
 236 -4 236 -4 206.5 17.5 c 128,-1,17
 177 39 177 39 151 88.5 c 128,-1,18
 125 138 125 138 114 204 c 0,19,20
 96 312 96 312 96 446 c 2,21,-1
 96 680 l 2,22,23
 96 952.8 96 952.8 116 1054.4 c 0,24,25
 156.306995471 1259.15953699 156.306995471 1259.15953699 225 1313 c 0,26,27
 243 1327 243 1327 280.5 1341.5 c 128,-1,28
 318 1356 318 1356 332 1364 c 1,29,-1
 414 1364 l 2,30,31
 416 1364 416 1364 419.5 1363 c 128,-1,32
 423 1362 423 1362 425 1361.5 c 128,-1,33
 427 1361 427 1361 430.5 1360 c 128,-1,34
 434 1359 434 1359 435.5 1358.5 c 128,-1,35
 437 1358 437 1358 440 1356.5 c 128,-1,36
 443 1355 443 1355 444.5 1353.5 c 0,37,38
 453 1345 453 1345 453 1333 c 1,39,-1
 426 1303 l 1,40,-1
 340 1303 l 2,41,42
 298 1303 298 1303 267 1263.5 c 128,-1,43
 236 1224 236 1224 219.5 1170 c 128,-1,44
 203 1116 203 1116 193 1045 c 0,45,46
 178 938.5 178 938.5 178 838 c 1,47,-1
 174 827 l 1,0,-1
EndSplineSet
EndChar

StartChar: d
Encoding: 100 100 71
Width: 653
GlyphClass: 2
Flags: HW
LayerCount: 2
Fore
SplineSet
537 717 m 1,0,1
 537 636 537 636 547 618 c 1,2,3
 534.391304348 551.173913043 534.391304348 551.173913043 523.695652174 437.086956522 c 128,-1,4
 513 323 513 323 498.5 263 c 128,-1,5
 484 203 484 203 461.5 160 c 0,6,7
 408.312130178 58.3520710059 408.312130178 58.3520710059 283 -10 c 1,8,-1
 141 -10 l 2,9,10
 123 -10 123 -10 123 45 c 1,11,12
 115 204 115 204 115 401 c 1,13,-1
 119 885 l 1,14,15
 119 1098 119 1098 111 1270 c 1,16,17
 94 1284 94 1284 94 1305 c 128,-1,18
 94 1326 94 1326 111 1341 c 128,-1,19
 128 1356 128 1356 142 1356 c 128,-1,20
 156 1356 156 1356 173.5 1339.5 c 128,-1,21
 191 1323 191 1323 200 1318.5 c 128,-1,22
 209 1314 209 1314 243 1308.5 c 128,-1,23
 277 1303 277 1303 299.5 1292 c 128,-1,24
 322 1281 322 1281 373 1232.5 c 128,-1,25
 424 1184 424 1184 442 1171 c 1,26,-1
 440 1167 l 1,27,28
 442 1154 442 1154 470.5 1114.5 c 128,-1,29
 499 1075 499 1075 506 1057 c 0,30,31
 539 968 539 968 539 813 c 1,32,-1
 537 717 l 1,0,1
477 592 m 1,33,-1
 475 666 l 1,34,-1
 465 872 l 1,35,36
 460.799813491 987.505129002 460.799813491 987.505129002 394.5 1118 c 0,37,38
 363 1180 363 1180 311.5 1221 c 128,-1,39
 260 1262 260 1262 201 1262 c 0,40,41
 178 1262 178 1262 178 852.5 c 128,-1,42
 178 443 178 443 201 119 c 1,43,-1
 199 80 l 1,44,-1
 207 76 l 1,45,-1
 213 49 l 1,46,-1
 276 49 l 1,47,48
 288.4 65.5333333333 288.4 65.5333333333 306.7 79.7666666667 c 128,-1,49
 325 94 325 94 332 100 c 0,50,51
 477 231 477 231 477 592 c 1,33,-1
EndSplineSet
EndChar

StartChar: e
Encoding: 101 101 72
Width: 491
GlyphClass: 2
Flags: HW
LayerCount: 2
Fore
SplineSet
109 16 m 1,0,-1
 111 68 l 1,1,-1
 104 76 l 1,2,3
 119 117 119 117 119 160 c 1,4,-1
 109 430 l 1,5,-1
 123 1047 l 1,6,-1
 115 1292 l 1,7,8
 115 1350 115 1350 174 1350 c 0,9,10
 197 1350 197 1350 207 1337 c 1,11,12
 214 1335 214 1335 266.5 1329 c 0,13,14
 391.50343879 1314.71389271 391.50343879 1314.71389271 395 1278 c 1,15,16
 395 1262 395 1262 356 1239 c 1,17,18
 243 1276 243 1276 190 1278 c 1,19,-1
 180 1266 l 1,20,21
 182 1237 182 1237 182 1178 c 1,22,-1
 174 860 l 1,23,24
 174 803 174 803 203 803 c 1,25,-1
 272 807 l 1,26,27
 350 807 350 807 352 770 c 1,28,29
 352 749 352 749 341.5 733 c 128,-1,30
 331 717 331 717 304 717 c 128,-1,31
 277 717 277 717 264 733 c 1,32,-1
 197 743 l 1,33,-1
 188 743 l 1,34,-1
 178 733 l 1,35,-1
 178 727 l 1,36,37
 182 674 182 674 182 565 c 1,38,-1
 178 274 l 1,39,40
 178 70.2972972973 178 70.2972972973 205.5 48 c 0,41,42
 224 33 224 33 272 33 c 1,43,-1
 348 37 l 1,44,45
 408 37 408 37 408 10 c 0,46,47
 408 -27 408 -27 319 -27 c 2,48,-1
 150 -27 l 2,49,50
 112 -27 112 -27 109 16 c 1,0,-1
EndSplineSet
EndChar

StartChar: f
Encoding: 102 102 73
Width: 526
GlyphClass: 2
Flags: HW
LayerCount: 2
Fore
SplineSet
176 346 m 1,0,-1
 188 53 l 1,1,2
 188 -29 188 -29 139 -29 c 1,3,-1
 98 2 l 1,4,5
 117 199 117 199 117 418 c 128,-1,6
 117 637 117 637 131 912.5 c 128,-1,7
 145 1188 145 1188 145 1325 c 0,8,9
 145 1344 145 1344 163 1354 c 128,-1,10
 181 1364 181 1364 220 1364 c 128,-1,11
 259 1364 259 1364 352.5 1349 c 128,-1,12
 446 1334 446 1334 446 1305 c 0,13,14
 446 1270 446 1270 373 1270 c 1,15,16
 336 1290 336 1290 289 1290 c 128,-1,17
 242 1290 242 1290 235 1288 c 128,-1,18
 228 1286 228 1286 226 1283 c 128,-1,19
 224 1280 224 1280 221 1268.5 c 128,-1,20
 218 1257 218 1257 213 1247 c 1,21,-1
 193 815 l 1,22,-1
 193 743 l 2,23,24
 193 736 193 736 227.5 736.5 c 0,25,26
 330 737.985507246 330 737.985507246 330 705 c 0,27,28
 330 688 330 688 314 677 c 128,-1,29
 298 666 298 666 281 666 c 1,30,-1
 213 678 l 1,31,32
 176 678 176 678 176 578 c 2,33,-1
 176 346 l 1,0,-1
111 1014 m 1,34,-1
 111 1012 l 2,35,36
 111 1010 111 1010 108.5 1010 c 128,-1,37
 106 1010 106 1010 106 1012 c 128,-1,38
 106 1014 106 1014 109 1014 c 2,39,-1
 111 1014 l 1,34,-1
EndSplineSet
EndChar

StartChar: g
Encoding: 103 103 74
Width: 688
GlyphClass: 2
Flags: HW
LayerCount: 2
Fore
SplineSet
563 406 m 1,0,-1
 571 92 l 1,1,2
 465 -14 465 -14 362 -14 c 0,3,4
 226 -14 226 -14 183.5 42 c 128,-1,5
 141 98 141 98 116.5 302 c 128,-1,6
 92 506 92 506 92 592.5 c 128,-1,7
 92 679 92 679 102 783 c 128,-1,8
 112 887 112 887 118 981.5 c 128,-1,9
 124 1076 124 1076 139 1140 c 0,10,11
 188.340101523 1356 188.340101523 1356 371 1356 c 0,12,13
 434 1356 434 1356 434 1327 c 0,14,15
 434 1313 434 1313 420.5 1304.5 c 128,-1,16
 407 1296 407 1296 393 1296 c 1,17,-1
 354 1300 l 1,18,19
 284.588235294 1300 284.588235294 1300 246.5 1212.5 c 0,20,21
 203.800947867 1114.40758294 203.800947867 1114.40758294 193.400473934 1031.20379147 c 128,-1,22
 183 948 183 948 178 899 c 128,-1,23
 173 850 173 850 171 787 c 0,24,25
 168 692.5 168 692.5 168 610.25 c 128,-1,26
 168 528 168 528 174 479 c 1,27,28
 190 454 190 454 195 397.5 c 128,-1,29
 200 341 200 341 203.5 284 c 128,-1,30
 207 227 207 227 219.5 171 c 128,-1,31
 232 115 232 115 273 80 c 128,-1,32
 314 45 314 45 385 45 c 0,33,34
 508 45 508 45 508 372 c 2,35,-1
 508 522 l 1,36,37
 487 543 487 543 436 543 c 1,38,-1
 397 541 l 1,39,40
 348 541 348 541 348 565 c 0,41,42
 348 600 348 600 397 600 c 0,43,44
 586 600 586 600 586 559 c 1,45,-1
 563 406 l 1,0,-1
EndSplineSet
EndChar

StartChar: h
Encoding: 104 104 75
Width: 606
GlyphClass: 2
Flags: HW
LayerCount: 2
Fore
SplineSet
394 1365 m 128,-1,1
 405 1374 405 1374 412 1374 c 128,-1,2
 419 1374 419 1374 455 1362 c 1,3,4
 455 1202 455 1202 468 883.5 c 128,-1,5
 481 565 481 565 481 370.5 c 128,-1,6
 481 176 481 176 494 0 c 1,7,-1
 481 -23 l 1,8,9
 479 -2 479 -2 418 -2 c 1,10,11
 408 453 408 453 408 547 c 1,12,-1
 403 555 l 1,13,-1
 410 573 l 1,14,15
 410 605 410 605 403 649 c 1,16,-1
 371 657 l 1,17,18
 353 651 353 651 330 651 c 1,19,-1
 199 672 l 1,20,-1
 178 664 l 1,21,-1
 172 406 l 1,22,-1
 178 397 l 1,23,-1
 190 55 l 1,24,25
 190 2 190 2 156 2 c 0,26,27
 111 2 111 2 111 125 c 1,28,-1
 115 500 l 1,29,30
 115 686 115 686 109 700 c 1,31,32
 119 720 119 720 119 836 c 1,33,34
 104 1315 l 2,35,36
 104 1329 104 1329 114.5 1341.5 c 128,-1,37
 125 1354 125 1354 139 1354 c 0,38,39
 180 1354 180 1354 180 1235 c 1,40,-1
 172 735 l 2,41,42
 172 711 172 711 336 711 c 0,43,44
 375 711 375 711 392.5 725.5 c 128,-1,45
 410 740 410 740 410 806 c 128,-1,46
 410 872 410 872 396.5 1060.5 c 128,-1,47
 383 1249 383 1249 383 1343 c 0,48,0
 383 1356 383 1356 394 1365 c 128,-1,1
352 739 m 1,49,-1
 356 735 l 1,50,-1
 352 735 l 1,51,-1
 352 739 l 1,49,-1
EndSplineSet
EndChar

StartChar: i
Encoding: 105 105 76
Width: 550
GlyphClass: 2
Flags: HW
LayerCount: 2
Fore
SplineSet
424 16 m 1,0,-1
 356 23 l 1,1,2
 340 23 340 23 318 11.5 c 128,-1,3
 296 0 296 0 265.5 0 c 128,-1,4
 235 0 235 0 227 20 c 1,5,-1
 193 18 l 1,6,7
 149 18 149 18 137 39 c 1,8,9
 137 51.75 137 51.75 148.5 60.375 c 128,-1,10
 160 69 160 69 164 74 c 1,11,-1
 223 74 l 1,12,-1
 231 82 l 1,13,-1
 238 125 l 1,14,15
 223 573 l 1,16,-1
 233 1051 l 1,17,18
 233 1190 233 1190 223 1288 c 1,19,20
 203 1294 203 1294 162 1294 c 1,21,-1
 113 1290 l 1,22,23
 74 1290 74 1290 74 1325 c 0,24,25
 74 1334 74 1334 92.5 1342 c 128,-1,26
 111 1350 111 1350 123 1350 c 0,27,28
 408 1350 408 1350 408 1288 c 0,29,30
 408 1282 408 1282 403 1272 c 1,31,-1
 356 1268 l 1,32,33
 340 1280 340 1280 297 1280 c 1,34,-1
 287 1274 l 1,35,36
 293 1256 293 1256 293 1165 c 1,37,-1
 287 678 l 1,38,-1
 301 229 l 1,39,-1
 299 166 l 1,40,41
 299 118 299 118 305 109 c 1,42,-1
 303 104 l 1,43,44
 303 84 303 84 348 84 c 1,45,-1
 408 86 l 1,46,47
 469 86 469 86 469 57 c 0,48,49
 469 39 469 39 456 27.5 c 128,-1,50
 443 16 443 16 424 16 c 1,0,-1
EndSplineSet
EndChar

StartChar: j
Encoding: 106 106 77
Width: 573
GlyphClass: 2
Flags: HW
LayerCount: 2
Fore
SplineSet
72 -205 m 1,0,-1
 70 -197 l 1,1,2
 70 -187.898734177 70 -187.898734177 143.5 -140.449367089 c 128,-1,3
 217 -93 217 -93 225 -84 c 0,4,5
 258 -47 258 -47 274.5 29 c 128,-1,6
 291 105 291 105 291 172 c 1,7,8
 272 1260 l 1,9,-1
 260 1282 l 1,10,11
 251 1286 251 1286 210.5 1291.5 c 0,12,13
 111 1305.01234568 111 1305.01234568 111 1335 c 0,14,15
 111 1343 111 1343 128 1351.5 c 128,-1,16
 145 1360 145 1360 178 1360 c 128,-1,17
 211 1360 211 1360 353.5 1331 c 128,-1,18
 496 1302 496 1302 496 1274.5 c 128,-1,19
 496 1247 496 1247 463 1247 c 1,20,-1
 352 1268 l 1,21,22
 334 1268 334 1268 334 1227 c 2,23,-1
 354 377 l 1,24,-1
 354 152 l 1,25,26
 342 125 342 125 342 75 c 128,-1,27
 342 25 342 25 329 -26.5 c 128,-1,28
 316 -78 316 -78 292 -130 c 128,-1,29
 268 -182 268 -182 226 -217 c 128,-1,30
 184 -252 184 -252 133 -252 c 2,31,-1
 119 -252 l 1,32,-1
 72 -205 l 1,0,-1
EndSplineSet
EndChar

StartChar: k
Encoding: 107 107 78
Width: 677
GlyphClass: 2
Flags: HW
LayerCount: 2
Fore
SplineSet
342 930 m 1,0,-1
 338 799 l 1,1,2
 338 706 338 706 408.5 458 c 0,3,4
 493.161744154 160.182800708 493.161744154 160.182800708 552.5 80.5 c 0,5,6
 592 27.4571428571 592 27.4571428571 592 3.72857142857 c 0,7,8
 592 -37 592 -37 557 -37 c 0,9,10
 509 -37 509 -37 441.5 147 c 128,-1,11
 374 331 374 331 328 527.5 c 128,-1,12
 282 724 282 724 279 795 c 1,13,-1
 274 803 l 1,14,15
 267 788 267 788 241.5 736.5 c 128,-1,16
 216 685 216 685 206.5 663 c 0,17,18
 176 592.368421053 176 592.368421053 176 518 c 1,19,-1
 166 371 l 1,20,-1
 166 109 l 1,21,-1
 180 -8 l 1,22,23
 180 -19 180 -19 169.5 -26 c 128,-1,24
 159 -33 159 -33 140 -33 c 128,-1,25
 121 -33 121 -33 111.5 -24.5 c 128,-1,26
 102 -16 102 -16 102 10 c 2,27,-1
 102 395 l 1,28,-1
 121 653 l 1,29,-1
 141 1049 l 1,30,-1
 141 1333 l 1,31,32
 152 1356 152 1356 173.5 1356 c 128,-1,33
 195 1356 195 1356 207 1344 c 128,-1,34
 219 1332 219 1332 219 1317 c 1,35,36
 201 1284 201 1284 201 1216 c 128,-1,37
 201 1148 201 1148 197 1003 c 128,-1,38
 193 858 193 858 193 786 c 1,39,40
 213 794 213 794 352.5 1068.5 c 128,-1,41
 492 1343 492 1343 506 1343 c 0,42,43
 558 1343 558 1343 561 1309 c 1,44,45
 433 1121 433 1121 342 930 c 1,0,-1
EndSplineSet
EndChar

StartChar: l
Encoding: 108 108 79
Width: 497
GlyphClass: 2
Flags: HW
LayerCount: 2
Fore
SplineSet
188 47 m 2,0,-1
 381 41 l 1,1,-1
 387 41 l 2,2,3
 398 41 398 41 408 29.5 c 128,-1,4
 418 18 418 18 418 6 c 0,5,6
 418 -17 418 -17 385 -20 c 1,7,8
 332 -18 332 -18 215 -18 c 1,9,-1
 219 -20 l 1,10,-1
 143 -27 l 1,11,12
 114 -27 114 -27 109 20 c 1,13,14
 113 40 113 40 113 88 c 2,15,-1
 125 1180 l 1,16,-1
 135 1315 l 1,17,18
 135 1329 135 1329 150 1329 c 1,19,-1
 184 1321 l 1,20,21
 182 1159 l 1,22,-1
 184 713 l 1,23,24
 178 545 178 545 178 541 c 2,25,-1
 182 367 l 1,26,-1
 176 350 l 1,27,-1
 178 352 l 1,28,-1
 176 336 l 1,29,30
 176 319 176 319 182 307 c 1,31,-1
 176 111 l 1,32,-1
 176 98 l 2,33,34
 176 66 176 66 178 56.5 c 128,-1,35
 180 47 180 47 188 47 c 2,0,-1
EndSplineSet
EndChar

StartChar: m
Encoding: 109 109 80
Width: 1054
GlyphClass: 2
Flags: HW
LayerCount: 2
Fore
SplineSet
930 408 m 1,0,-1
 926 193 l 1,1,2
 926 50.2857142857 926 50.2857142857 946.5 -20 c 0,3,4
 950 -32 950 -32 950 -46 c 128,-1,5
 950 -60 950 -60 937.5 -83 c 128,-1,6
 925 -106 925 -106 905 -106 c 0,7,8
 864 -106 864 -106 864 25 c 0,9,10
 864 452 864 452 857.5 545.5 c 128,-1,11
 851 639 851 639 843.5 697 c 128,-1,12
 836 755 836 755 836 786 c 2,13,-1
 844 1040 l 1,14,15
 844 1112 844 1112 836 1137 c 1,16,17
 796 1105 796 1105 590 274 c 0,18,19
 588 267 588 267 585.5 244 c 128,-1,20
 583 221 583 221 579.5 201.5 c 128,-1,21
 576 182 576 182 570 161 c 0,22,23
 556.857142857 115 556.857142857 115 528 115 c 0,24,25
 494 115 494 115 480.5 131.5 c 128,-1,26
 467 148 467 148 467 182 c 0,27,28
 467 266 467 266 361 690 c 128,-1,29
 255 1114 255 1114 219 1149 c 1,30,31
 214 1039 214 1039 201 811.5 c 0,32,33
 174 339 174 339 174 177 c 128,-1,34
 174 15 174 15 176 -12 c 1,35,36
 167 -39 167 -39 133 -39 c 0,37,38
 126 -39 126 -39 112 -28 c 128,-1,39
 98 -17 98 -17 98 -10 c 0,40,41
 98 206 98 206 130 636 c 128,-1,42
 162 1066 162 1066 162 1282 c 1,43,-1
 150 1321 l 1,44,45
 150 1352 150 1352 205 1352 c 0,46,47
 236.310344828 1352 236.310344828 1352 245 1320.5 c 0,48,49
 252.060869565 1294.90434783 252.060869565 1294.90434783 253.530434783 1268.45217391 c 128,-1,50
 255 1242 255 1242 261 1208.5 c 128,-1,51
 267 1175 267 1175 313.5 1070.5 c 128,-1,52
 360 966 360 966 370 929 c 128,-1,53
 380 892 380 892 395.5 838 c 0,54,55
 429.218009479 720.530805687 429.218009479 720.530805687 440 662 c 1,56,-1
 467 608 l 1,57,58
 473 574 473 574 489.5 508 c 0,59,60
 524.333333333 368.666666667 524.333333333 368.666666667 526 287 c 1,61,62
 550 323 550 323 655 710.5 c 128,-1,63
 760 1098 760 1098 769.5 1149 c 128,-1,64
 779 1200 779 1200 783 1226.5 c 128,-1,65
 787 1253 787 1253 791 1268.5 c 128,-1,66
 795 1284 795 1284 802.5 1305.5 c 0,67,68
 817.325581395 1348 817.325581395 1348 852 1348 c 0,69,70
 865 1348 865 1348 884 1336 c 128,-1,71
 903 1324 903 1324 903 1311 c 0,72,73
 903 453 903 453 930 408 c 1,0,-1
836 1149 m 1,74,-1
 834 1149 l 1,75,-1
 831 1147 l 1,76,-1
 836 1145 l 1,77,-1
 836 1149 l 1,74,-1
EndSplineSet
EndChar

StartChar: n
Encoding: 110 110 81
Width: 862
GlyphClass: 2
Flags: HW
LayerCount: 2
Fore
SplineSet
682 1247 m 1,0,-1
 678 1298 l 1,1,2
 678 1341 678 1341 707 1341 c 0,3,4
 727 1341 727 1341 739.5 1322 c 128,-1,5
 752 1303 752 1303 752 1282 c 2,6,-1
 752 1145 l 1,7,-1
 741 1128 l 1,8,9
 741 968 741 968 719 508.5 c 128,-1,10
 697 49 697 49 676 6 c 1,11,12
 671 5 671 5 646.5 -1.5 c 128,-1,13
 622 -8 622 -8 612 -8 c 128,-1,14
 602 -8 602 -8 594 5.5 c 128,-1,15
 586 19 586 19 581.5 41 c 128,-1,16
 577 63 577 63 573 70 c 1,17,-1
 575 76 l 1,18,19
 561.914728682 161.054263566 561.914728682 161.054263566 521.457364341 270.527131783 c 128,-1,20
 481 380 481 380 469 418 c 1,21,22
 462 427 462 427 414 571 c 1,23,24
 230 1142 230 1142 182 1188 c 1,25,26
 166 1125 166 1125 166 1044 c 1,27,-1
 170 883 l 1,28,-1
 166 784 l 2,29,30
 166 761 166 761 174 641 c 1,31,-1
 168 641 l 1,32,33
 168 300 168 300 182 264 c 1,34,-1
 182 80 l 1,35,36
 190 66 190 66 190 43.5 c 0,37,38
 190 -4 190 -4 152 -4 c 0,39,40
 109 -4 109 -4 109 106 c 1,41,-1
 117 240 l 1,42,-1
 104 829 l 1,43,-1
 117 1192 l 1,44,-1
 117 1228 l 2,45,46
 117 1255 117 1255 118.5 1264 c 128,-1,47
 120 1273 120 1273 121.5 1285.5 c 128,-1,48
 123 1298 123 1298 126 1305 c 128,-1,49
 129 1312 129 1312 133 1321 c 0,50,51
 140.897435897 1338.76923077 140.897435897 1338.76923077 154 1350 c 1,52,-1
 160 1343 l 1,53,-1
 180 1348 l 1,54,55
 202.714285714 1340.42857143 202.714285714 1340.42857143 207.5 1316.5 c 0,56,57
 208 1314 208 1314 210.5 1304.5 c 128,-1,58
 213 1295 213 1295 213 1294 c 0,59,60
 248 1148 248 1148 360 887 c 128,-1,61
 472 626 472 626 496 551.5 c 128,-1,62
 520 477 520 477 539 394 c 0,63,64
 581.01596424 210.456577267 581.01596424 210.456577267 631 125 c 1,65,-1
 635 131 l 1,66,67
 682 578 682 578 682 1247 c 1,0,-1
639 -2 m 1,68,69
 641 -2 641 -2 641 -4 c 1,70,-1
 639 -2 l 1,68,69
EndSplineSet
EndChar

StartChar: o
Encoding: 111 111 82
Width: 673
GlyphClass: 2
Flags: HW
LayerCount: 2
Fore
SplineSet
559 791 m 1,0,-1
 563 547 l 1,1,2
 563 86.2222222222 563 86.2222222222 415 -14.5 c 0,3,4
 379 -39 379 -39 334 -39 c 0,5,6
 94 -39 94 -39 94 715 c 0,7,8
 94 1006 94 1006 134.5 1220.5 c 0,9,10
 163.86013986 1376 163.86013986 1376 225 1376 c 0,11,12
 239 1376 239 1376 251.5 1365 c 128,-1,13
 264 1354 264 1354 285.5 1346.5 c 128,-1,14
 307 1339 307 1339 344.5 1332 c 128,-1,15
 382 1325 382 1325 398.5 1322 c 0,16,17
 439.432160804 1314.55778894 439.432160804 1314.55778894 477 1243 c 1,18,19
 563 1097.17391304 563 1097.17391304 563 801 c 1,20,-1
 559 791 l 1,0,-1
158 717 m 1,21,-1
 162 555 l 1,22,23
 162 359.818181818 162 359.818181818 205.5 184.5 c 0,24,25
 222 118 222 118 253.5 69 c 128,-1,26
 285 20 285 20 325.5 20 c 128,-1,27
 366 20 366 20 396.5 50 c 128,-1,28
 427 80 427 80 445 133.5 c 128,-1,29
 463 187 463 187 475 242.5 c 128,-1,30
 487 298 487 298 492 367 c 0,31,32
 500 477.4 500 477.4 500 563 c 1,33,-1
 477 1047 l 1,34,-1
 469 1063 l 1,35,-1
 473 1073 l 1,36,37
 473 1162 473 1162 423 1228 c 128,-1,38
 373 1294 373 1294 301 1294 c 2,39,-1
 215 1294 l 2,40,41
 197.55 1294 197.55 1294 184.775 1111.5 c 128,-1,42
 172 929 172 929 168 909 c 1,43,-1
 158 717 l 1,21,-1
EndSplineSet
EndChar

StartChar: p
Encoding: 112 112 83
Width: 522
GlyphClass: 2
Flags: HW
LayerCount: 2
Fore
SplineSet
180 395 m 1,0,-1
 197 -4 l 1,1,2
 197 -41 197 -41 158 -41 c 1,3,-1
 129 -25 l 1,4,5
 106 98 106 98 106 270 c 1,6,-1
 115 651 l 1,7,8
 102 681 102 681 102 698 c 1,9,10
 123 733 123 733 123 887 c 0,11,12
 123 1252 123 1252 111 1284 c 1,13,14
 131 1335 131 1335 141 1335 c 2,15,-1
 231 1335 l 2,16,17
 256 1335 256 1335 297.5 1312.5 c 128,-1,18
 339 1290 339 1290 365 1268 c 1,19,20
 416 1221 416 1221 416 1026 c 0,21,22
 416 852.631578947 416 852.631578947 401 816.315789474 c 128,-1,23
 386 780 386 780 369 752.5 c 128,-1,24
 352 725 352 725 326.5 707 c 0,25,26
 268.582582583 666.117117117 268.582582583 666.117117117 180 639 c 1,27,-1
 180 395 l 1,0,-1
178 1217 m 2,28,-1
 188 922 l 1,29,-1
 180 729 l 1,30,-1
 193 709 l 1,31,32
 342.511111111 709 342.511111111 709 349.5 1023.5 c 0,33,34
 350 1046 350 1046 350 1079 c 128,-1,35
 350 1112 350 1112 348 1135 c 128,-1,36
 346 1158 346 1158 338.5 1186 c 128,-1,37
 331 1214 331 1214 318 1231 c 0,38,39
 286.647058824 1272 286.647058824 1272 223 1272 c 0,40,41
 196 1272 196 1272 187 1259 c 128,-1,42
 178 1246 178 1246 178 1217 c 2,28,-1
EndSplineSet
EndChar

StartChar: q
Encoding: 113 113 84
Width: 688
GlyphClass: 2
Flags: HW
LayerCount: 2
Fore
SplineSet
520 -434 m 0,0,1
 414.117647059 -434 414.117647059 -434 385 -401 c 1,2,3
 385 -309.608695652 385 -309.608695652 363.5 -199.304347826 c 128,-1,4
 342 -89 342 -89 338 -68 c 1,5,6
 232.141791045 -46.828358209 232.141791045 -46.828358209 184.5 7.5 c 0,7,8
 130.479023465 69.1028679782 130.479023465 69.1028679782 112.239511733 263.051433989 c 128,-1,9
 94 457 94 457 94 707 c 0,10,11
 94 1356 94 1356 297 1368 c 1,12,13
 311 1362 311 1362 341 1354.5 c 128,-1,14
 371 1347 371 1347 400 1333.5 c 128,-1,15
 429 1320 429 1320 463 1285.5 c 128,-1,16
 497 1251 497 1251 517 1204.5 c 128,-1,17
 537 1158 537 1158 550 1113 c 128,-1,18
 563 1068 563 1068 569 1010 c 0,19,20
 578 923 578 923 578 817 c 2,21,-1
 578 721 l 2,22,23
 578 569.870967742 578 569.870967742 555 379.935483871 c 0,24,25
 510.088824577 9.05609973286 510.088824577 9.05609973286 434 -39 c 0,26,27
 431 -41 431 -41 419.5 -46 c 0,28,29
 395 -56.652173913 395 -56.652173913 395 -70 c 0,30,31
 395 -147.391304348 395 -147.391304348 417.5 -246.195652174 c 128,-1,32
 440 -345 440 -345 444 -365 c 1,33,34
 458.96969697 -379.96969697 458.96969697 -379.96969697 490.484848485 -378.984848485 c 0,35,36
 547 -377.21875 547 -377.21875 547 -405.609375 c 128,-1,37
 547 -434 547 -434 520 -434 c 0,0,1
147 702 m 1,38,-1
 154 664 l 1,39,-1
 154 575 l 2,40,41
 154 -14 154 -14 313 -14 c 1,42,-1
 373 -2 l 1,43,44
 414 -2 414 -2 449 114 c 128,-1,45
 484 230 484 230 500 346 c 128,-1,46
 516 462 516 462 516 514 c 2,47,-1
 516 872 l 2,48,49
 516 1315 516 1315 291 1315 c 0,50,51
 226.261904762 1315 226.261904762 1315 194.5 1177 c 0,52,53
 147 970.620689655 147 970.620689655 147 702 c 1,38,-1
EndSplineSet
EndChar

StartChar: r
Encoding: 114 114 85
Width: 550
GlyphClass: 2
Flags: HW
LayerCount: 2
Fore
SplineSet
102 1288 m 0,0,1
 102 1366 102 1366 147 1366 c 0,2,3
 247 1366 247 1366 312 1315.5 c 128,-1,4
 377 1265 377 1265 377 1167 c 2,5,-1
 377 1018 l 2,6,7
 377 939.166666667 377 939.166666667 297 792.5 c 0,8,9
 270 743 270 743 270 738.5 c 128,-1,10
 270 734 270 734 347.5 414.5 c 128,-1,11
 425 95 425 95 429 85 c 128,-1,12
 433 75 433 75 449 43 c 128,-1,13
 465 11 465 11 465 -12 c 128,-1,14
 465 -35 465 -35 442 -35 c 1,15,-1
 412 -25 l 1,16,17
 363.80581096 28.7550570063 363.80581096 28.7550570063 307 375 c 0,18,19
 252.203125 709 252.203125 709 213 709 c 2,20,-1
 205 709 l 2,21,22
 160 709 160 709 160 680 c 0,23,24
 160 568 160 568 173 307.5 c 128,-1,25
 186 47 186 47 195 16 c 1,26,-1
 180 -18 l 1,27,-1
 150 -18 l 1,28,-1
 135 -2 l 1,29,30
 102 885 102 885 102 1288 c 0,0,1
160 1260 m 2,31,-1
 168 764 l 1,32,-1
 172 760 l 1,33,34
 211 760 211 760 242 800.5 c 128,-1,35
 273 841 273 841 289 899 c 0,36,37
 322 1018.625 322 1018.625 322 1080.8125 c 128,-1,38
 322 1143 322 1143 318 1174.5 c 128,-1,39
 314 1206 314 1206 301 1241 c 0,40,41
 274.257142857 1313 274.257142857 1313 184 1313 c 0,42,43
 172 1313 172 1313 166 1294 c 128,-1,44
 160 1275 160 1275 160 1260 c 2,31,-1
EndSplineSet
EndChar

StartChar: s
Encoding: 115 115 86
Width: 489
GlyphClass: 2
Flags: HW
LayerCount: 2
Fore
SplineSet
303 1305 m 1,0,-1
 260 1317 l 1,1,2
 228 1317 228 1317 204 1291.5 c 128,-1,3
 180 1266 180 1266 167.5 1228 c 0,4,5
 143 1153.52 143 1153.52 143 1111.76 c 128,-1,6
 143 1070 143 1070 145 1052 c 128,-1,7
 147 1034 147 1034 152.5 1010 c 128,-1,8
 158 986 158 986 160 976 c 128,-1,9
 162 966 162 966 171.5 934.5 c 128,-1,10
 181 903 181 903 182 899 c 2,11,-1
 197 862 l 1,12,13
 217 826 217 826 249 771.5 c 128,-1,14
 281 717 281 717 297 689 c 128,-1,15
 313 661 313 661 334 615.5 c 128,-1,16
 355 570 355 570 364.5 533 c 0,17,18
 389 437.578947368 389 437.578947368 389 362.289473684 c 128,-1,19
 389 287 389 287 383 241.5 c 128,-1,20
 377 196 377 196 360.5 148 c 128,-1,21
 344 100 344 100 320 63.5 c 0,22,23
 265.095890411 -20 265.095890411 -20 166 -20 c 1,24,-1
 156 -25 l 1,25,26
 95.8598130841 -14.0654205607 95.8598130841 -14.0654205607 90 25 c 1,27,-1
 100 41 l 1,28,-1
 174 27 l 1,29,30
 221 27 221 27 255 63.5 c 128,-1,31
 289 100 289 100 305.5 156 c 0,32,33
 336 259.515151515 336 259.515151515 336 348.257575758 c 128,-1,34
 336 437 336 437 310.5 515.5 c 128,-1,35
 285 594 285 594 249 659 c 128,-1,36
 213 724 213 724 177 789 c 0,37,38
 90 946.083333333 90 946.083333333 90 1098 c 0,39,40
 90 1176.44444444 90 1176.44444444 117.5 1246.72222222 c 0,41,42
 168.869565217 1378 168.869565217 1378 252 1378 c 0,43,44
 275 1378 275 1378 302.5 1360.5 c 128,-1,45
 330 1343 330 1343 330 1321 c 0,46,47
 330 1305 330 1305 303 1305 c 1,0,-1
317 1313 m 1,48,-1
 317 1311 l 1,49,-1
 319 1311 l 1,50,51
 319 1313 319 1313 317 1313 c 1,48,-1
EndSplineSet
EndChar

StartChar: t
Encoding: 116 116 87
Width: 544
GlyphClass: 2
Flags: HW
LayerCount: 2
Fore
SplineSet
418 1284 m 1,0,-1
 307 1298 l 1,1,-1
 297 1286 l 1,2,-1
 301 1278 l 1,3,4
 297 1270 297 1270 297 1161 c 128,-1,5
 297 1052 297 1052 331 651.5 c 128,-1,6
 365 251 365 251 365 51 c 0,7,8
 365 36 365 36 353 24 c 128,-1,9
 341 12 341 12 326 12 c 1,10,-1
 303 29 l 1,11,-1
 299 178 l 1,12,-1
 303 250 l 1,13,14
 303 278 303 278 295 299 c 1,15,16
 295 473 295 473 270.5 806 c 128,-1,17
 246 1139 246 1139 244 1298 c 1,18,19
 83 1298 83 1298 72 1337 c 1,20,21
 81 1360 81 1360 111 1360 c 1,22,-1
 389 1341 l 1,23,-1
 426 1343 l 1,24,25
 463 1343 463 1343 463 1317 c 0,26,27
 463 1303 463 1303 448 1293.5 c 128,-1,28
 433 1284 433 1284 418 1284 c 1,0,-1
EndSplineSet
EndChar

StartChar: u
Encoding: 117 117 88
Width: 651
GlyphClass: 2
Flags: HW
LayerCount: 2
Fore
SplineSet
520 920 m 1,0,-1
 522 879 l 1,1,2
 518 827 518 827 516.5 739 c 128,-1,3
 515 651 515 651 513.5 572 c 128,-1,4
 512 493 512 493 508 401 c 128,-1,5
 504 309 504 309 492 235.5 c 0,6,7
 463.661678595 61.9277813923 463.661678595 61.9277813923 401 3.5 c 0,8,9
 332.722441223 -60.1767617155 332.722441223 -60.1767617155 242 -9 c 0,10,11
 203 13 203 13 176.5 46 c 128,-1,12
 150 79 150 79 134 258.5 c 128,-1,13
 118 438 118 438 115 637 c 0,14,15
 105.978432782 1235.43062545 105.978432782 1235.43062545 96 1319 c 1,16,-1
 109 1348 l 1,17,18
 156 1342 156 1342 156 1235 c 1,19,-1
 162 692 l 1,20,-1
 184 258 l 1,21,22
 184 25 184 25 338 25 c 0,23,24
 433 25 433 25 458 454 c 0,25,26
 460 483 460 483 467.5 731 c 128,-1,27
 475 979 475 979 475 1329 c 1,28,-1
 471 1366 l 1,29,30
 471 1389 471 1389 500.5 1389 c 128,-1,31
 530 1389 530 1389 535.5 1375.5 c 128,-1,32
 541 1362 541 1362 541 1254.5 c 128,-1,33
 541 1147 541 1147 528 1096 c 1,34,35
 530 1092 530 1092 530 1083 c 2,36,37
 520 920 l 1,0,-1
EndSplineSet
EndChar

StartChar: v
Encoding: 118 118 89
Width: 714
GlyphClass: 2
Flags: HW
LayerCount: 2
Fore
SplineSet
602 1395 m 1,0,1
 625 1388.42857143 625 1388.42857143 625 1369.21428571 c 128,-1,2
 625 1350 625 1350 620 1320 c 128,-1,3
 615 1290 615 1290 606 1251.5 c 128,-1,4
 597 1213 597 1213 592.5 1191.5 c 128,-1,5
 588 1170 588 1170 557.5 1035.5 c 128,-1,6
 527 901 527 901 516 829 c 128,-1,7
 505 757 505 757 492 623.5 c 128,-1,8
 479 490 479 490 473 446 c 128,-1,9
 467 402 467 402 447.5 326.5 c 128,-1,10
 428 251 428 251 424 229 c 128,-1,11
 420 207 420 207 418 172.5 c 128,-1,12
 416 138 416 138 412 107.5 c 128,-1,13
 408 77 408 77 400.5 45 c 0,14,15
 384.09375 -25 384.09375 -25 336 -25 c 1,16,-1
 313 -6 l 1,17,18
 313 328.278481013 313 328.278481013 131 1130 c 0,19,20
 128 1144 128 1144 114 1194 c 0,21,22
 76 1329.71428571 76 1329.71428571 76 1338.85714286 c 128,-1,23
 76 1348 76 1348 85 1357 c 128,-1,24
 94 1366 94 1366 105 1366 c 128,-1,25
 116 1366 116 1366 128 1348.5 c 128,-1,26
 140 1331 140 1331 148 1302.5 c 128,-1,27
 156 1274 156 1274 162 1247 c 128,-1,28
 168 1220 168 1220 173 1192.5 c 128,-1,29
 178 1165 178 1165 185.5 1136 c 128,-1,30
 193 1107 193 1107 205 1053.5 c 128,-1,31
 217 1000 217 1000 226.5 956 c 128,-1,32
 236 912 236 912 247.5 850.5 c 128,-1,33
 259 789 259 789 266 753.5 c 128,-1,34
 273 718 273 718 284 649 c 128,-1,35
 295 580 295 580 300 552.5 c 128,-1,36
 305 525 305 525 316.5 448 c 128,-1,37
 328 371 328 371 330.5 351.5 c 128,-1,38
 333 332 333 332 345.5 246.5 c 128,-1,39
 358 161 358 161 360 147 c 1,40,41
 402 286 402 286 430 540 c 128,-1,42
 458 794 458 794 512 1062.5 c 128,-1,43
 566 1331 566 1331 575 1384 c 1,44,-1
 602 1395 l 1,0,1
358 141 m 1,45,-1
 356 137 l 1,46,-1
 358 133 l 1,47,-1
 358 141 l 1,45,-1
301 1106 m 1,48,-1
 301 1102 l 1,49,-1
 299 1102 l 1,50,51
 299 1106 299 1106 301 1106 c 1,48,-1
EndSplineSet
EndChar

StartChar: w
Encoding: 119 119 90
Width: 847
GlyphClass: 2
Flags: HW
LayerCount: 2
Fore
SplineSet
592 -68 m 0,0,1
 557 -68 557 -68 557 23 c 1,2,3
 553 77 553 77 535 177 c 128,-1,4
 517 277 517 277 513 308 c 128,-1,5
 509 339 509 339 493 533 c 0,6,7
 453 1018 453 1018 418 1053 c 1,8,9
 397 822 397 822 397 770 c 128,-1,10
 397 718 397 718 388.5 632.5 c 128,-1,11
 380 547 380 547 359 410.5 c 128,-1,12
 338 274 338 274 335.5 255.5 c 128,-1,13
 333 237 333 237 329 197.5 c 128,-1,14
 325 158 325 158 319.5 122.5 c 128,-1,15
 314 87 314 87 306.5 46.5 c 0,16,17
 289.925925926 -43 289.925925926 -43 264 -43 c 0,18,19
 233 -43 233 -43 216.5 48.5 c 128,-1,20
 200 140 200 140 190 310 c 128,-1,21
 180 480 180 480 176 514.5 c 128,-1,22
 172 549 172 549 154 670.5 c 128,-1,23
 136 792 136 792 132.5 841.5 c 128,-1,24
 129 891 129 891 125.5 967 c 128,-1,25
 122 1043 122 1043 119 1090.5 c 0,26,27
 110.654219567 1222.64152353 110.654219567 1222.64152353 78 1311 c 1,28,29
 87 1327 87 1327 105.5 1327 c 128,-1,30
 124 1327 124 1327 133 1314.5 c 128,-1,31
 142 1302 142 1302 145.5 1280.5 c 128,-1,32
 149 1259 149 1259 150 1240 c 0,33,34
 152 1202 152 1202 154.5 1157.5 c 128,-1,35
 157 1113 157 1113 199.5 765 c 128,-1,36
 242 417 242 417 246 231 c 1,37,38
 252 216 252 216 256.5 175.5 c 128,-1,39
 261 135 261 135 268 121 c 1,40,-1
 270 121 l 1,41,42
 292.5 271 292.5 271 298.25 317 c 128,-1,43
 304 363 304 363 314 435 c 128,-1,44
 324 507 324 507 328 547 c 128,-1,45
 332 587 332 587 338 647.5 c 0,46,47
 347.267015707 740.942408377 347.267015707 740.942408377 351.633507853 871.971204188 c 128,-1,48
 356 1003 356 1003 367.5 1082 c 128,-1,49
 379 1161 379 1161 379 1188 c 1,50,-1
 416 1204 l 1,51,52
 429 1204 429 1204 440 1196.5 c 128,-1,53
 451 1189 451 1189 451 1179 c 128,-1,54
 451 1169 451 1169 446 1159 c 1,55,56
 539.915763814 840.602654388 539.915763814 840.602654388 559.5 421.5 c 0,57,58
 566.954954955 261.963963964 566.954954955 261.963963964 596 186 c 1,59,60
 623 261 623 261 639 543.5 c 128,-1,61
 655 826 655 826 655 937 c 128,-1,62
 655 1048 655 1048 668.5 1154 c 128,-1,63
 682 1260 682 1260 682 1297.5 c 128,-1,64
 682 1335 682 1335 674 1348 c 1,65,66
 674 1380 674 1380 715 1380 c 0,67,68
 732 1380 732 1380 737.5 1376 c 128,-1,69
 743 1372 743 1372 743 1338 c 128,-1,70
 743 1304 743 1304 733 1268 c 1,71,-1
 737 1255 l 1,72,73
 719 1174 719 1174 719 1110 c 128,-1,74
 719 1046 719 1046 723 1040 c 1,75,-1
 711 999 l 1,76,-1
 717 985 l 1,77,78
 711 973 711 973 711 965.5 c 128,-1,79
 711 958 711 958 717 922 c 1,80,-1
 711 913 l 1,81,82
 711 839 711 839 694.5 590.5 c 128,-1,83
 678 342 678 342 673 304 c 128,-1,84
 668 266 668 266 657.5 223 c 128,-1,85
 647 180 647 180 647 156 c 0,86,87
 647 -68 647 -68 592 -68 c 0,0,1
596 178 m 1,88,-1
 596 176 l 1,89,-1
 598 176 l 1,90,91
 598 178 598 178 596 178 c 1,88,-1
EndSplineSet
EndChar

StartChar: x
Encoding: 120 120 91
Width: 518
GlyphClass: 2
Flags: HW
LayerCount: 2
Fore
SplineSet
178 45 m 0,0,1
 178 -6 178 -6 147 -6 c 0,2,3
 109 -6 109 -6 109 18 c 0,4,5
 109 118 109 118 166 337 c 128,-1,6
 223 556 223 556 223 634.5 c 128,-1,7
 223 713 223 713 168.5 968.5 c 128,-1,8
 114 1224 114 1224 94 1247 c 1,9,-1
 96 1262 l 1,10,11
 96 1275 96 1275 87 1291 c 128,-1,12
 78 1307 78 1307 78 1315 c 128,-1,13
 78 1323 78 1323 91.5 1329 c 128,-1,14
 105 1335 105 1335 117.5 1335 c 128,-1,15
 130 1335 130 1335 140 1316.5 c 0,16,17
 156.721346277 1285.56550939 156.721346277 1285.56550939 160 1212 c 1,18,19
 186 1143 186 1143 211.5 1007.5 c 128,-1,20
 237 872 237 872 254 817 c 1,21,22
 267 844 267 844 287 982 c 128,-1,23
 307 1120 307 1120 316 1233 c 128,-1,24
 325 1346 325 1346 338 1350 c 0,25,26
 343 1351 343 1351 354.5 1353 c 128,-1,27
 366 1355 366 1355 371 1356 c 1,28,-1
 389 1331 l 1,29,30
 356 1282 356 1282 356 1151 c 1,31,-1
 358 1126 l 1,32,-1
 356 1124 l 1,33,34
 350 1063 350 1063 315.5 899.5 c 128,-1,35
 281 736 281 736 281 645 c 0,36,37
 281 611 281 611 334 371.5 c 128,-1,38
 387 132 387 132 396 109.5 c 128,-1,39
 405 87 405 87 412.5 74.5 c 0,40,41
 428 48.6666666667 428 48.6666666667 428 33 c 0,42,43
 428 4 428 4 397 4 c 0,44,45
 383 4 383 4 371 10 c 1,46,47
 359 59 359 59 333 165 c 0,48,49
 278.712446352 386.326180258 278.712446352 386.326180258 256 508 c 1,50,51
 233 474 233 474 211 293.5 c 128,-1,52
 189 113 189 113 174 70 c 1,53,54
 178 62 178 62 178 45 c 0,0,1
391 643 m 1,55,-1
 391 641 l 1,56,-1
 391 643 l 1,55,-1
EndSplineSet
EndChar

StartChar: y
Encoding: 121 121 92
Width: 561
GlyphClass: 2
Flags: HW
LayerCount: 2
Fore
SplineSet
350 442 m 1,0,-1
 352 117 l 2,1,2
 352 -31 352 -31 309 -31 c 0,3,4
 302 -31 302 -31 292 -23 c 128,-1,5
 282 -15 282 -15 279 -8 c 1,6,7
 299 42 299 42 299 350 c 0,8,9
 299 410 299 410 291.5 521 c 128,-1,10
 284 632 284 632 283 666 c 1,11,-1
 270 692 l 1,12,-1
 276 717 l 1,13,14
 250.156626506 777.301204819 250.156626506 777.301204819 179.578313253 975.65060241 c 0,15,16
 78.2132701422 1260.52132701 78.2132701422 1260.52132701 76 1307 c 1,17,-1
 104 1329 l 1,18,19
 124 1326 124 1326 164 1198.5 c 128,-1,20
 204 1071 204 1071 242.5 943 c 128,-1,21
 281 815 281 815 297 811 c 1,22,-1
 305 848 l 1,23,-1
 301 858 l 1,24,25
 316 876 316 876 340.5 1003.5 c 128,-1,26
 365 1131 365 1131 393 1245.5 c 128,-1,27
 421 1360 421 1360 447 1360 c 128,-1,28
 473 1360 473 1360 473 1338 c 128,-1,29
 473 1316 473 1316 451 1238.5 c 128,-1,30
 429 1161 429 1161 410 1097 c 128,-1,31
 391 1033 391 1033 381.5 998 c 128,-1,32
 372 963 372 963 359.5 910 c 0,33,34
 336 810.36 336 810.36 336 723 c 1,35,36
 346 698 346 698 346 688 c 1,37,-1
 334 629 l 1,38,-1
 350 442 l 1,0,-1
EndSplineSet
EndChar

StartChar: z
Encoding: 122 122 93
Width: 538
GlyphClass: 2
Flags: HW
LayerCount: 2
Fore
SplineSet
309 12 m 1,0,-1
 188 18 l 1,1,2
 165 18 165 18 143.5 7 c 128,-1,3
 122 -4 122 -4 115 -4 c 0,4,5
 84 -4 84 -4 84 27 c 0,6,7
 84 61.6666666667 84 61.6666666667 108 148.333333333 c 0,8,9
 167.043478261 361.54589372 167.043478261 361.54589372 191.02173913 478.77294686 c 128,-1,10
 215 596 215 596 229 652 c 128,-1,11
 243 708 243 708 287.5 847.5 c 0,12,13
 387 1159.41573034 387 1159.41573034 387 1303 c 1,14,-1
 195 1290 l 2,15,16
 183 1290 183 1290 174.5 1300.5 c 128,-1,17
 166 1311 166 1311 166 1323 c 0,18,19
 166 1356 166 1356 393 1356 c 0,20,21
 444 1356 444 1356 444 1323 c 0,22,23
 444 1253 444 1253 394 1098.5 c 128,-1,24
 344 944 344 944 344 915 c 1,25,26
 333 859 333 859 281.5 687.5 c 0,27,28
 153.670723519 261.816098707 153.670723519 261.816098707 152 63 c 1,29,30
 172 59 172 59 211 59 c 1,31,-1
 297 66 l 1,32,33
 356 66 356 66 356 39 c 128,-1,34
 356 12 356 12 309 12 c 1,0,-1
EndSplineSet
EndChar

StartChar: braceleft
Encoding: 123 123 94
Width: 696
GlyphClass: 2
Flags: HW
LayerCount: 2
Fore
SplineSet
90 188 m 1,0,-1
 96 403 l 1,1,-1
 104 645 l 1,2,3
 104 734 104 734 45 739 c 1,4,5
 37 742 37 742 37 757.5 c 128,-1,6
 37 773 37 773 53 776 c 1,7,8
 104 776 104 776 104 872 c 1,9,-1
 90 1305 l 1,10,11
 90 1420 90 1420 126 1482 c 128,-1,12
 162 1544 162 1544 221 1544 c 0,13,14
 243 1544 243 1544 271 1533 c 128,-1,15
 299 1522 299 1522 299 1509 c 0,16,17
 299 1487 299 1487 266 1487 c 1,18,-1
 225 1495 l 1,19,20
 152 1495 152 1495 152 1296 c 2,21,-1
 152 1044 l 1,22,-1
 158 887 l 1,23,24
 158 838 158 838 147.5 807 c 128,-1,25
 137 776 137 776 104 758 c 1,26,27
 137 741 137 741 147.5 710.5 c 128,-1,28
 158 680 158 680 158 631 c 1,29,-1
 152 420 l 1,30,-1
 152 197 l 2,31,32
 152 -2 152 -2 225 -2 c 0,33,34
 283.545454545 -2 283.545454545 -2 291.272727273 -10.5 c 128,-1,35
 299 -19 299 -19 299 -29 c 0,36,37
 299 -51 299 -51 230.5 -51 c 128,-1,38
 162 -51 162 -51 126 11 c 128,-1,39
 90 73 90 73 90 188 c 1,0,-1
EndSplineSet
EndChar

StartChar: bar
Encoding: 124 124 95
Width: 514
GlyphClass: 2
Flags: HW
LayerCount: 2
Fore
SplineSet
193 2 m 1,0,-1
 186 -68 l 1,1,2
 186 -88 186 -88 160 -88 c 128,-1,3
 134 -88 134 -88 130.5 -85 c 128,-1,4
 127 -82 127 -82 127 -31.5 c 128,-1,5
 127 19 127 19 139.5 199.5 c 128,-1,6
 152 380 152 380 152 509.5 c 128,-1,7
 152 639 152 639 168 976.5 c 128,-1,8
 184 1314 184 1314 184 1406 c 128,-1,9
 184 1498 184 1498 184.5 1504.5 c 128,-1,10
 185 1511 185 1511 187 1521.5 c 128,-1,11
 189 1532 189 1532 193 1537.5 c 0,12,13
 203.545454545 1552 203.545454545 1552 225 1552 c 0,14,15
 238 1552 238 1552 238 1530 c 0,16,17
 238 1340 238 1340 218.5 951.5 c 128,-1,18
 199 563 199 563 199 353.5 c 128,-1,19
 199 144 199 144 193 51 c 1,20,-1
 193 2 l 1,0,-1
EndSplineSet
EndChar

StartChar: braceright
Encoding: 125 125 96
Width: 696
GlyphClass: 2
Flags: HW
LayerCount: 2
Fore
SplineSet
246 1305 m 1,0,-1
 240 1090 l 1,1,-1
 231 848 l 1,2,3
 231 759 231 759 291 754 c 1,4,5
 299 751 299 751 299 735.5 c 128,-1,6
 299 720 299 720 283 717 c 1,7,8
 231 717 231 717 231 621 c 1,9,-1
 246 188 l 1,10,11
 246 73 246 73 210 11 c 128,-1,12
 174 -51 174 -51 115 -51 c 0,13,14
 90 -51 90 -51 63.5 -43 c 128,-1,15
 37 -35 37 -35 37 -23 c 0,16,17
 37 0 37 0 70 0 c 1,18,-1
 111 -2 l 1,19,20
 184 -2 184 -2 184 197 c 2,21,-1
 184 449 l 1,22,-1
 178 606 l 1,23,24
 178 656 178 656 188 686.5 c 128,-1,25
 198 717 198 717 231 735 c 1,26,27
 198 752 198 752 188 782 c 128,-1,28
 178 812 178 812 178 862 c 1,29,-1
 184 1073 l 1,30,-1
 184 1296 l 2,31,32
 184 1495 184 1495 111 1495 c 2,33,-1
 80 1495 l 2,34,35
 37 1495 37 1495 37 1516 c 0,36,37
 37 1528 37 1528 63.5 1536 c 128,-1,38
 90 1544 90 1544 115 1544 c 0,39,40
 174 1544 174 1544 210 1482 c 128,-1,41
 246 1420 246 1420 246 1305 c 1,0,-1
EndSplineSet
EndChar

StartChar: asciitilde
Encoding: 126 126 97
Width: 653
GlyphClass: 2
Flags: HW
LayerCount: 2
Fore
SplineSet
487 1149 m 1,0,-1
 475 1188 l 1,1,2
 481 1200 481 1200 500.5 1200 c 128,-1,3
 520 1200 520 1200 531.5 1178 c 128,-1,4
 543 1156 543 1156 543 1121.5 c 128,-1,5
 543 1087 543 1087 510 1054.5 c 128,-1,6
 477 1022 477 1022 437 1022 c 128,-1,7
 397 1022 397 1022 360 1043.5 c 128,-1,8
 323 1065 323 1065 304 1084.5 c 128,-1,9
 285 1104 285 1104 252 1143 c 1,10,-1
 238 1149 l 1,11,-1
 201 1149 l 1,12,13
 198 1137 198 1137 180 1124 c 128,-1,14
 162 1111 162 1111 162 1098.5 c 128,-1,15
 162 1086 162 1086 172 1051 c 1,16,-1
 150 1020 l 1,17,18
 137 1020 137 1020 124 1031 c 128,-1,19
 111 1042 111 1042 111 1055 c 0,20,21
 111 1118 111 1118 143 1159 c 128,-1,22
 175 1200 175 1200 236 1200 c 1,23,24
 302 1166 302 1166 317 1155 c 1,25,26
 332 1125 332 1125 357 1100 c 128,-1,27
 382 1075 382 1075 401 1075 c 128,-1,28
 420 1075 420 1075 426 1077 c 1,29,-1
 440 1073 l 1,30,31
 445.322580645 1087.19354839 445.322580645 1087.19354839 460.161290323 1096.09677419 c 0,32,33
 487 1112.2 487 1112.2 487 1149 c 1,0,-1
EndSplineSet
EndChar

StartChar: exclamdown
Encoding: 161 161 98
Width: 329
GlyphClass: 2
Flags: HW
LayerCount: 2
Fore
SplineSet
88 1483 m 1,0,1
 113.842105263 1534.68421053 113.842105263 1534.68421053 147 1538 c 0,2,3
 157 1539 157 1539 160 1548 c 1,4,5
 211 1545 211 1545 211 1495 c 0,6,7
 211 1463 211 1463 195.5 1441 c 128,-1,8
 180 1419 180 1419 155 1419 c 128,-1,9
 130 1419 130 1419 109 1441 c 128,-1,10
 88 1463 88 1463 88 1483 c 1,0,1
150 350 m 1,11,-1
 145 700 l 1,12,-1
 145 1192 l 1,13,14
 147 1200 l 1,15,-1
 174 1200 l 1,16,-1
 168 1190 l 1,17,18
 184 1151 184 1151 184 1069 c 1,19,-1
 182 979 l 1,20,21
 182 815 182 815 203.5 489.5 c 128,-1,22
 225 164 225 164 225 0 c 0,23,24
 225 -27 225 -27 201.5 -27 c 128,-1,25
 178 -27 178 -27 156.5 -9.5 c 128,-1,26
 135 8 135 8 135 29 c 2,27,-1
 150 350 l 1,11,-1
EndSplineSet
EndChar

StartChar: cent
Encoding: 162 162 99
Width: 651
GlyphClass: 2
Flags: HW
LayerCount: 2
Fore
SplineSet
365 221 m 1,0,-1
 371 27 l 2,1,2
 371 15 371 15 362.5 12 c 128,-1,3
 354 9 354 9 346 14 c 128,-1,4
 338 19 338 19 338 25 c 1,5,-1
 334 23 l 1,6,7
 330 137 330 137 330 203 c 2,8,-1
 330 330 l 1,9,10
 213.631578947 376.547368421 213.631578947 376.547368421 185.815789474 402.773684211 c 0,11,12
 130.152173913 455.256521739 130.152173913 455.256521739 121 512 c 1,13,14
 94 632 94 632 94 842 c 0,15,16
 94 1154 94 1154 258 1243 c 1,17,-1
 248 1370 l 1,18,19
 248 1436 248 1436 274 1436 c 1,20,-1
 287 1427 l 1,21,22
 285 1409 285 1409 285 1361.5 c 128,-1,23
 285 1314 285 1314 295 1239 c 1,24,25
 303 1236 303 1236 338 1225 c 128,-1,26
 373 1214 373 1214 401 1204.5 c 128,-1,27
 429 1195 429 1195 453 1176 c 128,-1,28
 477 1157 477 1157 477 1142.5 c 0,29,30
 477 1108 477 1108 459 1108 c 128,-1,31
 441 1108 441 1108 424.5 1132.5 c 128,-1,32
 408 1157 408 1157 402.5 1163 c 128,-1,33
 397 1169 397 1169 372.5 1176.5 c 128,-1,34
 348 1184 348 1184 340 1194 c 1,35,-1
 303 1194 l 1,36,-1
 301 1198 l 1,37,38
 301 1067 301 1067 331.5 814 c 128,-1,39
 362 561 362 561 362 430 c 1,40,-1
 360 401 l 1,41,42
 360 383 360 383 377 369 c 1,43,44
 454.666666667 369 454.666666667 369 504.5 426.5 c 0,45,46
 524 449 524 449 551 489 c 1,47,48
 573 489 573 489 573 450.5 c 128,-1,49
 573 412 573 412 501.5 369 c 128,-1,50
 430 326 430 326 385 326 c 2,51,-1
 367 326 l 1,52,-1
 365 221 l 1,0,-1
162 977 m 1,53,54
 145 837 145 837 145 788 c 0,55,56
 145 397 145 397 307 397 c 1,57,-1
 315 401 l 1,58,59
 315 550 315 550 283 870 c 1,60,61
 270 1085 270 1085 250 1161 c 1,62,63
 211 1155 211 1155 184.5 1074.5 c 128,-1,64
 158 994 158 994 162 977 c 1,53,54
EndSplineSet
EndChar

StartChar: sterling
Encoding: 163 163 100
Width: 757
GlyphClass: 2
Flags: HW
LayerCount: 2
Fore
SplineSet
586 49 m 1,0,-1
 492 55 l 1,1,-1
 485 51 l 1,2,3
 447.058823529 73.7647058824 447.058823529 73.7647058824 340 86 c 2,4,-1
 305 90 l 1,5,6
 249 90 249 90 211.5 76.5 c 128,-1,7
 174 63 174 63 113 27 c 1,8,9
 82 33 82 33 82 50 c 128,-1,10
 82 67 82 67 104 83.5 c 128,-1,11
 126 100 126 100 159.5 115 c 128,-1,12
 193 130 193 130 201 135 c 0,13,14
 238 162 238 162 255 237.5 c 128,-1,15
 272 313 272 313 272 385 c 128,-1,16
 272 457 272 457 254 541 c 128,-1,17
 236 625 236 625 204 731 c 128,-1,18
 172 837 172 837 160 889 c 1,19,-1
 150 887 l 1,20,21
 139 887 139 887 130 894.5 c 128,-1,22
 121 902 121 902 121 915 c 0,23,24
 121 944 121 944 147 944 c 1,25,-1
 123 1235 l 1,26,27
 123 1318.58333333 123 1318.58333333 140.5 1416.29166667 c 0,28,29
 174.47761194 1606 174.47761194 1606 244 1606 c 2,30,-1
 309 1606 l 2,31,32
 353 1606 353 1606 403 1526 c 128,-1,33
 453 1446 453 1446 453 1399 c 1,34,-1
 434 1378 l 1,35,36
 408.411764706 1378 408.411764706 1378 398.705882353 1400 c 128,-1,37
 389 1422 389 1422 387 1425 c 1,38,-1
 387 1462 l 1,39,40
 383 1467 383 1467 373.5 1498.5 c 128,-1,41
 364 1530 364 1530 346 1530 c 1,42,43
 315 1561 315 1561 283 1561 c 1,44,-1
 266 1554 l 1,45,-1
 250 1540 l 1,46,47
 219 1540 219 1540 196.5 1431.5 c 128,-1,48
 174 1323 174 1323 174 1268 c 2,49,-1
 174 1184 l 1,50,51
 185 1157 185 1157 186.5 1096.5 c 128,-1,52
 188 1036 188 1036 190.5 993 c 128,-1,53
 193 950 193 950 207 950 c 0,54,55
 243 950 243 950 314.5 963.5 c 128,-1,56
 386 977 386 977 409.5 977 c 0,57,58
 451 977 451 977 451 950 c 0,59,60
 451 918 451 918 426 918 c 0,61,62
 305 918 305 918 207 899 c 1,63,64
 213 885 213 885 217.5 858.5 c 128,-1,65
 222 832 222 832 223 827 c 128,-1,66
 224 822 224 822 232 801 c 128,-1,67
 240 780 240 780 240 772 c 0,68,69
 240 717 240 717 281 584 c 128,-1,70
 322 451 322 451 322 392 c 128,-1,71
 322 333 322 333 315 299 c 128,-1,72
 308 265 308 265 289.5 213 c 128,-1,73
 271 161 271 161 266 143 c 1,74,75
 316 143 316 143 414.5 120.5 c 128,-1,76
 513 98 513 98 563 98 c 128,-1,77
 613 98 613 98 653 115 c 1,78,-1
 682 94 l 1,79,80
 682 49 682 49 586 49 c 1,0,-1
EndSplineSet
EndChar

StartChar: currency
Encoding: 164 164 101
Width: 868
GlyphClass: 2
Flags: HW
LayerCount: 2
Fore
SplineSet
383 1264 m 0,0,1
 495.846153846 1264 495.846153846 1264 604 1190 c 1,2,3
 617 1192 617 1192 638 1226.5 c 128,-1,4
 659 1261 659 1261 684 1295 c 128,-1,5
 709 1329 709 1329 733 1329 c 1,6,-1
 762 1298 l 1,7,8
 760 1282 760 1282 714 1224 c 128,-1,9
 668 1166 668 1166 668 1150 c 128,-1,10
 668 1134 668 1134 713 995.5 c 128,-1,11
 758 857 758 857 758 771.5 c 0,12,13
 758 658.944444444 758 658.944444444 708 489.5 c 0,14,15
 690 428.5 690 428.5 690 397.75 c 128,-1,16
 690 367 690 367 709.5 337 c 128,-1,17
 729 307 729 307 748.5 284 c 128,-1,18
 768 261 768 261 768 248 c 0,19,20
 768 219 768 219 741 219 c 0,21,22
 686 219 686 219 686 258 c 1,23,24
 647 328 647 328 643 334 c 1,25,26
 550 231 550 231 399 231 c 0,27,28
 351 231 351 231 302.5 258.5 c 128,-1,29
 254 286 254 286 219 326 c 1,30,31
 207 326 207 326 195.5 301 c 0,32,33
 161.46 227 161.46 227 131 227 c 0,34,35
 107 227 107 227 98.5 240 c 128,-1,36
 90 253 90 253 90 279 c 0,37,38
 90 283 90 283 132 329 c 128,-1,39
 174 375 174 375 180 395 c 1,40,41
 145 451.875 145 451.875 145 555.4375 c 128,-1,42
 145 659 145 659 150 747 c 128,-1,43
 155 835 155 835 173 940 c 128,-1,44
 191 1045 191 1045 219 1075 c 1,45,46
 219 1097 219 1097 170 1148.5 c 128,-1,47
 121 1200 121 1200 121 1212 c 0,48,49
 121 1235 121 1235 144.5 1235 c 128,-1,50
 168 1235 168 1235 186.5 1219 c 128,-1,51
 205 1203 205 1203 223 1176.5 c 128,-1,52
 241 1150 241 1150 252 1141 c 1,53,54
 260 1147 260 1147 290 1179 c 0,55,56
 369.6875 1264 369.6875 1264 383 1264 c 0,0,1
313 1075 m 1,57,58
 313 1030.32 313 1030.32 283.5 1031.5 c 0,59,60
 271 1032 271 1032 266 1024 c 0,61,62
 248 998 248 998 229.5 872.5 c 128,-1,63
 211 747 211 747 211 715 c 128,-1,64
 211 683 211 683 215 659 c 1,65,66
 209 634 209 634 209 580.5 c 0,67,68
 209 460.181818182 209 460.181818182 262 412 c 1,69,70
 262 346 262 346 313.5 314.5 c 128,-1,71
 365 283 365 283 426 283 c 128,-1,72
 487 283 487 283 528 308.5 c 128,-1,73
 569 334 569 334 595 377.5 c 128,-1,74
 621 421 621 421 640 472.5 c 128,-1,75
 659 524 659 524 668.5 582.5 c 0,76,77
 686 690.263157895 686 690.263157895 686 768.131578947 c 128,-1,78
 686 846 686 846 665 960 c 128,-1,79
 644 1074 644 1074 612 1094 c 1,80,81
 594 1094 594 1094 583.5 1108 c 128,-1,82
 573 1122 573 1122 573 1141 c 1,83,84
 552 1170 552 1170 510 1187 c 128,-1,85
 468 1204 468 1204 434 1204 c 128,-1,86
 400 1204 400 1204 349 1162.5 c 128,-1,87
 298 1121 298 1121 295 1094 c 1,88,-1
 313 1075 l 1,57,58
EndSplineSet
EndChar

StartChar: yen
Encoding: 165 165 102
Width: 942
GlyphClass: 2
Flags: HW
LayerCount: 2
Fore
SplineSet
510 143 m 1,0,-1
 512 90 l 1,1,2
 512 16 512 16 465 16 c 0,3,4
 424 16 424 16 424 41 c 1,5,6
 430 53 430 53 440.5 165.5 c 128,-1,7
 451 278 451 278 451 307 c 2,8,-1
 467 774 l 2,9,10
 467 785 467 785 463 797 c 1,11,12
 365 797 365 797 207 786 c 1,13,14
 188 797 188 797 172 825 c 1,15,-1
 180 852 l 1,16,17
 342 852 342 852 473 860 c 1,18,19
 477 891 477 891 477 954 c 0,20,21
 477 981 477 981 455 981 c 1,22,-1
 307 973 l 1,23,24
 193 973 193 973 193 1010 c 1,25,-1
 207 1032 l 1,26,-1
 367 1030 l 1,27,28
 465 1030 465 1030 477 1044 c 1,29,-1
 477 1083 l 1,30,31
 453 1097 453 1097 377 1234.5 c 128,-1,32
 301 1372 301 1372 212.5 1523.5 c 128,-1,33
 124 1675 124 1675 74 1716 c 1,34,-1
 74 1747 l 1,35,36
 98 1755 98 1755 105.5 1755 c 128,-1,37
 113 1755 113 1755 135.5 1733.5 c 128,-1,38
 158 1712 158 1712 184 1676.5 c 128,-1,39
 210 1641 210 1641 232 1608.5 c 128,-1,40
 254 1576 254 1576 277 1540 c 128,-1,41
 300 1504 300 1504 305 1497 c 1,42,43
 306.619158879 1479.18925234 306.619158879 1479.18925234 346.309579439 1420.09462617 c 128,-1,44
 386 1361 386 1361 389 1355.5 c 128,-1,45
 392 1350 392 1350 406.5 1323 c 128,-1,46
 421 1296 421 1296 432.5 1275.5 c 128,-1,47
 444 1255 444 1255 460 1228.5 c 0,48,49
 493.463126844 1173.07669617 493.463126844 1173.07669617 508 1171 c 1,50,51
 530 1215 530 1215 546.5 1270 c 128,-1,52
 563 1325 563 1325 581.5 1386.5 c 128,-1,53
 600 1448 600 1448 618 1505.5 c 128,-1,54
 636 1563 636 1563 656.5 1627.5 c 0,55,56
 700.901345291 1767.20179372 700.901345291 1767.20179372 717.450672646 1788.60089686 c 128,-1,57
 734 1810 734 1810 751 1810 c 0,58,59
 788 1810 788 1810 788 1780 c 1,60,61
 748 1686 748 1686 695 1503 c 128,-1,62
 642 1320 642 1320 614 1245 c 1,63,64
 614 1207 614 1207 582 1142 c 128,-1,65
 550 1077 550 1077 549 1047 c 1,66,67
 575 1034 575 1034 600 1034 c 1,68,-1
 821 1044 l 2,69,70
 832 1044 832 1044 858 1001 c 1,71,72
 856 975 856 975 707 975 c 2,73,-1
 549 975 l 1,74,-1
 545 864 l 1,75,-1
 772 864 l 1,76,-1
 811 866 l 1,77,78
 854 866 854 866 854 821 c 0,79,80
 854 810 854 810 841 800.5 c 128,-1,81
 828 791 828 791 817 791 c 2,82,-1
 809 791 l 1,83,-1
 813 793 l 1,84,85
 783 801 783 801 776 801 c 2,86,-1
 549 801 l 1,87,-1
 541 797 l 1,88,89
 541 688 541 688 525.5 470.5 c 128,-1,90
 510 253 510 253 510 143 c 1,0,-1
EndSplineSet
EndChar

StartChar: brokenbar
Encoding: 166 166 103
Width: 514
GlyphClass: 2
Flags: HW
LayerCount: 2
Fore
SplineSet
238 1530 m 2,0,-1
 227 1214 l 1,1,2
 227 1057 227 1057 221 997 c 1,3,-1
 221 948 l 1,4,-1
 215 879 l 1,5,6
 215 858 215 858 196.5 858 c 128,-1,7
 178 858 178 858 174 861 c 128,-1,8
 170 864 170 864 170 874 c 2,9,-1
 184 1487 l 2,10,11
 184 1525.125 184 1525.125 190.5 1534.0625 c 0,12,13
 203.545454545 1552 203.545454545 1552 225 1552 c 0,14,15
 238 1552 238 1552 238 1530 c 2,0,-1
213 604 m 2,16,-1
 203 268 l 1,17,18
 203 140 203 140 197 92 c 1,19,-1
 197 43 l 1,20,-1
 190 -27 l 1,21,22
 190 -44.8333333333 190 -44.8333333333 183.5 -45.9166666667 c 128,-1,23
 177 -47 177 -47 164.5 -47 c 128,-1,24
 152 -47 152 -47 148.5 -44 c 128,-1,25
 145 -41 145 -41 145 -31 c 2,26,-1
 156 369 l 1,27,-1
 160 561 l 1,28,29
 160 609.947368421 160 609.947368421 173.5 618.473684211 c 128,-1,30
 187 627 187 627 197 627 c 128,-1,31
 207 627 207 627 209 626 c 0,32,33
 213 624 213 624 213 604 c 2,16,-1
EndSplineSet
EndChar

StartChar: section
Encoding: 167 167 104
Width: 489
GlyphClass: 2
Flags: HW
LayerCount: 2
Fore
SplineSet
303 1305 m 1,0,-1
 260 1317 l 1,1,2
 228 1317 228 1317 204 1291.5 c 128,-1,3
 180 1266 180 1266 167.5 1228 c 0,4,5
 143 1153.52 143 1153.52 143 1082.26 c 128,-1,6
 143 1011 143 1011 176.5 949.5 c 128,-1,7
 210 888 210 888 254 826.5 c 128,-1,8
 298 765 298 765 324 730.5 c 0,9,10
 389 644.25 389 644.25 389 537.625 c 128,-1,11
 389 431 389 431 342 354 c 1,12,13
 373 287 373 287 373 236.5 c 128,-1,14
 373 186 373 186 363.5 141 c 128,-1,15
 354 96 354 96 336 50 c 128,-1,16
 318 4 318 4 285 -26.5 c 128,-1,17
 252 -57 252 -57 220 -57 c 128,-1,18
 188 -57 188 -57 160.5 -39.5 c 128,-1,19
 133 -22 133 -22 133 0 c 0,20,21
 133 16 133 16 160 16 c 1,22,-1
 203 4 l 1,23,24
 285.482758621 4 285.482758621 4 313 137 c 0,25,26
 319 166 319 166 319 217.5 c 128,-1,27
 319 269 319 269 286.5 333.5 c 128,-1,28
 254 398 254 398 209 466 c 128,-1,29
 164 534 164 534 138 572 c 0,30,31
 74 665.538461538 74 665.538461538 74 777.769230769 c 128,-1,32
 74 890 74 890 119 961 c 1,33,34
 90 1027 90 1027 90 1081 c 128,-1,35
 90 1135 90 1135 99.5 1180 c 128,-1,36
 109 1225 109 1225 127 1271 c 128,-1,37
 145 1317 145 1317 178 1347.5 c 128,-1,38
 211 1378 211 1378 243 1378 c 128,-1,39
 275 1378 275 1378 302.5 1360.5 c 128,-1,40
 330 1343 330 1343 330 1321 c 0,41,42
 330 1305 330 1305 303 1305 c 1,0,-1
309 391 m 1,43,44
 336 454 336 454 336 514 c 128,-1,45
 336 574 336 574 316 628.5 c 128,-1,46
 296 683 296 683 272.5 719 c 128,-1,47
 249 755 249 755 210 810 c 128,-1,48
 171 865 171 865 152 897 c 1,49,50
 127 836 127 836 127 771.5 c 128,-1,51
 127 707 127 707 146.5 653 c 128,-1,52
 166 599 166 599 188.5 564.5 c 128,-1,53
 211 530 211 530 250.5 475.5 c 128,-1,54
 290 421 290 421 309 391 c 1,43,44
EndSplineSet
EndChar

StartChar: dieresis
Encoding: 168 168 105
Width: 776
GlyphClass: 2
Flags: HW
LayerCount: 2
Fore
SplineSet
583.5 993.5 m 128,-1,1
 571 1008 571 1008 571 1025.5 c 128,-1,2
 571 1043 571 1043 586.5 1059 c 128,-1,3
 602 1075 602 1075 620 1075 c 128,-1,4
 638 1075 638 1075 652 1058.5 c 128,-1,5
 666 1042 666 1042 666 1026 c 0,6,7
 666 979 666 979 612 979 c 0,8,0
 596 979 596 979 583.5 993.5 c 128,-1,1
201 1006 m 0,9,10
 201 1073 201 1073 160 1073 c 0,11,12
 142 1073 142 1073 126.5 1056.5 c 128,-1,13
 111 1040 111 1040 111 1022.5 c 128,-1,14
 111 1005 111 1005 122 988 c 128,-1,15
 133 971 133 971 150.5 971 c 128,-1,16
 168 971 168 971 184.5 980 c 128,-1,17
 201 989 201 989 201 1006 c 0,9,10
EndSplineSet
EndChar

StartChar: copyright
Encoding: 169 169 106
Width: 1157
GlyphClass: 2
Flags: HW
LayerCount: 2
Fore
SplineSet
120 503 m 0,0,1
 117 540 117 540 107.5 705 c 128,-1,2
 98 870 98 870 98 929.5 c 128,-1,3
 98 989 98 989 101.5 1056 c 128,-1,4
 105 1123 105 1123 116.5 1211 c 128,-1,5
 128 1299 128 1299 146.5 1376.5 c 128,-1,6
 165 1454 165 1454 197.5 1531 c 128,-1,7
 230 1608 230 1608 272.5 1663.5 c 0,8,9
 367.837837838 1788 367.837837838 1788 516 1788 c 0,10,11
 677.259259259 1788 677.259259259 1788 788 1673 c 0,12,13
 897.712622772 1559.06766097 897.712622772 1559.06766097 955.5 1395.5 c 0,14,15
 1018.23411591 1217.93055328 1018.23411591 1217.93055328 1036.11705795 1093.46527664 c 0,16,17
 1065 892.44 1065 892.44 1065 756 c 0,18,19
 1065 2 1065 2 565 2 c 0,20,21
 300 2 300 2 200 173 c 0,22,23
 137 279 137 279 120 503 c 0,0,1
975 475 m 1,24,-1
 997 588 l 1,25,-1
 997 893 l 2,26,27
 997 939 997 939 978.5 1026.5 c 128,-1,28
 960 1114 960 1114 958 1124 c 0,29,30
 894 1524 894 1524 672 1677 c 1,31,32
 662 1687 662 1687 652 1692 c 128,-1,33
 642 1697 642 1697 632 1704 c 128,-1,34
 622 1711 622 1711 617.5 1713.5 c 128,-1,35
 613 1716 613 1716 603.5 1721 c 128,-1,36
 594 1726 594 1726 588 1728 c 128,-1,37
 582 1730 582 1730 573.5 1732.5 c 0,38,39
 558.2 1737 558.2 1737 541 1737 c 0,40,41
 301 1737 301 1737 212.5 1353.5 c 0,42,43
 170 1169.33333333 170 1169.33333333 170 940 c 0,44,45
 170 857.6 170 857.6 178 744.8 c 128,-1,46
 186 632 186 632 189 578 c 128,-1,47
 192 524 192 524 195 486 c 128,-1,48
 198 448 198 448 208 382.5 c 128,-1,49
 218 317 218 317 231.5 279 c 128,-1,50
 245 241 245 241 271 193 c 128,-1,51
 297 145 297 145 332 119.5 c 0,52,53
 417.784313725 57 417.784313725 57 527.892156863 57 c 128,-1,54
 638 57 638 57 713.5 85.5 c 128,-1,55
 789 114 789 114 839.5 170.5 c 0,56,57
 931.603917755 273.546957488 931.603917755 273.546957488 977 465 c 1,58,59
 975 469 975 469 975 475 c 1,24,-1
731 1380 m 128,-1,61
 788 1303 788 1303 788 1275 c 128,-1,62
 788 1247 788 1247 762 1247 c 0,63,64
 726.032258065 1247 726.032258065 1247 689 1329 c 0,65,66
 675 1360 675 1360 646.5 1385.5 c 128,-1,67
 618 1411 618 1411 577 1411 c 128,-1,68
 536 1411 536 1411 503 1382 c 128,-1,69
 470 1353 470 1353 452 1312 c 128,-1,70
 434 1271 434 1271 421.5 1210.5 c 128,-1,71
 409 1150 409 1150 404.5 1102.5 c 128,-1,72
 400 1055 400 1055 396 996.5 c 128,-1,73
 392 938 392 938 389 918 c 1,74,-1
 393 909 l 1,75,76
 385 882 385 882 385 849.5 c 2,77,-1
 385 806 l 2,78,79
 385 573.709677419 385 573.709677419 407.5 501.85483871 c 128,-1,80
 430 430 430 430 455 397 c 1,81,-1
 455 391 l 1,82,83
 479 364 479 364 492 351.5 c 128,-1,84
 505 339 505 339 534.5 324 c 128,-1,85
 564 309 564 309 600 309 c 128,-1,86
 636 309 636 309 669 326 c 128,-1,87
 702 343 702 343 719 363.5 c 0,88,89
 764.195121951 418 764.195121951 418 778 418 c 0,90,91
 809 418 809 418 809 372.5 c 128,-1,92
 809 327 809 327 733.5 288.5 c 128,-1,93
 658 250 658 250 619 250 c 128,-1,94
 580 250 580 250 554.5 256 c 128,-1,95
 529 262 529 262 514 268.5 c 128,-1,96
 499 275 499 275 470.5 290 c 128,-1,97
 442 305 442 305 428 311 c 1,98,99
 346.528216704 412.83972912 346.528216704 412.83972912 326.5 543.5 c 0,100,101
 311 644.619047619 311 644.619047619 311 741.80952381 c 2,102,-1
 311 864.5 l 2,103,104
 311 1002.61111111 311 1002.61111111 326.5 1106.80555556 c 128,-1,105
 342 1211 342 1211 354.5 1251.5 c 128,-1,106
 367 1292 367 1292 387 1338 c 128,-1,107
 407 1384 407 1384 432.5 1412 c 0,108,109
 491.696428571 1477 491.696428571 1477 571 1477 c 0,110,111
 615 1477 615 1477 644.5 1467 c 128,-1,60
 674 1457 674 1457 731 1380 c 128,-1,61
EndSplineSet
EndChar

StartChar: guillemotleft
Encoding: 171 171 107
Width: 741
GlyphClass: 2
Flags: HW
LayerCount: 2
Fore
SplineSet
488.5 -28 m 128,-1,1
 473 -35 473 -35 464 -35 c 128,-1,2
 455 -35 455 -35 443 -21.5 c 128,-1,3
 431 -8 431 -8 417 15.5 c 128,-1,4
 403 39 403 39 393 57.5 c 128,-1,5
 383 76 383 76 371 101 c 128,-1,6
 359 126 359 126 347 148.5 c 128,-1,7
 335 171 335 171 297 244.5 c 128,-1,8
 259 318 259 318 206.5 422 c 0,9,10
 82 668.628571429 82 668.628571429 82 689.314285714 c 128,-1,11
 82 710 82 710 139.5 854.5 c 128,-1,12
 197 999 197 999 264 1164 c 128,-1,13
 331 1329 331 1329 342 1358 c 1,14,-1
 342 1360 l 1,15,16
 382 1466 382 1466 399 1466 c 0,17,18
 437 1466 437 1466 440 1438 c 1,19,20
 409.6875 1392.53125 409.6875 1392.53125 382.34375 1320.265625 c 128,-1,21
 355 1248 355 1248 329 1181 c 128,-1,22
 303 1114 303 1114 230.5 912.5 c 128,-1,23
 158 711 158 711 145 692 c 1,24,25
 149.803823774 618.3413688 149.803823774 618.3413688 415.5 156 c 0,26,27
 504 2 504 2 504 -9.5 c 128,-1,0
 504 -21 504 -21 488.5 -28 c 128,-1,1
385 1462 m 1,28,-1
 383 1462 l 1,29,-1
 385 1462 l 1,28,-1
633 0 m 1,30,-1
 606 4 l 1,31,-1
 602 4 l 1,32,33
 570.26458616 50.7679782904 570.26458616 50.7679782904 533.13229308 134.883989145 c 128,-1,34
 496 219 496 219 485 242 c 2,35,-1
 383 455 l 2,36,37
 378 466 378 466 361.5 498.5 c 128,-1,38
 345 531 345 531 338 549 c 0,39,40
 332 567 332 567 294 617.5 c 128,-1,41
 256 668 256 668 256 695.5 c 128,-1,42
 256 723 256 723 304 837 c 128,-1,43
 352 951 352 951 409.5 1080.5 c 128,-1,44
 467 1210 467 1210 474 1231.5 c 128,-1,45
 481 1253 481 1253 490.5 1287 c 128,-1,46
 500 1321 500 1321 508 1346 c 0,47,48
 530.80239521 1417.25748503 530.80239521 1417.25748503 557 1421 c 1,49,-1
 584 1401 l 1,50,51
 565.956521739 1281.91304348 565.956521739 1281.91304348 444.5 1039 c 0,52,53
 328 806 328 806 328 700 c 0,54,55
 328 683 328 683 469 395.5 c 128,-1,56
 610 108 610 108 643 53 c 1,57,-1
 662 39 l 1,58,59
 660 28 660 28 651 14 c 128,-1,60
 642 0 642 0 633 0 c 1,30,-1
EndSplineSet
EndChar

StartChar: logicalnot
Encoding: 172 172 108
Width: 497
GlyphClass: 2
Flags: HW
LayerCount: 2
Fore
SplineSet
449 766 m 1,0,-1
 440 700 l 1,1,2
 440 583 440 583 441 548 c 0,3,4
 442.428571429 498 442.428571429 498 416 498 c 0,5,6
 405 498 405 498 393 508 c 128,-1,7
 381 518 381 518 381 528 c 2,8,9
 375 727 l 2,10,11
 375 735 375 735 366 737 c 128,-1,12
 357 739 357 739 324 739 c 2,13,-1
 291 739 l 1,14,-1
 164 733 l 1,15,-1
 2 733 l 2,16,17
 3 733 3 733 1 738.5 c 0,18,19
 -6 757.75 -6 757.75 -6 769.875 c 128,-1,20
 -6 782 -6 782 8 782 c 2,21,-1
 143 791 l 1,22,-1
 334 797 l 1,23,24
 381 797 381 797 401 801 c 1,25,26
 449 795.352941176 449 795.352941176 449 766 c 1,0,-1
EndSplineSet
EndChar

StartChar: uni00AD
Encoding: 173 173 109
Width: 620
GlyphClass: 2
Flags: HW
LayerCount: 2
Fore
SplineSet
508 739 m 0,0,1
 508 732 508 732 375.5 726.5 c 128,-1,2
 243 721 243 721 192 721 c 0,3,4
 141 721 141 721 127 730.5 c 128,-1,5
 113 740 113 740 113 756 c 0,6,7
 113 763 113 763 247 768.5 c 128,-1,8
 381 774 381 774 463 774 c 0,9,10
 478 774 478 774 493 763.5 c 128,-1,11
 508 753 508 753 508 739 c 0,0,1
EndSplineSet
EndChar

StartChar: registered
Encoding: 174 174 110
Width: 1161
GlyphClass: 2
Flags: HW
LayerCount: 2
Fore
SplineSet
102 715 m 1,0,1
 104 985 l 1,2,3
 104 1915 104 1915 606 1915 c 0,4,5
 687 1915 687 1915 768 1862 c 128,-1,6
 849 1809 849 1809 901 1735 c 1,7,8
 933.170403587 1725.53811659 933.170403587 1725.53811659 941 1689 c 0,9,10
 949.39516129 1649.82258065 949.39516129 1649.82258065 969 1632 c 1,11,12
 969 1588.04761905 969 1588.04761905 1007 1374.52380952 c 0,13,14
 1065 1048.61904762 1065 1048.61904762 1065 920 c 2,15,-1
 1065 854 l 2,16,17
 1065 533.428571429 1065 533.428571429 1050 427.714285714 c 128,-1,18
 1035 322 1035 322 1019 237.5 c 0,19,20
 986.907881676 68.0135000993 986.907881676 68.0135000993 910.453940838 -10.4932499504 c 128,-1,21
 834 -89 834 -89 767 -127.5 c 128,-1,22
 700 -166 700 -166 616 -166 c 128,-1,23
 532 -166 532 -166 467 -147 c 128,-1,24
 402 -128 402 -128 353.5 -96.5 c 128,-1,25
 305 -65 305 -65 266.5 -16.5 c 128,-1,26
 228 32 228 32 202 83 c 128,-1,27
 176 134 176 134 157 201 c 128,-1,28
 138 268 138 268 127.5 327 c 128,-1,29
 117 386 117 386 111 460 c 0,30,31
 102 571 102 571 102 715 c 1,0,1
172 1042 m 1,32,-1
 186 616 l 1,33,34
 186 64.9887640449 186 64.9887640449 388.5 -46.5 c 0,35,36
 433 -71 433 -71 446 -84 c 1,37,38
 481 -98 481 -98 514 -98 c 1,39,-1
 532 -106 l 1,40,41
 791.516129032 -106 791.516129032 -106 907.5 123.5 c 0,42,43
 997 300.595744681 997 300.595744681 997 707 c 0,44,45
 997 1295 997 1295 874 1651 c 1,46,-1
 889 1667 l 1,47,48
 869 1717 869 1717 831 1731 c 1,49,50
 794 1770 794 1770 769.5 1791.5 c 0,51,52
 697.139534884 1855 697.139534884 1855 619.069767442 1855 c 128,-1,53
 541 1855 541 1855 474.5 1825 c 128,-1,54
 408 1795 408 1795 362.5 1745.5 c 128,-1,55
 317 1696 317 1696 282 1626 c 128,-1,56
 247 1556 247 1556 226.5 1484.5 c 128,-1,57
 206 1413 206 1413 193.5 1330 c 0,58,59
 172 1187.24 172 1187.24 172 1042 c 1,32,-1
465 913 m 1,60,61
 459 835 459 835 459 766.5 c 128,-1,62
 459 698 459 698 481.5 504 c 128,-1,63
 504 310 504 310 504 249.5 c 128,-1,64
 504 189 504 189 497.5 178.5 c 128,-1,65
 491 168 491 168 471 168 c 128,-1,66
 451 168 451 168 436.5 179 c 128,-1,67
 422 190 422 190 422 209 c 0,68,69
 422 385 422 385 417 442 c 128,-1,70
 412 499 412 499 399.5 568.5 c 128,-1,71
 387 638 387 638 387 676 c 2,72,-1
 387 1075 l 2,73,74
 387 1138 387 1138 374.5 1262.5 c 128,-1,75
 362 1387 362 1387 362 1446 c 128,-1,76
 362 1505 362 1505 373 1537 c 128,-1,77
 384 1569 384 1569 410 1585.5 c 0,78,79
 451.757575758 1612 451.757575758 1612 526.878787879 1612 c 128,-1,80
 602 1612 602 1612 638 1597.5 c 128,-1,81
 674 1583 674 1583 696.5 1556 c 128,-1,82
 719 1529 719 1529 734 1498 c 128,-1,83
 749 1467 749 1467 756 1425 c 0,84,85
 768 1353 768 1353 768 1277 c 128,-1,86
 768 1201 768 1201 753.5 1150.5 c 128,-1,87
 739 1100 739 1100 718.5 1074.5 c 128,-1,88
 698 1049 698 1049 677 1031.5 c 128,-1,89
 656 1014 656 1014 641.5 999.5 c 128,-1,90
 627 985 627 985 627 968 c 128,-1,91
 627 951 627 951 673 782 c 0,92,93
 806.644970414 291 806.644970414 291 815 291 c 1,94,-1
 815 289 l 1,95,-1
 846 199 l 1,96,97
 846 184 846 184 807 168 c 1,98,99
 747.424242424 168 747.424242424 168 680.5 483.5 c 0,100,101
 670 533 670 533 660.5 562 c 128,-1,102
 651 591 651 591 626 696 c 0,103,104
 567.904761905 940 567.904761905 940 553 940 c 0,105,106
 537 940 537 940 510.5 926.5 c 128,-1,107
 484 913 484 913 465 913 c 1,60,61
438 1415 m 0,108,109
 438 975 438 975 472.5 975 c 128,-1,110
 507 975 507 975 584.5 1038.5 c 128,-1,111
 662 1102 662 1102 677 1147 c 128,-1,112
 692 1192 692 1192 692 1246 c 128,-1,113
 692 1300 692 1300 691.5 1317 c 128,-1,114
 691 1334 691 1334 688.5 1366.5 c 128,-1,115
 686 1399 686 1399 681.5 1420 c 128,-1,116
 677 1441 677 1441 667.5 1467.5 c 128,-1,117
 658 1494 658 1494 644.5 1510 c 0,118,119
 612.4375 1548 612.4375 1548 546.71875 1548 c 128,-1,120
 481 1548 481 1548 459.5 1522.5 c 128,-1,121
 438 1497 438 1497 438 1415 c 0,108,109
EndSplineSet
EndChar

StartChar: macron
Encoding: 175 175 111
Width: 620
GlyphClass: 2
Flags: HW
LayerCount: 2
Fore
SplineSet
507 716.5 m 128,-1,1
 506 702 506 702 377 702 c 0,2,3
 299.5 702 299.5 702 254.25 702 c 128,-1,4
 209 702 209 702 188 703 c 128,-1,5
 167 704 167 704 156.5 706 c 128,-1,6
 146 708 146 708 134 711.5 c 0,7,8
 113 717.625 113 717.625 113 735 c 1,9,10
 115 752 115 752 244 752 c 2,11,-1
 360 752 l 2,12,13
 478 752 478 752 493 741.5 c 128,-1,0
 508 731 508 731 507 716.5 c 128,-1,1
EndSplineSet
EndChar

StartChar: degree
Encoding: 176 176 112
Width: 868
GlyphClass: 2
Flags: HW
LayerCount: 2
Fore
SplineSet
313.5 1213.5 m 128,-1,1
 301 1167 301 1167 301 1126 c 128,-1,2
 301 1085 301 1085 337 1044.5 c 128,-1,3
 373 1004 373 1004 421.5 1004 c 128,-1,4
 470 1004 470 1004 501 1022 c 128,-1,5
 532 1040 532 1040 546.5 1068.5 c 0,6,7
 573 1120.5862069 573 1120.5862069 573 1180.29310345 c 128,-1,8
 573 1240 573 1240 531.5 1285.5 c 128,-1,9
 490 1331 490 1331 418 1331 c 0,10,11
 381 1331 381 1331 353.5 1295.5 c 128,-1,0
 326 1260 326 1260 313.5 1213.5 c 128,-1,1
305.5 1024 m 128,-1,13
 256 1083 256 1083 256 1134 c 128,-1,14
 256 1185 256 1185 271 1238.5 c 128,-1,15
 286 1292 286 1292 323 1335 c 128,-1,16
 360 1378 360 1378 428 1378 c 128,-1,17
 496 1378 496 1378 554 1323 c 128,-1,18
 612 1268 612 1268 612 1190 c 0,19,20
 612 965 612 965 422 965 c 0,21,12
 355 965 355 965 305.5 1024 c 128,-1,13
EndSplineSet
EndChar

StartChar: plusminus
Encoding: 177 177 113
Width: 620
GlyphClass: 2
Flags: HW
LayerCount: 2
Fore
SplineSet
541 236 m 0,0,1
 541 229 541 229 407 223 c 128,-1,2
 273 217 273 217 223 217 c 128,-1,3
 173 217 173 217 159 226.5 c 128,-1,4
 145 236 145 236 145 252 c 0,5,6
 145 259 145 259 279.5 264.5 c 128,-1,7
 414 270 414 270 462.5 270 c 0,8,9
 541 270 541 270 541 236 c 0,0,1
401 389 m 0,10,11
 401 356 401 356 358 356 c 0,12,13
 346 356 346 356 330.5 365 c 128,-1,14
 315 374 315 374 315 385 c 2,15,-1
 315 449 l 1,16,-1
 319 555 l 1,17,18
 319 615.321428571 319 615.321428571 290 620.5 c 0,19,20
 276 623 276 623 250 623 c 1,21,22
 160 612 l 1,23,24
 100 612 100 612 100 655 c 0,25,26
 100 684 100 684 123 684 c 1,27,-1
 231 678 l 1,28,29
 315 678 315 678 315 694 c 2,30,-1
 305 899 l 1,31,32
 305 923 305 923 313.5 933.5 c 128,-1,33
 322 944 322 944 346 944 c 0,34,35
 383 944 383 944 383 909 c 1,36,-1
 375 889 l 1,37,-1
 383 727 l 1,38,39
 383 698 383 698 396.5 688 c 128,-1,40
 410 678 410 678 440 678 c 1,41,-1
 563 684 l 1,42,43
 627 684 627 684 627 649 c 128,-1,44
 627 614 627 614 592 614 c 1,45,-1
 467 621 l 1,46,47
 402 621 402 621 396 610.5 c 0,48,49
 383 587.75 383 587.75 383 551.875 c 128,-1,50
 383 516 383 516 392 466 c 128,-1,51
 401 416 401 416 401 389 c 0,10,11
EndSplineSet
EndChar

StartChar: uni00B2
Encoding: 178 178 114
Width: 571
GlyphClass: 2
Flags: HW
LayerCount: 2
Fore
SplineSet
428 2 m 1,0,-1
 129 -16 l 1,1,2
 109 -16 109 -16 93.5 -5 c 128,-1,3
 78 6 78 6 78 25 c 1,4,5
 113 69 113 69 147 164.5 c 128,-1,6
 181 260 181 260 188 274 c 0,7,8
 305 530 305 530 363.5 762 c 128,-1,9
 422 994 422 994 422 1249 c 0,10,11
 422 1544 422 1544 295 1544 c 1,12,13
 266.886764609 1531.76486358 266.886764609 1531.76486358 250.443382304 1501.38243179 c 128,-1,14
 234 1471 234 1471 230.5 1441.5 c 0,15,16
 221.542372881 1366 221.542372881 1366 194.771186441 1366 c 128,-1,17
 168 1366 168 1366 168 1403 c 128,-1,18
 168 1440 168 1440 179 1479.5 c 128,-1,19
 190 1519 190 1519 216 1552 c 128,-1,20
 242 1585 242 1585 276 1585 c 0,21,22
 362 1585 362 1585 415 1520 c 128,-1,23
 468 1455 468 1455 471 1366 c 1,24,-1
 467 1362 l 1,25,-1
 473 1212 l 1,26,27
 473 1045 473 1045 427 804 c 128,-1,28
 381 563 381 563 317 420 c 0,29,30
 312 408 312 408 265 311 c 0,31,32
 155.783858998 85.5964749536 155.783858998 85.5964749536 154 41 c 1,33,-1
 170 39 l 1,34,35
 241 52 241 52 416 61 c 1,36,-1
 446 29 l 1,37,-1
 428 2 l 1,0,-1
EndSplineSet
EndChar

StartChar: uni00B3
Encoding: 179 179 115
Width: 589
GlyphClass: 2
Flags: HW
LayerCount: 2
Fore
SplineSet
315 844 m 1,0,-1
 295 842 l 1,1,2
 272 842 272 842 256 850 c 1,3,-1
 256 858 l 1,4,-1
 246 868 l 1,5,6
 247 875 247 875 267.5 899 c 128,-1,7
 288 923 288 923 312.5 952.5 c 128,-1,8
 337 982 337 982 357 1031 c 128,-1,9
 377 1080 377 1080 377 1122 c 128,-1,10
 377 1164 377 1164 375 1200.5 c 128,-1,11
 373 1237 373 1237 365.5 1292.5 c 128,-1,12
 358 1348 358 1348 345 1389 c 128,-1,13
 332 1430 332 1430 306 1460.5 c 128,-1,14
 280 1491 280 1491 246 1491 c 128,-1,15
 212 1491 212 1491 189.5 1472.5 c 128,-1,16
 167 1454 167 1454 159 1432.5 c 0,17,18
 137.23255814 1374 137.23255814 1374 111 1374 c 0,19,20
 99 1374 99 1374 88 1382.5 c 128,-1,21
 77 1391 77 1391 76 1403 c 1,22,23
 108 1468 108 1468 148 1504 c 128,-1,24
 188 1540 188 1540 233 1540 c 0,25,26
 306.666666667 1540 306.666666667 1540 344 1491 c 1,27,-1
 350 1489 l 1,28,29
 432 1370 432 1370 432 1102 c 0,30,31
 432 1052 432 1052 395 987 c 1,32,33
 386 981 386 981 361.5 940 c 128,-1,34
 337 899 337 899 328 889 c 1,35,36
 407.780927835 857.087628866 407.780927835 857.087628866 439.5 765 c 0,37,38
 461.854785479 700.099009901 461.854785479 700.099009901 474.927392739 617.04950495 c 128,-1,39
 488 534 488 534 497 494.5 c 0,40,41
 510 437.444444444 510 437.444444444 510 384.222222222 c 128,-1,42
 510 331 510 331 509 304.5 c 128,-1,43
 508 278 508 278 504 237 c 128,-1,44
 500 196 500 196 493 166 c 128,-1,45
 486 136 486 136 472 102.5 c 128,-1,46
 458 69 458 69 439 47.5 c 0,47,48
 395.255813953 -2 395.255813953 -2 338.127906977 -2 c 128,-1,49
 281 -2 281 -2 238 18 c 128,-1,50
 195 38 195 38 195 74 c 1,51,-1
 211 84 l 1,52,53
 235.676056338 82.3549295775 235.676056338 82.3549295775 262.838028169 62.1774647887 c 128,-1,54
 290 42 290 42 299 37 c 1,55,56
 455 37 455 37 455 297 c 0,57,58
 455 530.357142857 455 530.357142857 423 643.5 c 0,59,60
 388.758659218 764.567597765 388.758659218 764.567597765 315 844 c 1,0,-1
EndSplineSet
EndChar

StartChar: acute
Encoding: 180 180 116
Width: 497
GlyphClass: 2
Flags: HW
LayerCount: 2
Fore
SplineSet
135 1309 m 1,0,1
 98 1309 98 1309 98 1339 c 0,2,3
 98 1350.64885496 98 1350.64885496 219.5 1444.32442748 c 128,-1,4
 341 1538 341 1538 352 1548 c 1,5,6
 397 1548 397 1548 397 1516 c 0,7,8
 397 1515 397 1515 391 1485 c 1,9,10
 288 1439 288 1439 135 1309 c 1,0,1
EndSplineSet
EndChar

StartChar: uni00B5
Encoding: 181 181 117
AltUni2: 0003bc.ffffffff.0
Width: 743
GlyphClass: 2
Flags: HW
LayerCount: 2
Fore
SplineSet
627 426 m 1,0,-1
 629 297 l 1,1,2
 629 123.891891892 629 123.891891892 583.5 41.5 c 0,3,4
 565 8 565 8 529 -15.5 c 128,-1,5
 493 -39 493 -39 444 -39 c 0,6,7
 284 -39 284 -39 215 158 c 1,8,-1
 215 45 l 1,9,10
 219 35 219 35 219 14 c 2,11,-1
 217 -31 l 1,12,-1
 236 -215 l 1,13,14
 236 -231 236 -231 221 -239.5 c 128,-1,15
 206 -248 206 -248 191.5 -248 c 128,-1,16
 177 -248 177 -248 167.5 -237 c 128,-1,17
 158 -226 158 -226 158 -213 c 2,18,-1
 156 -182 l 1,19,-1
 154 -59 l 1,20,-1
 150 145 l 1,21,-1
 139 502 l 1,22,23
 138 655 138 655 118 971 c 128,-1,24
 98 1287 98 1287 98 1448 c 1,25,-1
 84 1491 l 1,26,27
 84 1505 84 1505 94.5 1518.5 c 128,-1,28
 105 1532 105 1532 119 1532 c 0,29,30
 170 1532 170 1532 170 1382 c 1,31,-1
 188 690 l 1,32,33
 196 680 196 680 198.5 641 c 0,34,35
 207.607929515 498.916299559 207.607929515 498.916299559 217 459 c 1,36,37
 213 435 213 435 213 407 c 128,-1,38
 213 379 213 379 232.5 313 c 128,-1,39
 252 247 252 247 283.5 183 c 128,-1,40
 315 119 315 119 362 73 c 128,-1,41
 409 27 409 27 446 27 c 128,-1,42
 483 27 483 27 501 35 c 128,-1,43
 519 43 519 43 529 52.5 c 128,-1,44
 539 62 539 62 545.5 84 c 128,-1,45
 552 106 552 106 554 117.5 c 128,-1,46
 556 129 556 129 558 158.5 c 128,-1,47
 560 188 560 188 559.5 194.5 c 128,-1,48
 559 201 559 201 559 213 c 1,49,-1
 565 281 l 1,50,-1
 565 514 l 1,51,-1
 551 637 l 1,52,-1
 539 1004 l 1,53,-1
 539 1030 l 1,54,-1
 530 1042 l 1,55,56
 539 1100 539 1100 539 1159 c 257,57,-1
 520 1507 l 2,58,59
 520 1523 520 1523 534.5 1531.5 c 128,-1,60
 549 1540 549 1540 565 1540 c 1,61,-1
 600 1507 l 1,62,-1
 594 1491 l 1,63,-1
 600 1475 l 1,64,-1
 586 1352 l 1,65,-1
 606 983 l 1,66,-1
 616 627 l 1,67,-1
 623 625 l 1,68,69
 621 611 621 611 621 582 c 1,70,-1
 627 438 l 1,71,-1
 633 432 l 1,72,-1
 627 426 l 1,0,-1
EndSplineSet
EndChar

StartChar: paragraph
Encoding: 182 182 118
Width: 937
GlyphClass: 2
Flags: HW
LayerCount: 2
Fore
SplineSet
784 264 m 1,0,-1
 797 35 l 2,1,2
 797 21 797 21 786.5 11.5 c 128,-1,3
 776 2 776 2 762 2 c 0,4,5
 711 2 711 2 711 102 c 1,6,-1
 729 1176 l 1,7,-1
 715 1622 l 1,8,-1
 717 1688 l 1,9,10
 717 1738 717 1738 698 1765 c 128,-1,11
 679 1792 679 1792 623 1792 c 0,12,13
 600 1792 600 1792 600 1681 c 128,-1,14
 600 1570 600 1570 613.5 1333.5 c 128,-1,15
 627 1097 627 1097 627 1001 c 128,-1,16
 627 905 627 905 625 820.5 c 128,-1,17
 623 736 623 736 621 677 c 128,-1,18
 619 618 619 618 614 513 c 128,-1,19
 609 408 609 408 606.5 369.5 c 0,20,21
 591.631578947 140.526315789 591.631578947 140.526315789 588 57 c 1,22,23
 592 49 592 49 592 41 c 128,-1,24
 592 33 592 33 578.5 23.5 c 128,-1,25
 565 14 565 14 553 14 c 0,26,27
 514 14 514 14 514 55 c 0,28,29
 514 206 514 206 535.5 509 c 128,-1,30
 557 812 557 812 557 963 c 1,31,-1
 553 1120 l 1,32,-1
 381 1120 l 1,33,34
 352 1132 352 1132 307.5 1145 c 128,-1,35
 263 1158 263 1158 236.5 1167.5 c 128,-1,36
 210 1177 210 1177 180 1195 c 0,37,38
 121.764705882 1229.94117647 121.764705882 1229.94117647 98 1325 c 0,39,40
 96 1332 96 1332 94.5 1355 c 128,-1,41
 93 1378 93 1378 86 1389 c 1,42,43
 86 1545.63013699 86 1545.63013699 148.5 1659.5 c 0,44,45
 185 1726 185 1726 240 1757 c 0,46,47
 267 1772 267 1772 320 1786.5 c 128,-1,48
 373 1801 373 1801 393.5 1809.5 c 128,-1,49
 414 1818 414 1818 444.5 1822 c 128,-1,50
 475 1826 475 1826 512.5 1827 c 128,-1,51
 550 1828 550 1828 569 1831 c 1,52,53
 580 1851 580 1851 618 1851 c 1,54,-1
 698 1835 l 1,55,56
 729 1835 729 1835 745 1839 c 1,57,58
 756 1826 756 1826 786 1822 c 128,-1,59
 816 1818 816 1818 839 1812.5 c 128,-1,60
 862 1807 862 1807 862 1790 c 0,61,62
 862 1761 862 1761 821 1761 c 0,63,64
 806 1761 806 1761 782 1765 c 1,65,-1
 797 1141 l 1,66,-1
 784 264 l 1,0,-1
535 1696 m 1,67,-1
 537 1753 l 1,68,69
 518 1772 518 1772 416.5 1772 c 128,-1,70
 315 1772 315 1772 232.5 1672 c 128,-1,71
 150 1572 150 1572 150 1471 c 128,-1,72
 150 1370 150 1370 174.5 1313.5 c 128,-1,73
 199 1257 199 1257 247 1226.5 c 0,74,75
 334.344262295 1171 334.344262295 1171 494 1171 c 0,76,77
 532 1171 532 1171 542.5 1179.5 c 128,-1,78
 553 1188 553 1188 553 1212 c 2,79,-1
 535 1696 l 1,67,-1
EndSplineSet
EndChar

StartChar: periodcentered
Encoding: 183 183 119
Width: 327
GlyphClass: 2
Flags: HW
LayerCount: 2
Fore
SplineSet
126.5 711.5 m 128,-1,1
 113 727 113 727 113 746.5 c 128,-1,2
 113 766 113 766 129.5 783.5 c 128,-1,3
 146 801 146 801 165 801 c 128,-1,4
 184 801 184 801 199.5 783.5 c 128,-1,5
 215 766 215 766 215 748 c 0,6,7
 215 696 215 696 158 696 c 0,8,0
 140 696 140 696 126.5 711.5 c 128,-1,1
EndSplineSet
EndChar

StartChar: cedilla
Encoding: 184 184 120
Width: 468
GlyphClass: 2
Flags: HW
LayerCount: 2
Fore
SplineSet
250 -190 m 1,0,-1
 195 -197 l 1,1,2
 164 -197 164 -197 139 -156 c 1,3,4
 156 -117 156 -117 156 -39 c 2,5,-1
 156 -16 l 1,6,-1
 215 -8 l 1,7,8
 207 -55 207 -55 207 -111 c 1,9,10
 356 -121 356 -121 356 -317 c 0,11,12
 356 -365 356 -365 309.5 -422 c 128,-1,13
 263 -479 263 -479 201 -479 c 0,14,15
 172 -479 172 -479 142.5 -464.5 c 128,-1,16
 113 -450 113 -450 113 -426.5 c 128,-1,17
 113 -403 113 -403 135 -403 c 0,18,19
 148 -403 148 -403 168 -413.5 c 128,-1,20
 188 -424 188 -424 207 -424 c 128,-1,21
 226 -424 226 -424 248 -395 c 128,-1,22
 270 -366 270 -366 270 -340 c 1,23,-1
 264 -311 l 1,24,25
 264 -305.454545455 264 -305.454545455 273 -299.727272727 c 128,-1,26
 282 -294 282 -294 283 -293 c 1,27,28
 283 -239.571428571 283 -239.571428571 275 -221.285714286 c 128,-1,29
 267 -203 267 -203 250 -190 c 1,0,-1
EndSplineSet
EndChar

StartChar: uni00B9
Encoding: 185 185 121
Width: 606
GlyphClass: 2
Flags: HW
LayerCount: 2
Fore
SplineSet
481 14 m 1,0,-1
 229 6 l 2,1,2
 215 6 215 6 206 15 c 128,-1,3
 197 24 197 24 197 37 c 1,4,-1
 207 57 l 1,5,-1
 262 55 l 1,6,7
 291 55 291 55 302 68 c 128,-1,8
 313 81 313 81 313 111 c 0,9,10
 313 369 313 369 300 581 c 0,11,12
 285.275510204 821.12244898 285.275510204 821.12244898 254 1284 c 1,13,-1
 256 1354 l 1,14,15
 256 1414 256 1414 237 1448.5 c 128,-1,16
 218 1483 218 1483 162 1483 c 1,17,-1
 115 1479 l 1,18,19
 80 1479 80 1479 80 1501 c 0,20,21
 80 1530 80 1530 260 1530 c 0,22,23
 274 1530 274 1530 283.5 1520 c 128,-1,24
 293 1510 293 1510 293 1497 c 1,25,-1
 297 1497 l 1,26,27
 291 1467 291 1467 291 1418.5 c 128,-1,28
 291 1370 291 1370 306.5 1241 c 128,-1,29
 322 1112 322 1112 322 1022 c 128,-1,30
 322 932 322 932 339 703.5 c 128,-1,31
 356 475 356 475 356 412.5 c 128,-1,32
 356 350 356 350 352 334 c 1,33,34
 365 282 365 282 365 102 c 1,35,-1
 362 72 l 1,36,-1
 371 66 l 1,37,-1
 463 72 l 1,38,39
 526 72 526 72 526 43 c 128,-1,40
 526 14 526 14 481 14 c 1,0,-1
EndSplineSet
EndChar

StartChar: guillemotright
Encoding: 187 187 122
Width: 741
GlyphClass: 2
Flags: HW
LayerCount: 2
Fore
SplineSet
139 4 m 1,0,1
 109 0 l 1,2,3
 100 0 100 0 91 14 c 128,-1,4
 82 28 82 28 80 39 c 1,5,-1
 98 53 l 1,6,7
 134 118 134 118 274 400.5 c 128,-1,8
 414 683 414 683 414 700 c 0,9,10
 414 806 414 806 297.5 1039 c 0,11,12
 176.043478261 1281.91304348 176.043478261 1281.91304348 158 1401 c 1,13,-1
 184 1421 l 1,14,15
 211.933014354 1415.01435407 211.933014354 1415.01435407 233.5 1346 c 0,16,17
 241 1322 241 1322 250.5 1287.5 c 128,-1,18
 260 1253 260 1253 267 1231.5 c 128,-1,19
 274 1210 274 1210 331.5 1081 c 0,20,21
 485 736.626086957 485 736.626086957 485 702.813043478 c 128,-1,22
 485 669 485 669 447.5 618 c 128,-1,23
 410 567 410 567 403 548.5 c 128,-1,24
 396 530 396 530 379 497.5 c 128,-1,25
 362 465 362 465 358 455 c 2,26,-1
 182 90 l 2,27,28
 145 13 145 13 139 4 c 1,0,1
356 1462 m 1,29,-1
 358 1462 l 1,30,-1
 356 1462 l 1,29,-1
601.5 854.5 m 128,-1,32
 659 710 659 710 659 697 c 128,-1,33
 659 684 659 684 623 605 c 128,-1,34
 587 526 587 526 534.5 422 c 0,35,36
 458.31097561 271.073170732 458.31097561 271.073170732 420.155487805 198.036585366 c 128,-1,37
 382 125 382 125 370 101 c 128,-1,38
 358 77 358 77 348 57.5 c 128,-1,39
 338 38 338 38 324.5 15 c 0,40,41
 295.152173913 -35 295.152173913 -35 279 -35 c 0,42,43
 269 -35 269 -35 253.5 -28 c 128,-1,44
 238 -21 238 -21 238 -9.5 c 128,-1,45
 238 2 238 2 326 156 c 0,46,47
 591.325153374 620.319018405 591.325153374 620.319018405 596 692 c 1,48,49
 583 711 583 711 510.5 912.5 c 128,-1,50
 438 1114 438 1114 412 1181 c 128,-1,51
 386 1248 386 1248 372 1285 c 128,-1,52
 358 1322 358 1322 350 1341 c 0,53,54
 323.142857143 1404.78571429 323.142857143 1404.78571429 301 1438 c 1,55,56
 304 1466 304 1466 342 1466 c 0,57,58
 359 1466 359 1466 399 1360 c 1,59,-1
 399 1358 l 1,60,61
 410 1329 410 1329 477 1164 c 128,-1,31
 544 999 544 999 601.5 854.5 c 128,-1,32
EndSplineSet
EndChar

StartChar: onequarter
Encoding: 188 188 123
Width: 1691
GlyphClass: 2
Flags: HW
LayerCount: 2
Fore
SplineSet
481 14 m 1,0,-1
 229 6 l 2,1,2
 215 6 215 6 206 15 c 128,-1,3
 197 24 197 24 197 37 c 1,4,-1
 207 57 l 1,5,-1
 262 55 l 1,6,7
 291 55 291 55 302 68 c 128,-1,8
 313 81 313 81 313 111 c 0,9,10
 313 369 313 369 300 581 c 0,11,12
 285.275510204 821.12244898 285.275510204 821.12244898 254 1284 c 1,13,-1
 256 1354 l 1,14,15
 256 1414 256 1414 237 1448.5 c 128,-1,16
 218 1483 218 1483 162 1483 c 1,17,-1
 115 1479 l 1,18,19
 80 1479 80 1479 80 1501 c 0,20,21
 80 1530 80 1530 260 1530 c 0,22,23
 274 1530 274 1530 283.5 1520 c 128,-1,24
 293 1510 293 1510 293 1497 c 1,25,-1
 297 1497 l 1,26,27
 291 1467 291 1467 291 1418.5 c 128,-1,28
 291 1370 291 1370 306.5 1241 c 128,-1,29
 322 1112 322 1112 322 1022 c 128,-1,30
 322 932 322 932 339 703.5 c 128,-1,31
 356 475 356 475 356 412.5 c 128,-1,32
 356 350 356 350 352 334 c 1,33,34
 365 282 365 282 365 102 c 1,35,-1
 362 72 l 1,36,-1
 371 66 l 1,37,-1
 463 72 l 1,38,39
 526 72 526 72 526 43 c 128,-1,40
 526 14 526 14 481 14 c 1,0,-1
1085 1505 m 0,41,42
 1085 1488.45454545 1085 1488.45454545 1065 1405.72727273 c 128,-1,43
 1045 1323 1045 1323 1032 1263.5 c 128,-1,44
 1019 1204 1019 1204 813 299 c 1,45,-1
 772 121 l 2,46,47
 770 114 770 114 766 92.5 c 128,-1,48
 762 71 762 71 759 58 c 128,-1,49
 756 45 756 45 750 29 c 0,50,51
 737.64516129 -3.94623655914 737.64516129 -3.94623655914 713 -6 c 1,52,53
 692 8 692 8 692 41.5 c 128,-1,54
 692 75 692 75 702.5 131 c 128,-1,55
 713 187 713 187 735.5 273 c 128,-1,56
 758 359 758 359 829 674 c 128,-1,57
 900 989 900 989 960.5 1219.5 c 128,-1,58
 1021 1450 1021 1450 1023.5 1461 c 128,-1,59
 1026 1472 1026 1472 1029.5 1483 c 128,-1,60
 1033 1494 1033 1494 1037 1505.5 c 0,61,62
 1046.2173913 1532 1046.2173913 1532 1055 1532 c 0,63,64
 1085 1532 1085 1532 1085 1505 c 0,41,42
1620 567 m 0,65,66
 1620 536.651162791 1620 536.651162791 1562.5 542 c 0,67,68
 1541 544 1541 544 1523 534 c 128,-1,69
 1505 524 1505 524 1505 484 c 128,-1,70
 1505 444 1505 444 1511 306 c 128,-1,71
 1517 168 1517 168 1524 152 c 1,72,73
 1522 144 1522 144 1522 112.5 c 128,-1,74
 1522 81 1522 81 1530 68 c 1,75,-1
 1524 43 l 1,76,-1
 1530 29 l 1,77,-1
 1530 0 l 1,78,-1
 1497 -25 l 1,79,-1
 1466 -12 l 1,80,-1
 1466 61 l 1,81,-1
 1464 66 l 1,82,83
 1473 103 1473 103 1473 139 c 1,84,-1
 1458 348 l 1,85,-1
 1462 440 l 1,86,87
 1462 520 1462 520 1442 530 c 1,88,-1
 1321 518 l 1,89,90
 1294.07142857 518 1294.07142857 518 1282.53571429 527.5 c 128,-1,91
 1271 537 1271 537 1266 541 c 1,92,-1
 1266 547 l 2,93,94
 1266 562 1266 562 1276 612 c 1,95,-1
 1257 653 l 1,96,-1
 1276 754 l 1,97,-1
 1296 1155 l 1,98,-1
 1296 1481 l 1,99,-1
 1288 1532 l 1,100,101
 1288 1559 1288 1559 1319 1559 c 128,-1,102
 1350 1559 1350 1559 1350 1530 c 1,103,-1
 1341 1366 l 1,104,105
 1341 1336 1341 1336 1348 1296 c 1,106,-1
 1343 1290 l 1,107,108
 1348 1245 1348 1245 1348 1196 c 128,-1,109
 1348 1147 1348 1147 1335.5 975 c 128,-1,110
 1323 803 1323 803 1323 717 c 1,111,-1
 1337 657 l 1,112,-1
 1323 602 l 1,113,114
 1323 563 1323 563 1342.5 563 c 128,-1,115
 1362 563 1362 563 1397.5 569 c 128,-1,116
 1433 575 1433 575 1446 582 c 1,117,118
 1446 681 1446 681 1438.5 865 c 128,-1,119
 1431 1049 1431 1049 1423 1104 c 128,-1,120
 1415 1159 1415 1159 1415 1179.5 c 0,121,122
 1415 1212 1415 1212 1454 1212 c 1,123,-1
 1473 1190 l 1,124,-1
 1485 901 l 1,125,126
 1485 838 1485 838 1490.5 714.5 c 128,-1,127
 1496 591 1496 591 1505 582 c 1,128,-1
 1581 590 l 1,129,130
 1620 590 1620 590 1620 567 c 0,65,66
EndSplineSet
EndChar

StartChar: onehalf
Encoding: 189 189 124
Width: 1736
GlyphClass: 2
Flags: HW
LayerCount: 2
Fore
SplineSet
481 14 m 1,0,-1
 229 6 l 2,1,2
 215 6 215 6 206 15 c 128,-1,3
 197 24 197 24 197 37 c 1,4,-1
 207 57 l 1,5,-1
 262 55 l 1,6,7
 291 55 291 55 302 68 c 128,-1,8
 313 81 313 81 313 111 c 0,9,10
 313 369 313 369 300 581 c 0,11,12
 285.275510204 821.12244898 285.275510204 821.12244898 254 1284 c 1,13,-1
 256 1354 l 1,14,15
 256 1414 256 1414 237 1448.5 c 128,-1,16
 218 1483 218 1483 162 1483 c 1,17,-1
 115 1479 l 1,18,19
 80 1479 80 1479 80 1501 c 0,20,21
 80 1530 80 1530 260 1530 c 0,22,23
 274 1530 274 1530 283.5 1520 c 128,-1,24
 293 1510 293 1510 293 1497 c 1,25,-1
 297 1497 l 1,26,27
 291 1467 291 1467 291 1418.5 c 128,-1,28
 291 1370 291 1370 306.5 1241 c 128,-1,29
 322 1112 322 1112 322 1022 c 128,-1,30
 322 932 322 932 339 703.5 c 128,-1,31
 356 475 356 475 356 412.5 c 128,-1,32
 356 350 356 350 352 334 c 1,33,34
 365 282 365 282 365 102 c 1,35,-1
 362 72 l 1,36,-1
 371 66 l 1,37,-1
 463 72 l 1,38,39
 526 72 526 72 526 43 c 128,-1,40
 526 14 526 14 481 14 c 1,0,-1
1085 1505 m 0,41,42
 1085 1488.45454545 1085 1488.45454545 1065 1405.72727273 c 128,-1,43
 1045 1323 1045 1323 1032 1263.5 c 128,-1,44
 1019 1204 1019 1204 813 299 c 1,45,-1
 772 121 l 2,46,47
 770 114 770 114 766 92.5 c 128,-1,48
 762 71 762 71 759 58 c 128,-1,49
 756 45 756 45 750 29 c 0,50,51
 737.64516129 -3.94623655914 737.64516129 -3.94623655914 713 -6 c 1,52,53
 692 8 692 8 692 41.5 c 128,-1,54
 692 75 692 75 702.5 131 c 128,-1,55
 713 187 713 187 735.5 273 c 128,-1,56
 758 359 758 359 829 674 c 128,-1,57
 900 989 900 989 960.5 1219.5 c 128,-1,58
 1021 1450 1021 1450 1023.5 1461 c 128,-1,59
 1026 1472 1026 1472 1029.5 1483 c 128,-1,60
 1033 1494 1033 1494 1037 1505.5 c 0,61,62
 1046.2173913 1532 1046.2173913 1532 1055 1532 c 0,63,64
 1085 1532 1085 1532 1085 1505 c 0,41,42
1593 2 m 1,65,-1
 1294 -16 l 1,66,67
 1274 -16 1274 -16 1258.5 -5 c 128,-1,68
 1243 6 1243 6 1243 25 c 1,69,70
 1278 69 1278 69 1313 165.5 c 128,-1,71
 1348 262 1348 262 1354 274 c 0,72,73
 1471 529 1471 529 1529 761 c 128,-1,74
 1587 993 1587 993 1587 1249 c 0,75,76
 1587 1544 1587 1544 1460 1544 c 1,77,78
 1431.88676461 1531.76486358 1431.88676461 1531.76486358 1415.4433823 1501.38243179 c 128,-1,79
 1399 1471 1399 1471 1395.5 1441.5 c 0,80,81
 1386.54237288 1366 1386.54237288 1366 1359.77118644 1366 c 128,-1,82
 1333 1366 1333 1366 1333 1403 c 128,-1,83
 1333 1440 1333 1440 1344 1479.5 c 128,-1,84
 1355 1519 1355 1519 1381.5 1552 c 128,-1,85
 1408 1585 1408 1585 1442 1585 c 0,86,87
 1528 1585 1528 1585 1580.5 1520 c 128,-1,88
 1633 1455 1633 1455 1636 1366 c 1,89,-1
 1632 1362 l 1,90,-1
 1638 1212 l 1,91,92
 1638 1044 1638 1044 1592.5 803.5 c 128,-1,93
 1547 563 1547 563 1483 420 c 0,94,95
 1477 407 1477 407 1430.5 311 c 0,96,97
 1320.73558368 84.3895921238 1320.73558368 84.3895921238 1319 41 c 1,98,-1
 1335 39 l 1,99,100
 1406 52 1406 52 1581 61 c 1,101,-1
 1612 29 l 1,102,-1
 1593 2 l 1,65,-1
EndSplineSet
EndChar

StartChar: threequarters
Encoding: 190 190 125
Width: 1675
GlyphClass: 2
Flags: HW
LayerCount: 2
Fore
SplineSet
315 844 m 1,0,-1
 295 842 l 1,1,2
 272 842 272 842 256 850 c 1,3,-1
 256 858 l 1,4,-1
 246 868 l 1,5,6
 247 875 247 875 267.5 899 c 128,-1,7
 288 923 288 923 312.5 952.5 c 128,-1,8
 337 982 337 982 357 1031 c 128,-1,9
 377 1080 377 1080 377 1122 c 128,-1,10
 377 1164 377 1164 375 1200.5 c 128,-1,11
 373 1237 373 1237 365.5 1292.5 c 128,-1,12
 358 1348 358 1348 345 1389 c 128,-1,13
 332 1430 332 1430 306 1460.5 c 128,-1,14
 280 1491 280 1491 246 1491 c 128,-1,15
 212 1491 212 1491 189.5 1472.5 c 128,-1,16
 167 1454 167 1454 159 1432.5 c 0,17,18
 137.23255814 1374 137.23255814 1374 111 1374 c 0,19,20
 99 1374 99 1374 88 1382.5 c 128,-1,21
 77 1391 77 1391 76 1403 c 1,22,23
 108 1468 108 1468 148 1504 c 128,-1,24
 188 1540 188 1540 233 1540 c 0,25,26
 306.666666667 1540 306.666666667 1540 344 1491 c 1,27,-1
 350 1489 l 1,28,29
 432 1370 432 1370 432 1102 c 0,30,31
 432 1052 432 1052 395 987 c 1,32,33
 386 981 386 981 361.5 940 c 128,-1,34
 337 899 337 899 328 889 c 1,35,36
 407.780927835 857.087628866 407.780927835 857.087628866 439.5 765 c 0,37,38
 461.854785479 700.099009901 461.854785479 700.099009901 474.927392739 617.04950495 c 128,-1,39
 488 534 488 534 497 494.5 c 0,40,41
 510 437.444444444 510 437.444444444 510 384.222222222 c 128,-1,42
 510 331 510 331 509 304.5 c 128,-1,43
 508 278 508 278 504 237 c 128,-1,44
 500 196 500 196 493 166 c 128,-1,45
 486 136 486 136 472 102.5 c 128,-1,46
 458 69 458 69 439 47.5 c 0,47,48
 395.255813953 -2 395.255813953 -2 338.127906977 -2 c 128,-1,49
 281 -2 281 -2 238 18 c 128,-1,50
 195 38 195 38 195 74 c 1,51,-1
 211 84 l 1,52,53
 235.676056338 82.3549295775 235.676056338 82.3549295775 262.838028169 62.1774647887 c 128,-1,54
 290 42 290 42 299 37 c 1,55,56
 455 37 455 37 455 297 c 0,57,58
 455 530.357142857 455 530.357142857 423 643.5 c 0,59,60
 388.758659218 764.567597765 388.758659218 764.567597765 315 844 c 1,0,-1
1038 1532 m 0,61,62
 1069 1532 1069 1532 1069 1505 c 0,63,64
 1069 1488.45454545 1069 1488.45454545 1049 1405.72727273 c 128,-1,65
 1029 1323 1029 1323 1016 1263.5 c 128,-1,66
 1003 1204 1003 1204 797 299 c 1,67,-1
 756 121 l 2,68,69
 754 114 754 114 750 92.5 c 128,-1,70
 746 71 746 71 742.5 58 c 128,-1,71
 739 45 739 45 733 28.5 c 0,72,73
 721.21875 -3.8984375 721.21875 -3.8984375 696 -6 c 1,74,75
 676 7 676 7 676 41 c 128,-1,76
 676 75 676 75 686.5 131 c 128,-1,77
 697 187 697 187 719.5 273 c 128,-1,78
 742 359 742 359 813 674 c 128,-1,79
 884 989 884 989 944.5 1219.5 c 128,-1,80
 1005 1450 1005 1450 1007.5 1461 c 128,-1,81
 1010 1472 1010 1472 1013 1483 c 128,-1,82
 1016 1494 1016 1494 1020 1505.5 c 0,83,84
 1029.2173913 1532 1029.2173913 1532 1038 1532 c 0,61,62
1604 567 m 0,85,86
 1604 536.651162791 1604 536.651162791 1546.5 542 c 0,87,88
 1525 544 1525 544 1507 534 c 128,-1,89
 1489 524 1489 524 1489 483 c 128,-1,90
 1489 442 1489 442 1494.5 305 c 128,-1,91
 1500 168 1500 168 1507 152 c 1,92,93
 1505 144 1505 144 1505 112.5 c 128,-1,94
 1505 81 1505 81 1513 68 c 1,95,-1
 1507 43 l 1,96,-1
 1513 29 l 1,97,-1
 1513 0 l 1,98,-1
 1481 -25 l 1,99,-1
 1450 -12 l 1,100,-1
 1450 61 l 1,101,-1
 1448 66 l 1,102,103
 1456 99 1456 99 1456 139 c 1,104,-1
 1442 348 l 1,105,-1
 1446 440 l 1,106,107
 1446 520 1446 520 1425 530 c 1,108,-1
 1305 518 l 1,109,110
 1278.18181818 518 1278.18181818 518 1266.09090909 527.5 c 128,-1,111
 1254 537 1254 537 1249 541 c 1,112,-1
 1249 547 l 2,113,114
 1249 557 1249 557 1260 612 c 1,115,-1
 1241 653 l 1,116,-1
 1260 754 l 1,117,-1
 1280 1155 l 1,118,-1
 1280 1481 l 1,119,-1
 1272 1532 l 1,120,121
 1272 1559 1272 1559 1302.5 1559 c 128,-1,122
 1333 1559 1333 1559 1333 1530 c 1,123,-1
 1325 1366 l 1,124,125
 1325 1330 1325 1330 1331 1296 c 1,126,-1
 1327 1290 l 1,127,128
 1331 1254 1331 1254 1331 1233 c 2,129,-1
 1307 717 l 1,130,-1
 1321 657 l 1,131,-1
 1307 602 l 1,132,133
 1307 563 1307 563 1326.5 563 c 128,-1,134
 1346 563 1346 563 1381.5 569 c 128,-1,135
 1417 575 1417 575 1430 582 c 1,136,137
 1430 656 1430 656 1422 852.5 c 128,-1,138
 1414 1049 1414 1049 1406.5 1104 c 128,-1,139
 1399 1159 1399 1159 1399 1179.5 c 0,140,141
 1399 1212 1399 1212 1438 1212 c 1,142,-1
 1456 1190 l 1,143,-1
 1468 901 l 1,144,145
 1468 841 1468 841 1474 716 c 128,-1,146
 1480 591 1480 591 1489 582 c 1,147,-1
 1565 590 l 1,148,149
 1604 590 1604 590 1604 567 c 0,85,86
EndSplineSet
EndChar

StartChar: AE
Encoding: 198 198 133
Width: 923
GlyphClass: 2
Flags: HW
LayerCount: 2
Fore
SplineSet
799 57 m 1,0,1
 844 57 844 57 844 31 c 0,2,3
 844 -4.31724137931 844 -4.31724137931 649.5 -7 c 0,4,5
 577 -8 577 -8 569.5 -12 c 128,-1,6
 562 -16 562 -16 546 -28 c 128,-1,7
 530 -40 530 -40 518 -41 c 1,8,-1
 489 -12 l 1,9,10
 506 101 506 101 506 229 c 1,11,-1
 496 621 l 1,12,-1
 485 635 l 1,13,14
 477 633 477 633 421 629 c 0,15,16
 279.145695364 618.867549669 279.145695364 618.867549669 274 600 c 2,17,-1
 172 209 l 2,18,19
 172 208 172 208 159 145.5 c 0,20,21
 129.152 2 129.152 2 100 2 c 0,22,23
 93 2 93 2 88.5 11 c 128,-1,24
 84 20 84 20 84 27 c 0,25,26
 86 125 86 125 191.5 538 c 128,-1,27
 297 951 297 951 434 1393 c 1,28,29
 461 1485 461 1485 482.5 1514.5 c 128,-1,30
 504 1544 504 1544 528 1544 c 1,31,-1
 686 1554 l 1,32,33
 750 1554 750 1554 750 1522 c 1,34,-1
 737 1497 l 1,35,36
 637 1497 637 1497 535 1485 c 1,37,-1
 549 1180 l 1,38,-1
 543 702 l 1,39,-1
 553 690 l 1,40,-1
 715 711 l 1,41,-1
 743 676 l 1,42,43
 743 641 743 641 625 641 c 0,44,45
 584 641 584 641 543 641 c 1,46,-1
 551 154 l 1,47,-1
 549 70 l 2,48,49
 549 35 549 35 567 35 c 1,50,-1
 799 57 l 1,0,1
489 1393 m 1,51,52
 471 1371 471 1371 382.5 1043 c 128,-1,53
 294 715 294 715 289 664 c 1,54,55
 417 668 417 668 494 688 c 1,56,57
 495 741 495 741 498.5 902.5 c 128,-1,58
 502 1064 502 1064 502 1178 c 128,-1,59
 502 1292 502 1292 489 1393 c 1,51,52
EndSplineSet
EndChar

StartChar: Eth
Encoding: 208 208 143
Width: 839
GlyphClass: 2
Flags: HW
LayerCount: 2
Fore
SplineSet
199 1196 m 1,0,-1
 182 1563 l 2,1,2
 182 1571 182 1571 194.5 1588.5 c 128,-1,3
 207 1606 207 1606 215 1606 c 0,4,5
 386.025641026 1606 386.025641026 1606 563 1359.5 c 0,6,7
 605 1301 605 1301 637 1241 c 1,8,-1
 637 1237 l 1,9,10
 733 966 733 966 733 649 c 0,11,12
 733 515 733 515 683.5 367.5 c 128,-1,13
 634 220 634 220 537.5 92.5 c 128,-1,14
 441 -35 441 -35 322 -88 c 1,15,16
 313 -84 313 -84 298.5 -80 c 0,17,18
 273.211081794 -73.0237467018 273.211081794 -73.0237467018 262 -49 c 1,19,-1
 260 -49 l 1,20,21
 260 222 260 222 242 602 c 1,22,23
 232 728 232 728 225 754 c 1,24,-1
 100 741 l 1,25,26
 83 741 83 741 77.5 749.5 c 128,-1,27
 72 758 72 758 72 776.5 c 128,-1,28
 72 795 72 795 108 804.5 c 128,-1,29
 144 814 144 814 180 814 c 2,30,-1
 217 813 l 1,31,-1
 225 817 l 1,32,-1
 227 827 l 1,33,34
 227 888 227 888 213 1011 c 128,-1,35
 199 1134 199 1134 199 1196 c 1,0,-1
301 821 m 1,36,-1
 442 844 l 1,37,38
 459 844 459 844 471 828 c 128,-1,39
 483 812 483 812 485 795 c 1,40,-1
 465 770 l 1,41,42
 361 770 361 770 297 756 c 1,43,44
 297 724 297 724 302.5 593.5 c 128,-1,45
 308 463 308 463 311 451 c 1,46,-1
 309 449 l 1,47,48
 309 376 309 376 319.5 227.5 c 128,-1,49
 330 79 330 79 330 6 c 1,50,51
 357 12 357 12 369 24 c 128,-1,52
 381 36 381 36 390 45.5 c 128,-1,53
 399 55 399 55 403 59 c 0,54,55
 506 160 506 160 582.5 321 c 128,-1,56
 659 482 659 482 659 602.5 c 128,-1,57
 659 723 659 723 657.5 780 c 0,58,59
 653.080291971 947.948905109 653.080291971 947.948905109 616 1087 c 1,60,61
 583 1248 583 1248 491.5 1371.5 c 128,-1,62
 400 1495 400 1495 256 1538 c 1,63,-1
 252 1534 l 1,64,65
 252 1405 252 1405 266.5 1127 c 128,-1,66
 281 849 281 849 301 821 c 1,36,-1
EndSplineSet
EndChar

StartChar: multiply
Encoding: 215 215 150
Width: 727
GlyphClass: 2
Flags: HW
LayerCount: 2
Fore
SplineSet
516 430 m 2,0,-1
 471 473 l 2,1,2
 458 485 458 485 431 516 c 0,3,4
 371.774193548 584 371.774193548 584 353.387096774 584 c 128,-1,5
 335 584 335 584 315 564 c 128,-1,6
 295 544 295 544 279.5 520.5 c 0,7,8
 237.617021277 457 237.617021277 457 201 457 c 0,9,10
 190 457 190 457 175 467 c 128,-1,11
 160 477 160 477 160 486.5 c 128,-1,12
 160 496 160 496 176.5 512.5 c 128,-1,13
 193 529 193 529 219 551 c 128,-1,14
 245 573 245 573 254.5 582.5 c 128,-1,15
 264 592 264 592 280.5 614.5 c 128,-1,16
 297 637 297 637 297 647 c 1,17,18
 280 664 280 664 234 702.5 c 0,19,20
 127 792.054347826 127 792.054347826 127 817 c 0,21,22
 127 827 127 827 140.5 842.5 c 128,-1,23
 154 858 154 858 168.5 858 c 128,-1,24
 183 858 183 858 193 848 c 1,25,-1
 203 827 l 1,26,27
 330 700 330 700 353 700 c 128,-1,28
 376 700 376 700 407.5 736 c 128,-1,29
 439 772 439 772 472 808 c 128,-1,30
 505 844 505 844 522.5 844 c 128,-1,31
 540 844 540 844 550.5 834 c 128,-1,32
 561 824 561 824 561 809 c 128,-1,33
 561 794 561 794 524.5 760 c 128,-1,34
 488 726 488 726 452 693 c 128,-1,35
 416 660 416 660 416 642 c 128,-1,36
 416 624 416 624 442 599 c 128,-1,37
 468 574 468 574 499 554 c 0,38,39
 582 500.451612903 582 500.451612903 582 471 c 0,40,41
 582 454 582 454 567.5 439 c 128,-1,42
 553 424 553 424 537.5 424 c 128,-1,43
 522 424 522 424 516 430 c 2,0,-1
EndSplineSet
EndChar

StartChar: Oslash
Encoding: 216 216 151
Width: 602
GlyphClass: 2
Flags: HW
LayerCount: 2
Fore
SplineSet
485 831 m 1,0,-1
 492 444 l 1,1,2
 492 302.454545455 492 302.454545455 483.5 252.227272727 c 128,-1,3
 475 202 475 202 466 160 c 128,-1,4
 457 118 457 118 441.5 89 c 128,-1,5
 426 60 426 60 405.5 33.5 c 0,6,7
 364.113207547 -20 364.113207547 -20 291.056603774 -20 c 128,-1,8
 218 -20 218 -20 188 20 c 1,9,-1
 186 20 l 1,10,11
 172 -68 172 -68 133 -264 c 1,12,-1
 102 -240 l 1,13,14
 103.059633028 -205.032110092 103.059633028 -205.032110092 125.029816514 -98.0160550459 c 128,-1,15
 147 9 147 9 162 111 c 1,16,17
 162 125 162 125 153.5 149.5 c 128,-1,18
 145 174 145 174 140.5 200.5 c 128,-1,19
 136 227 136 227 130.5 274 c 128,-1,20
 125 321 125 321 120.5 360 c 128,-1,21
 116 399 116 399 113 453.5 c 128,-1,22
 110 508 110 508 107.5 540 c 128,-1,23
 105 572 105 572 103.5 634 c 128,-1,24
 102 696 102 696 101.5 721 c 128,-1,25
 101 746 101 746 100.5 815 c 128,-1,26
 100 884 100 884 100 901.5 c 2,27,-1
 100 1081 l 2,28,29
 100 1569 100 1569 250 1569 c 0,30,31
 260 1569 260 1569 281 1557.5 c 128,-1,32
 302 1546 302 1546 309 1546 c 1,33,-1
 317 1550 l 1,34,-1
 328 1540 l 1,35,36
 341.091954023 1578.50574713 341.091954023 1578.50574713 381 1798 c 1,37,-1
 418 1798 l 1,38,-1
 416 1739 l 1,39,-1
 373 1491 l 1,40,41
 373 1466 373 1466 403 1432 c 1,42,-1
 401 1427 l 1,43,44
 404.644067797 1408.77966102 404.644067797 1408.77966102 417.322033898 1389.38983051 c 0,45,46
 455 1331.76470588 455 1331.76470588 455 1229 c 1,47,-1
 451 1227 l 1,48,49
 451 1166 451 1166 466 1039 c 128,-1,50
 481 912 481 912 481 850 c 2,51,-1
 481 838 l 1,52,-1
 485 831 l 1,0,-1
302.5 817 m 128,-1,54
 269 420 269 420 242 279 c 128,-1,55
 215 138 215 138 215 103 c 0,56,57
 215 23 215 23 305 23 c 0,58,59
 438 23 438 23 438 399 c 0,60,61
 438 1244 438 1244 365 1389 c 1,62,53
 336 1214 336 1214 302.5 817 c 128,-1,54
297 1497 m 128,-1,64
 277 1513 277 1513 260 1513 c 128,-1,65
 243 1513 243 1513 219 1501 c 1,66,-1
 207 1505 l 1,67,68
 143 1466 143 1466 143 852 c 0,69,70
 143 748 143 748 162 705 c 1,71,72
 162 634 162 634 174 490 c 128,-1,73
 186 346 186 346 186 274 c 1,74,75
 199.986842105 292.649122807 199.986842105 292.649122807 221.993421053 507.824561404 c 128,-1,76
 244 723 244 723 256.5 847.5 c 0,77,78
 277.653846154 1058.19230769 277.653846154 1058.19230769 286.826923077 1155.09615385 c 128,-1,79
 296 1252 296 1252 302.5 1298.5 c 0,80,81
 317 1402.23076923 317 1402.23076923 317 1441.61538462 c 128,-1,63
 317 1481 317 1481 297 1497 c 128,-1,64
EndSplineSet
EndChar

StartChar: Thorn
Encoding: 222 222 157
Width: 540
GlyphClass: 2
Flags: HW
LayerCount: 2
Fore
SplineSet
190 537 m 1,0,-1
 201 51 l 2,1,2
 201 21 201 21 192.5 4.5 c 128,-1,3
 184 -12 184 -12 157.5 -12 c 128,-1,4
 131 -12 131 -12 131 59 c 2,5,-1
 133 317 l 1,6,-1
 129 569 l 1,7,8
 129 687.4 129 687.4 121 868.2 c 128,-1,9
 113 1049 113 1049 111.5 1086 c 128,-1,10
 110 1123 110 1123 103 1218.5 c 128,-1,11
 96 1314 96 1314 95 1345 c 128,-1,12
 94 1376 94 1376 94 1395 c 2,13,-1
 96 1530 l 2,14,15
 96 1542 96 1542 111 1546 c 1,16,-1
 145 1540 l 1,17,18
 147 1512 147 1512 149.5 1459 c 128,-1,19
 152 1406 152 1406 154 1378 c 1,20,-1
 154 1376 l 1,21,22
 319.861273727 1373.14032287 319.861273727 1373.14032287 400.5 1205 c 0,23,24
 446 1110.12765957 446 1110.12765957 446 1004.06382979 c 128,-1,25
 446 898 446 898 403 774.5 c 0,26,27
 349.604272502 621.142503582 349.604272502 621.142503582 265.5 582.5 c 0,28,29
 240.462897527 570.996466431 240.462897527 570.996466431 228.731448763 559.998233216 c 0,30,31
 209.363636364 541.840909091 209.363636364 541.840909091 190 537 c 1,0,-1
162 1317 m 1,32,-1
 162 1264 l 1,33,34
 163 1152 163 1152 175.5 934 c 128,-1,35
 188 716 188 716 190 612 c 1,36,37
 211 613.909090909 211 613.909090909 221.5 623.454545455 c 128,-1,38
 232 633 232 633 242 644 c 128,-1,39
 252 655 252 655 256 659 c 0,40,41
 389 792 389 792 389 993 c 0,42,43
 389 1156.3220339 389 1156.3220339 320.5 1222.5 c 0,44,45
 291 1251 291 1251 247 1282.5 c 128,-1,46
 203 1314 203 1314 199 1317 c 1,47,-1
 162 1317 l 1,32,-1
EndSplineSet
EndChar

StartChar: germandbls
Encoding: 223 223 158
Width: 616
GlyphClass: 2
Flags: HW
LayerCount: 2
Fore
SplineSet
180 809 m 1,0,-1
 190 49 l 2,1,2
 190 -12 190 -12 151.5 -12 c 128,-1,3
 113 -12 113 -12 113 16 c 2,4,-1
 123 535 l 1,5,6
 109 1266 l 1,7,8
 109 1536 109 1536 264 1536 c 0,9,10
 343 1536 343 1536 385.5 1445.5 c 128,-1,11
 428 1355 428 1355 428 1214 c 0,12,13
 428 979.045454545 428 979.045454545 297 854 c 1,14,15
 393 805 393 805 443.5 705 c 128,-1,16
 494 605 494 605 494 473 c 2,17,-1
 494 426 l 2,18,19
 494 191.092105263 494 191.092105263 413 100.5 c 0,20,21
 375 58 375 58 315 27 c 1,22,23
 303 23 303 23 292 23 c 128,-1,24
 281 23 281 23 267.5 30.5 c 128,-1,25
 254 38 254 38 254 54 c 128,-1,26
 254 70 254 70 279 88 c 1,27,28
 314 105 314 105 357.5 138 c 128,-1,29
 401 171 401 171 408 197 c 1,30,31
 433.894949495 246.797979798 433.894949495 246.797979798 434.947474747 288.898989899 c 128,-1,32
 436 331 436 331 436 382 c 128,-1,33
 436 433 436 433 428 494 c 128,-1,34
 420 555 420 555 401 620 c 0,35,36
 358.708825573 764.680333565 358.708825573 764.680333565 256 811 c 0,37,38
 243 817 243 817 233 831 c 128,-1,39
 223 845 223 845 223 854.5 c 128,-1,40
 223 864 223 864 224.5 868.5 c 128,-1,41
 226 873 226 873 228 876 c 128,-1,42
 230 879 230 879 234 881.5 c 128,-1,43
 238 884 238 884 240 885 c 0,44,45
 248 889 248 889 254 889 c 1,46,47
 297 902 297 902 336 1006.5 c 128,-1,48
 375 1111 375 1111 375 1211.5 c 128,-1,49
 375 1312 375 1312 343 1389 c 128,-1,50
 311 1466 311 1466 266 1466 c 0,51,52
 172 1466 172 1466 172 1255 c 1,53,-1
 180 887 l 1,54,-1
 180 809 l 1,0,-1
EndSplineSet
EndChar

